<svg width="12" height="22" viewBox="0 0 12 22" fill="none" xmlns="http://www.w3.org/2000/svg">
<path d="M3.84143 12.3054C3.76213 12.3054 2.09856 12.3059 1.33131 12.3051C0.936319 12.3049 0.795395 12.1629 0.795395 11.7654C0.794764 10.7443 0.794764 9.72327 0.795395 8.7022C0.795648 8.30974 0.944654 8.15998 1.33459 8.15972C2.10185 8.15922 3.75632 8.15947 3.84143 8.15947V5.93651C3.84193 4.93286 4.02099 3.97215 4.5309 3.09251C5.05292 2.19217 5.8126 1.57543 6.78619 1.21883C7.40974 0.99027 8.05703 0.899098 8.71872 0.898593C9.54658 0.898088 10.3744 0.898846 11.2026 0.900361C11.5584 0.900866 11.7163 1.05821 11.717 1.41658C11.7185 2.37703 11.7185 3.33749 11.717 4.29769C11.7165 4.65985 11.5652 4.80532 11.2013 4.80937C10.5227 4.81669 9.84358 4.81214 9.16573 4.83942C8.48107 4.83942 8.12092 5.1738 8.12092 5.88246C8.10451 6.63203 8.11411 7.38237 8.11411 8.15922C8.17825 8.15922 10.1267 8.15897 11.0374 8.15922C11.4511 8.15922 11.5925 8.3014 11.5925 8.71736C11.5925 9.73287 11.5923 10.7486 11.5915 11.7641C11.5912 12.174 11.4584 12.3049 11.0422 12.3051C10.1315 12.3056 8.19063 12.3054 8.10577 12.3054V20.5247C8.10577 20.9629 7.96788 21.1025 7.53551 21.1025H4.3728C3.99069 21.1025 3.84168 20.954 3.84168 20.5719L3.84143 12.3054Z" fill="#3D6AD6"/>
</svg>
