<svg width="19" height="19" viewBox="0 0 19 19" fill="none" xmlns="http://www.w3.org/2000/svg">
<path d="M1.31896 1.39628C-0.119983 2.89092 0.174519 4.47863 0.174519 9.30205C0.174519 13.3076 -0.524351 17.323 3.13327 18.2683C4.27542 18.5621 14.3953 18.5621 15.5359 18.2668C17.0588 17.8739 18.2978 16.6386 18.4672 14.4848C18.4908 14.1842 18.4908 4.42522 18.4664 4.11852C18.2864 1.8243 16.8741 0.502097 15.0133 0.234299C14.5868 0.172499 14.5013 0.154188 12.3132 0.150373C4.55161 0.154188 2.85021 -0.191432 1.31896 1.39628Z" fill="url(#paint0_linear_3211_3713)"/>
<path d="M9.32807 2.54559C6.55777 2.54559 3.9271 2.29915 2.92228 4.87795C2.50723 5.94304 2.56751 7.32628 2.56751 9.30692C2.56751 11.0449 2.51181 12.6784 2.92228 13.7351C3.92481 16.3154 6.57685 16.0682 9.32655 16.0682C11.9794 16.0682 14.7146 16.3444 15.7316 13.7351C16.1474 12.6594 16.0864 11.2967 16.0864 9.30692C16.0864 6.66556 16.2321 4.96035 14.9511 3.68011C13.654 2.38308 11.9 2.54559 9.32502 2.54559H9.32807ZM8.72228 3.76403C14.5009 3.75488 15.2364 3.11247 14.8305 12.0368C14.6863 15.1931 12.283 14.8468 9.32884 14.8468C3.94236 14.8468 3.78748 14.6926 3.78748 9.30387C3.78748 3.85253 4.21473 3.76708 8.72228 3.7625V3.76403ZM12.9369 4.88634C12.7218 4.88634 12.5155 4.97179 12.3634 5.12388C12.2113 5.27598 12.1258 5.48227 12.1258 5.69737C12.1258 5.91246 12.2113 6.11875 12.3634 6.27085C12.5155 6.42294 12.7218 6.50839 12.9369 6.50839C13.152 6.50839 13.3582 6.42294 13.5103 6.27085C13.6624 6.11875 13.7479 5.91246 13.7479 5.69737C13.7479 5.48227 13.6624 5.27598 13.5103 5.12388C13.3582 4.97179 13.152 4.88634 12.9369 4.88634ZM9.32807 5.8347C8.87214 5.83475 8.42069 5.9246 7.99949 6.09912C7.57828 6.27364 7.19558 6.52942 6.87322 6.85185C6.2222 7.50301 5.85652 8.38613 5.85662 9.30692C5.85672 10.2277 6.2226 11.1107 6.87376 11.7618C7.52493 12.4128 8.40805 12.7785 9.32884 12.7784C10.2496 12.7783 11.1327 12.4124 11.7837 11.7612C12.4347 11.1101 12.8004 10.2269 12.8003 9.30615C12.8002 8.38537 12.4343 7.50233 11.7831 6.85131C11.132 6.20028 10.2489 5.8346 9.32807 5.8347ZM9.32807 7.05314C12.3074 7.05314 12.3112 11.5607 9.32807 11.5607C6.34949 11.5607 6.34491 7.05314 9.32807 7.05314Z" fill="white"/>
<defs>
<linearGradient id="paint0_linear_3211_3713" x1="1.35407" y1="17.2918" x2="18.3722" y2="2.56283" gradientUnits="userSpaceOnUse">
<stop stop-color="#FFDD55"/>
<stop offset="0.5" stop-color="#FF543E"/>
<stop offset="1" stop-color="#C837AB"/>
</linearGradient>
</defs>
</svg>
