<svg width="117" height="117" viewBox="0 0 117 117" fill="none" xmlns="http://www.w3.org/2000/svg">
<path d="M42 97.9H34.77C34.36 97.9 33.98 98.06 33.7 98.34C33.41 98.63 33.26 99.01 33.26 99.41C33.26 99.81 33.42 100.2 33.7 100.48C33.99 100.77 34.37 100.92 34.77 100.92H42C42.4 100.92 42.78 100.76 43.07 100.48C43.35 100.2 43.51 99.81 43.51 99.41C43.51 99.01 43.35 98.63 43.07 98.34C42.78 98.06 42.4 97.9 42 97.9Z" fill="#4C4B4C"/>
<path d="M79.02 113.44H83.29C83.69 113.44 84.07 113.28 84.36 113C84.65 112.71 84.8 112.33 84.8 111.93C84.8 111.53 84.64 111.14 84.36 110.86C84.07 110.57 83.69 110.42 83.29 110.42H79.02C78.62 110.42 78.23 110.58 77.95 110.86C77.67 111.14 77.51 111.53 77.51 111.93C77.51 112.34 77.67 112.72 77.95 113C78.23 113.28 78.62 113.44 79.02 113.44Z" fill="#4C4B4C"/>
<path d="M112.13 29.84C114.81 29.84 117 27.66 117 24.97V4.86C117 2.18 114.82 0 112.13 0H85.32C82.64 0 80.45 2.18 80.45 4.86V24.97C80.45 25.76 80.66 26.5 80.99 27.16L73.2 34.94C72.19 35.95 69.98 36.87 68.55 36.87H60V29.84H71.9C74.58 29.84 76.76 27.66 76.76 24.97V4.86C76.76 2.18 74.58 0 71.9 0H45.09C42.41 0 40.22 2.18 40.22 4.86V24.97C40.22 27.65 42.4 29.84 45.09 29.84H56.99V36.87H21.63C20.62 36.87 19.79 36.04 19.79 35.03V29.84H31.69C33.84 29.84 35.64 28.43 36.29 26.49C36.45 26.01 36.56 25.5 36.56 24.97V23.86V4.86C36.56 2.18 34.38 0 31.7 0H4.86C2.18 0 0 2.18 0 4.86V24.97C0 27.65 2.18 29.84 4.86 29.84H8.21H16.75V35.03C16.75 37.71 18.93 39.9 21.62 39.9H36.87V46.93H3.68C1.65 46.93 0 48.58 0 50.61V95.07V101.58C0 103.61 1.65 105.26 3.68 105.26H26.81V108.94H23.3C19.69 108.94 16.76 111.88 16.76 115.48C16.76 115.68 16.8 115.88 16.88 116.06C16.96 116.24 17.07 116.41 17.21 116.55C17.35 116.69 17.52 116.8 17.7 116.88C17.88 116.96 18.08 117 18.28 117H58.5C58.91 117 59.29 116.84 59.57 116.56C59.86 116.27 60.01 115.89 60.01 115.49C60.01 111.88 57.08 108.95 53.47 108.95H49.95V105.27H65.41V108.38V111.22C65.41 114.41 68 117 71.19 117H91.1C94.29 117 96.88 114.41 96.88 111.22V108.38V74.24V72.82C96.88 69.63 94.29 67.04 91.1 67.04H76.77V50.61C76.77 48.58 75.12 46.93 73.09 46.93H39.9V39.9H68.56C70.79 39.9 73.78 38.66 75.35 37.09L83.13 29.31C83.79 29.64 84.52 29.85 85.31 29.85H97.21V33.53H85.31C82.63 33.53 80.44 35.71 80.44 38.39V58.5C80.44 61.18 82.62 63.37 85.31 63.37H112.13C114.81 63.37 117 61.19 117 58.5V38.39C117 35.71 114.82 33.53 112.13 33.53H100.23V29.85H112.13V29.84ZM84.02 26.28C84.01 26.27 84.02 26.27 84.02 26.28C83.68 25.94 83.48 25.48 83.48 24.98V4.86C83.48 3.85 84.31 3.02 85.32 3.02H112.14C113.15 3.02 113.98 3.84 113.98 4.86V24.97C113.98 25.99 113.15 26.81 112.14 26.81H85.32C84.82 26.81 84.37 26.61 84.03 26.28H84.02ZM45.09 26.82C44.08 26.82 43.25 25.99 43.25 24.98V4.86C43.25 3.85 44.07 3.02 45.09 3.02H71.91C72.92 3.02 73.75 3.84 73.75 4.86V24.97C73.75 25.99 72.93 26.81 71.91 26.81H45.09V26.82ZM4.86 26.82C3.85 26.82 3.02 25.99 3.02 24.98V4.86C3.02 3.85 3.84 3.02 4.86 3.02H31.68C32.69 3.02 33.52 3.84 33.52 4.86V19.32L24.51 7.31C24.37 7.12 24.18 6.97 23.98 6.86C23.56 6.65 23.04 6.65 22.63 6.86C22.42 6.96 22.24 7.12 22.1 7.31L7.46 26.82H4.86ZM23.3 10.74L33.52 24.37V24.98C33.52 25.57 33.23 26.09 32.8 26.43C32.49 26.67 32.1 26.82 31.68 26.82H11.24L23.3 10.74ZM46.93 108.94H29.84V105.27H46.93V108.94ZM53.47 111.97C54.84 111.97 56.07 112.77 56.64 113.98H20.13C20.7 112.77 21.93 111.97 23.3 111.97H28.33H48.45H53.47ZM73.09 49.96C73.26 49.96 73.43 50.03 73.55 50.15C73.67 50.27 73.74 50.44 73.74 50.61V67.04H72.58V52.64C72.58 52.44 72.54 52.24 72.47 52.06C72.39 51.88 72.28 51.71 72.14 51.57C72 51.43 71.83 51.32 71.65 51.24C71.47 51.16 71.27 51.12 71.07 51.12H5.7C5.3 51.12 4.92 51.28 4.63 51.56C4.34 51.85 4.19 52.23 4.19 52.63V93.55H3.03V50.61C3.03 50.25 3.33 49.96 3.69 49.96H73.09ZM91.1 70.06C92.59 70.06 93.8 71.25 93.85 72.72H68.45C68.45 72.71 68.45 72.7 68.45 72.69C68.46 72.54 68.47 72.4 68.49 72.26C68.49 72.25 68.5 72.24 68.5 72.23C68.61 71.71 68.87 71.24 69.24 70.87C69.27 70.84 69.31 70.81 69.34 70.78C69.43 70.7 69.53 70.61 69.63 70.54C69.74 70.46 69.86 70.4 69.98 70.34C70.01 70.33 70.04 70.31 70.07 70.29C70.39 70.15 70.74 70.07 71.11 70.06C71.12 70.06 71.13 70.05 71.15 70.05C71.17 70.05 71.18 70.05 71.2 70.05H75.27H75.28H91.1V70.06ZM68.44 109.89H93.86V111.22C93.86 112.74 92.62 113.98 91.1 113.98H71.19C69.67 113.98 68.43 112.74 68.43 111.22V109.89H68.44ZM3.68 102.24C3.51 102.24 3.34 102.17 3.22 102.05C3.1 101.93 3.03 101.76 3.03 101.59V96.59H5.7H65.41V102.24H3.68ZM69.56 67.28C69.29 67.36 69.02 67.46 68.77 67.58C68.7 67.61 68.64 67.64 68.58 67.67C68.39 67.77 68.2 67.87 68.03 67.99C67.89 68.08 67.76 68.18 67.64 68.28C67.58 68.33 67.51 68.38 67.45 68.44C67.06 68.77 66.72 69.15 66.43 69.57C66.41 69.6 66.39 69.64 66.36 69.68C66.21 69.91 66.08 70.15 65.97 70.4C65.92 70.51 65.87 70.63 65.82 70.74C65.78 70.85 65.73 70.96 65.7 71.07C65.63 71.3 65.57 71.53 65.53 71.77C65.52 71.84 65.51 71.92 65.5 71.99C65.46 72.26 65.43 72.54 65.43 72.82V74.24V93.56H7.22V54.15H69.56V67.28ZM68.44 103.75V95.07C68.44 95.07 68.44 95.07 68.44 95.06V75.75H93.86V106.86H68.44V103.75ZM112.13 36.55C113.14 36.55 113.97 37.37 113.97 38.39V58.5C113.97 59.51 113.14 60.34 112.13 60.34H85.32C84.31 60.34 83.48 59.51 83.48 58.5V38.38C83.48 37.37 84.31 36.54 85.32 36.54H112.13V36.55Z" fill="#4C4B4C"/>
<path d="M29.08 85.42H48.95C52.84 85.42 56 82.26 56 78.38C56 74.83 53.34 71.84 49.86 71.39C49.14 66.17 44.71 62.28 39.39 62.28C35.11 62.28 31.24 64.9 29.62 68.84C24.77 68.51 20.78 72.37 20.78 77.12C20.78 81.7 24.5 85.42 29.08 85.42ZM29.27 73.92C29.55 74.2 29.94 74.36 30.34 74.36C30.54 74.36 30.73 74.32 30.92 74.24C31.1 74.16 31.27 74.05 31.41 73.91C31.55 73.77 31.66 73.6 31.74 73.42C31.82 73.24 31.85 73.04 31.85 72.84C31.85 72.21 31.94 71.56 32.11 70.9C32.98 67.6 35.97 65.3 39.38 65.3C43.13 65.3 46.24 68.06 46.82 71.65C45.75 71.99 44.78 72.57 43.96 73.39C43.68 73.68 43.52 74.06 43.52 74.46C43.52 74.66 43.56 74.85 43.64 75.04C43.72 75.23 43.83 75.39 43.97 75.53C44.11 75.67 44.28 75.78 44.46 75.86C44.65 75.94 44.84 75.98 45.04 75.98C45.24 75.98 45.43 75.94 45.62 75.86C45.81 75.78 45.97 75.67 46.11 75.53C46.48 75.15 46.92 74.86 47.41 74.66C47.89 74.46 48.4 74.36 48.92 74.36C48.93 74.36 48.93 74.36 48.94 74.36C51.16 74.36 52.96 76.16 52.96 78.38C52.96 80.59 51.16 82.4 48.94 82.4H29.08C26.17 82.4 23.8 80.03 23.8 77.13C23.8 74.28 26.07 71.97 28.89 71.87C28.86 72.2 28.82 72.53 28.82 72.85C28.83 73.25 28.98 73.63 29.27 73.92Z" fill="#4C4B4C"/>
<path d="M95.14 24.37C95.28 24.51 95.45 24.62 95.63 24.7C95.81 24.78 96.01 24.81 96.2 24.81C96.2 24.81 96.2 24.81 96.21 24.81H101.24C101.64 24.81 102.02 24.65 102.31 24.37C102.6 24.08 102.75 23.7 102.75 23.3V13.25C102.75 13.05 102.71 12.86 102.63 12.67C102.55 12.48 102.44 12.32 102.3 12.18C102.16 12.04 101.99 11.93 101.81 11.85C101.62 11.77 101.43 11.74 101.23 11.74H96.2C96 11.74 95.81 11.78 95.62 11.85C95.44 11.93 95.27 12.04 95.13 12.18C94.99 12.32 94.88 12.49 94.8 12.67C94.72 12.86 94.69 13.05 94.69 13.25V23.3C94.69 23.5 94.73 23.69 94.81 23.88C94.89 24.07 95 24.23 95.14 24.37ZM97.73 21.79V14.76H99.73V21.79H97.73Z" fill="#4C4B4C"/>
<path d="M104.36 24.37C104.5 24.51 104.67 24.62 104.85 24.7C105.04 24.78 105.23 24.81 105.43 24.81H110.46C110.86 24.81 111.25 24.65 111.53 24.37C111.81 24.09 111.97 23.7 111.97 23.3V9.89001C111.97 9.49001 111.81 9.1 111.53 8.82C111.25 8.54 110.86 8.38 110.46 8.38H105.43C105.23 8.38 105.04 8.42 104.85 8.49C104.67 8.57 104.5 8.68 104.36 8.82C104.22 8.96 104.11 9.13001 104.03 9.31001C103.95 9.49001 103.91 9.69001 103.91 9.89001V23.3C103.91 23.5 103.95 23.7 104.02 23.88C104.11 24.07 104.22 24.23 104.36 24.37ZM108.95 11.41V21.79H106.95V11.41H108.95Z" fill="#4C4B4C"/>
<path d="M9.89002 5.03003C7.21002 5.03003 5.02002 7.21003 5.02002 9.90003C5.02002 12.58 7.20002 14.77 9.89002 14.77C12.57 14.77 14.76 12.59 14.76 9.90003C14.76 7.21003 12.58 5.03003 9.89002 5.03003ZM11.73 9.89003C11.73 10.9 10.9 11.73 9.89002 11.73C8.88002 11.73 8.05002 10.9 8.05002 9.89003C8.05002 8.88003 8.88002 8.05003 9.89002 8.05003C10.91 8.05003 11.73 8.88003 11.73 9.89003Z" fill="#4C4B4C"/>
<path d="M85.92 24.37C86.06 24.51 86.23 24.62 86.41 24.7C86.59 24.78 86.79 24.82 86.99 24.82H92.02C92.22 24.82 92.41 24.78 92.6 24.7C92.78 24.62 92.95 24.51 93.09 24.37C93.23 24.23 93.34 24.06 93.42 23.88C93.5 23.7 93.54 23.5 93.54 23.3V6.54003C93.54 6.14003 93.38 5.75003 93.1 5.47003C92.82 5.19003 92.43 5.03003 92.03 5.03003H87C86.8 5.03003 86.61 5.07003 86.42 5.14003C86.24 5.22003 86.07 5.33003 85.93 5.47003C85.79 5.61003 85.68 5.78003 85.6 5.96003C85.52 6.15003 85.49 6.34003 85.49 6.54003V23.3C85.49 23.5 85.53 23.69 85.61 23.88C85.67 24.07 85.78 24.23 85.92 24.37ZM88.5 21.79V8.05003H90.5V21.79H88.5Z" fill="#4C4B4C"/>
<path d="M89.28 47.8301C89.42 47.9701 89.59 48.0801 89.77 48.1601C89.96 48.2401 90.15 48.2801 90.35 48.2801H93.7C93.9 48.2801 94.09 48.2401 94.28 48.1601C94.46 48.0801 94.63 47.9701 94.77 47.8301C94.91 47.6901 95.02 47.5201 95.1 47.3401C95.18 47.1601 95.22 46.9601 95.22 46.7601V44.9301H95.55V51.9601H93.7C93.3 51.9601 92.92 52.1201 92.63 52.4001C92.34 52.6901 92.19 53.0701 92.19 53.4701V56.8201C92.19 57.2201 92.35 57.6101 92.63 57.8901C92.92 58.1801 93.3 58.3301 93.7 58.3301H103.76C104.16 58.3301 104.55 58.1701 104.83 57.8901C105.12 57.6001 105.27 57.2201 105.27 56.8201V53.4701C105.27 53.0701 105.11 52.6901 104.83 52.4001C104.55 52.1201 104.16 51.9601 103.76 51.9601H101.92V44.9301H102.25V46.7601C102.25 46.9601 102.29 47.1601 102.36 47.3401C102.43 47.5201 102.55 47.6901 102.69 47.8401C102.83 47.9901 103 48.0901 103.18 48.1701C103.37 48.2501 103.56 48.2901 103.76 48.2901H107.11C107.31 48.2901 107.5 48.2501 107.69 48.1701C107.87 48.1001 108.04 47.9901 108.18 47.8401C108.32 47.7001 108.43 47.5301 108.51 47.3501C108.59 47.1701 108.63 46.9701 108.63 46.7701V40.0701C108.63 39.8701 108.59 39.6701 108.51 39.4901C108.43 39.3101 108.32 39.1401 108.18 39.0001C108.04 38.8601 107.87 38.7501 107.69 38.6801C107.51 38.6001 107.31 38.5601 107.11 38.5601H90.35C90.15 38.5601 89.95 38.6001 89.77 38.6701C89.59 38.7501 89.42 38.8601 89.28 39.0001C89.14 39.1401 89.03 39.3101 88.95 39.4901C88.87 39.6701 88.83 39.8701 88.83 40.0701V46.7701C88.83 46.9701 88.87 47.1701 88.94 47.3501C89.02 47.5301 89.14 47.6901 89.28 47.8301ZM104.83 42.3501C104.55 42.0701 104.16 41.9101 103.76 41.9101H100.41C100.21 41.9101 100.02 41.9501 99.83 42.0301C99.65 42.1101 99.48 42.2201 99.34 42.3601C99.2 42.5001 99.09 42.6701 99.01 42.8501C98.93 43.0401 98.9 43.2301 98.9 43.4301V53.4901C98.9 53.6901 98.94 53.8801 99.01 54.0701C99.09 54.2501 99.2 54.4201 99.34 54.5601C99.48 54.7001 99.64 54.8101 99.83 54.8901C100.01 54.9701 100.21 55.0001 100.41 55.0001H102.25V55.3301H95.22V55.0001H97.06C97.46 55.0001 97.84 54.8401 98.13 54.5601C98.42 54.2701 98.57 53.8901 98.57 53.4901V43.4201C98.57 43.0201 98.41 42.6401 98.13 42.3501C97.84 42.0601 97.46 41.9101 97.06 41.9101H93.7C93.3 41.9101 92.92 42.0701 92.63 42.3501C92.35 42.6301 92.19 43.0201 92.19 43.4201V45.2501H91.86V41.5701H105.59V45.2501H105.27V43.4201C105.27 43.0201 105.11 42.6301 104.83 42.3501Z" fill="#4C4B4C"/>
<path d="M68.39 14.92C68.39 14.91 68.39 14.91 68.39 14.9C68.39 14.87 68.39 14.83 68.39 14.8C68.33 9.41002 63.89 5.02002 58.49 5.02002C53.04 5.02002 48.6 9.46002 48.6 14.91C48.6 17.55 49.63 20.03 51.49 21.9C53.36 23.77 55.84 24.8 58.49 24.8C63.88 24.8 68.27 20.47 68.37 15.1C68.38 15.04 68.38 14.99 68.38 14.94C68.39 14.95 68.39 14.93 68.39 14.92ZM60.01 13.41V8.22002C62.58 8.80002 64.62 10.83 65.2 13.4H60.01V13.41ZM56.98 8.22002V14.29L52.69 18.58C52 17.49 51.63 16.23 51.63 14.91C51.63 11.71 53.9 8.92002 56.98 8.22002ZM58.87 16.69L59.12 16.44H65.2C64.5 19.53 61.72 21.79 58.5 21.79C57.18 21.79 55.92 21.42 54.83 20.73L58.87 16.69Z" fill="#4C4B4C"/>
</svg>
