<svg width="19" height="14" viewBox="0 0 19 14" fill="none" xmlns="http://www.w3.org/2000/svg">
<path fill-rule="evenodd" clip-rule="evenodd" d="M17.7735 1.74751C17.4025 1.41071 16.9327 1.18987 16.4189 1.13311C15.3021 1.00812 14.1752 0.945196 13.0445 0.913626C11.9212 0.882271 10.793 0.882271 9.66726 0.882989C8.54171 0.882271 7.41365 0.882271 6.29004 0.913626C5.15925 0.945196 4.03205 1.00812 2.91468 1.13311C2.4013 1.18987 1.93177 1.41079 1.5611 1.74773C1.19288 2.08244 0.922309 2.53203 0.80392 3.04878C0.644132 3.74146 0.563341 4.46413 0.522515 5.19139C0.481473 5.9216 0.480469 6.64262 0.480469 7.34262C0.480469 8.04161 0.480469 8.76177 0.520434 9.49241C0.560327 10.2193 0.640185 10.942 0.800046 11.6348C0.91908 12.1518 1.18987 12.6015 1.55802 12.9361C1.92847 13.2729 2.39757 13.4936 2.91073 13.5505C4.02832 13.6755 5.15552 13.7384 6.28631 13.7699C7.40985 13.8012 8.53798 13.8012 9.66368 13.8005C10.7899 13.8012 11.918 13.8012 13.0414 13.7699C14.172 13.7384 15.2989 13.6755 16.4163 13.5505C16.9294 13.4936 17.3985 13.2729 17.769 12.9363C18.1373 12.6016 18.4085 12.1519 18.5283 11.6348C18.6875 10.942 18.7673 10.2193 18.8073 9.49241C18.8468 8.77569 18.8471 8.0485 18.8471 7.34262H18.8478V7.30717H18.8471C18.8471 5.90452 18.8471 4.41907 18.5322 3.04878C18.4132 2.53174 18.1421 2.08216 17.7735 1.74751Z" fill="#E42B26"/>
<path fill-rule="evenodd" clip-rule="evenodd" d="M13.1477 6.99455C12.1012 6.44809 11.0619 5.90573 10.0238 5.36409C9.16075 4.91371 8.2986 4.46383 7.43386 4.01238L7.14844 3.86328V10.4499L7.43314 10.3025C8.38814 9.80774 9.33912 9.31489 10.29 8.82182L13.1469 7.34031L13.4795 7.16782L13.1477 6.99455Z" fill="#FFFFFE"/>
</svg>
