<svg width="28" height="28" viewBox="0 0 28 28" fill="none" xmlns="http://www.w3.org/2000/svg">
<rect x="27.5" y="0.5" width="27" height="27" rx="13.5" transform="rotate(90 27.5 0.5)" stroke="#4B4B4B"/>
<path d="M13.6464 19.4436C13.8417 19.6388 14.1583 19.6388 14.3536 19.4436L17.5355 16.2616C17.7308 16.0663 17.7308 15.7497 17.5355 15.5545C17.3403 15.3592 17.0237 15.3592 16.8284 15.5545L14 18.3829L11.1716 15.5545C10.9763 15.3592 10.6597 15.3592 10.4645 15.5545C10.2692 15.7497 10.2692 16.0663 10.4645 16.2616L13.6464 19.4436ZM13.5 8.9082L13.5 19.09L14.5 19.09L14.5 8.9082L13.5 8.9082Z" fill="#4B4B4B"/>
</svg>
