<svg width="116" height="116" viewBox="0 0 116 116" fill="none" xmlns="http://www.w3.org/2000/svg">
<path d="M100.302 97.6566C110.426 86.8676 116 72.8445 116 58C116 42.6805 110.021 28.7397 100.284 18.3617L104.241 14.405C104.973 14.7568 105.781 14.9677 106.645 14.9677C109.739 14.9677 112.258 12.449 112.258 9.35484C112.258 6.26073 109.739 3.74194 106.645 3.74194C103.551 3.74194 101.032 6.26073 101.032 9.35484C101.032 10.219 101.243 11.0275 101.595 11.7593L97.6383 15.7161C87.2603 5.97914 73.3195 0 58 0C46.7312 0 35.836 3.24402 26.4368 9.35484H7.48387C3.35652 9.35484 0 12.7114 0 16.8387V99.1613C0 103.289 3.35652 106.645 7.48387 106.645H26.4129C35.8143 112.763 46.733 116 58 116C69.1381 116 79.9072 112.823 89.2335 106.847L96.287 113.901C97.6421 115.255 99.4398 116 101.352 116C105.304 116 108.516 112.788 108.516 108.836C108.516 106.924 107.771 105.124 106.417 103.771L100.302 97.6566ZM106.645 7.48387C107.676 7.48387 108.516 8.3244 108.516 9.35484C108.516 10.3853 107.676 11.2258 106.645 11.2258C105.615 11.2258 104.774 10.3853 104.774 9.35484C104.774 8.3244 105.615 7.48387 106.645 7.48387ZM58 3.74194C72.2872 3.74194 85.2934 9.30268 94.9946 18.3598L90.3418 23.0124C89.6081 22.6626 88.7996 22.4516 87.9355 22.4516C86.7215 22.4516 85.604 22.848 84.6859 23.505L74.6142 16.4549C74.7459 15.9781 74.8389 15.4858 74.8389 14.9677C74.8389 11.8736 72.3202 9.35484 69.226 9.35484C66.1319 9.35484 63.6131 11.8736 63.6131 14.9677C63.6131 18.0619 66.1319 20.5806 69.226 20.5806C70.4401 20.5806 71.5575 20.1842 72.4757 19.5273L82.5476 26.5773C82.4159 27.0542 82.3228 27.5465 82.3228 28.0645C82.3228 31.1586 84.8416 33.6774 87.9357 33.6774C91.0298 33.6774 93.5486 31.1586 93.5486 28.0645C93.5486 27.2004 93.3377 26.3919 92.9859 25.6601L97.6386 21.0072C106.697 30.7066 112.258 43.7128 112.258 58C112.258 71.8452 107.074 84.9291 97.6549 95.0091L85.4579 82.8132C87.9574 78.6964 89.4174 74.033 89.7115 69.2258H108.516V65.4839H104.774V35.5484H93.5484V65.4839H89.8064V46.7742H78.5806V65.4839H74.8387V35.5484H63.6129V37.6797C62.3722 37.5262 61.1245 37.4194 59.871 37.4194V16.8387C59.871 12.7114 56.5145 9.35484 52.3871 9.35484H34.0025C41.4293 5.68423 49.5991 3.74194 58 3.74194ZM89.8064 28.0645C89.8064 29.095 88.9659 29.9355 87.9355 29.9355C86.9051 29.9355 86.0645 29.095 86.0645 28.0645C86.0645 27.0341 86.9051 26.1935 87.9355 26.1935C88.9659 26.1935 89.8064 27.0341 89.8064 28.0645ZM71.0968 14.9677C71.0968 15.9982 70.2562 16.8387 69.2258 16.8387C68.1954 16.8387 67.3548 15.9982 67.3548 14.9677C67.3548 13.9373 68.1954 13.0968 69.2258 13.0968C70.2562 13.0968 71.0968 13.9373 71.0968 14.9677ZM30.0304 69.2258H11.2258V50.5161H35.141C31.8602 55.3168 29.9355 61.1152 29.9355 67.3548C29.9355 67.987 29.9911 68.6046 30.0304 69.2258ZM59.871 41.1613C61.1262 41.1613 62.3741 41.2829 63.6129 41.459V45.2267C62.3797 45.0209 61.1299 44.9032 59.871 44.9032C47.4903 44.9032 37.4194 54.9744 37.4194 67.3548C37.4194 79.7353 47.4905 89.8064 59.871 89.8064C71.6183 89.8064 81.2711 80.7302 82.2276 69.2258H85.9696C85.0037 82.7957 73.682 93.5484 59.871 93.5484C45.4266 93.5484 33.6774 81.7992 33.6774 67.3548C33.6774 52.9105 45.4266 41.1613 59.871 41.1613ZM78.4857 69.2258C77.5437 78.6665 69.5546 86.0645 59.871 86.0645C49.5542 86.0645 41.1613 77.6716 41.1613 67.3548C41.1613 57.0381 49.5542 48.6452 59.871 48.6452C61.1353 48.6452 62.3832 48.8152 63.6129 49.0645V65.4839H59.871V69.2258H78.4857ZM67.3548 65.4839V39.2903H71.0968V65.4839H67.3548ZM82.3226 65.4839V50.5161H86.0645V65.4839H82.3226ZM97.2903 65.4839V39.2903H101.032V65.4839H97.2903ZM3.74194 16.8387C3.74194 14.775 5.42019 13.0968 7.48387 13.0968H52.3871C54.4508 13.0968 56.129 14.775 56.129 16.8387V24.3226H3.74194V16.8387ZM3.74194 28.0645H56.129V37.6797C49.1019 38.5623 42.8339 41.8811 38.1888 46.7742H7.48387V72.9677H30.4818C30.7248 74.2458 31.0527 75.4935 31.4528 76.7097H7.48387V80.4516H32.994C34.3358 83.1953 36.0874 85.7188 38.1886 87.9355H3.74194V28.0645ZM7.48387 102.903C5.42019 102.903 3.74194 101.225 3.74194 99.1613V91.6774H42.4859C46.4316 94.5068 51.0835 96.3979 56.129 97.03V99.1613C56.129 101.225 54.4508 102.903 52.3871 102.903H7.48387ZM58 112.258C49.6089 112.258 41.4363 110.312 34.0128 106.645H52.3871C56.5145 106.645 59.871 103.289 59.871 99.1613V97.2903C65.5306 97.2903 70.8091 95.6834 75.3294 92.9417L86.5159 104.128C77.9539 109.431 68.1441 112.258 58 112.258ZM101.352 112.258C100.902 112.259 100.457 112.171 100.042 111.999C99.6266 111.827 99.2496 111.574 98.9328 111.255L78.4574 90.7794C80.2485 89.3555 81.8716 87.7324 83.2955 85.9413L103.773 106.419C104.091 106.735 104.344 107.112 104.516 107.527C104.688 107.942 104.775 108.387 104.774 108.836C104.774 110.724 103.24 112.258 101.352 112.258Z" fill="#4B4B4B"/>
<path d="M20.5807 95.4193H39.2903V99.1612H20.5807V95.4193ZM7.48389 31.8064H11.2258V35.5483H7.48389V31.8064ZM14.9678 31.8064H18.7097V35.5483H14.9678V31.8064ZM22.4516 31.8064H26.1936V35.5483H22.4516V31.8064ZM29.9355 31.8064H52.3871V35.5483H29.9355V31.8064ZM7.48389 39.2903H29.9355V43.0322H7.48389V39.2903ZM33.6774 39.2903H37.4194V43.0322H33.6774V39.2903Z" fill="#4B4B4B"/>
</svg>
