<svg width="116" height="116" viewBox="0 0 116 116" fill="none" xmlns="http://www.w3.org/2000/svg">
<path d="M114.067 66.2706V21.2663C114.067 19.728 113.456 18.2528 112.368 17.165C111.281 16.0773 109.805 15.4662 108.267 15.4662H90.7317C90.6621 15.3676 90.6196 15.2555 90.5384 15.1627C89.7502 14.2214 88.9233 13.3133 88.0598 12.4406C87.206 11.5956 86.3172 10.7867 85.3957 10.0162C84.7895 9.50236 84.0507 9.16994 83.2642 9.05709C82.4776 8.94423 81.6752 9.05552 80.949 9.37816L75.3616 11.76C72.8751 10.353 70.2262 9.25445 67.4736 8.48882L65.2232 2.8512C64.9317 2.12293 64.4472 1.4879 63.8217 1.0144C63.1963 0.540904 62.4536 0.246846 61.6736 0.163851C59.2373 -0.0546169 56.7864 -0.0546169 54.3501 0.163851C53.5638 0.245431 52.815 0.540842 52.1848 1.01801C51.5546 1.49518 51.0671 2.13587 50.7753 2.87053L48.5269 8.48882C45.7743 9.25445 43.1254 10.353 40.6388 11.76L35.0611 9.37816C34.3398 9.05539 33.5424 8.94171 32.7596 9.05007C31.9769 9.15842 31.2403 9.48446 30.6338 9.99103C29.6902 10.7787 28.7807 11.6062 27.9078 12.4715C26.914 13.4904 26.1368 14.3449 25.4853 15.1337C25.3964 15.2362 25.35 15.358 25.2726 15.4662H7.73337C6.1951 15.4662 4.71984 16.0773 3.63213 17.165C2.54441 18.2528 1.93334 19.728 1.93334 21.2663V66.2706C1.34746 66.6073 0.860418 67.0921 0.521079 67.6764C0.18174 68.2608 0.00203763 68.9241 0 69.5998L0 108.267C0 110.318 0.814763 112.285 2.26505 113.735C3.71534 115.185 5.68235 116 7.73337 116H108.267C110.318 116 112.285 115.185 113.735 113.735C115.186 112.285 116 110.318 116 108.267V69.5998C115.998 68.9241 115.819 68.2608 115.479 67.6764C115.14 67.0921 114.653 66.6073 114.067 66.2706ZM110.2 21.2663V65.7331H105.978C105.58 64.6062 104.843 63.6298 103.868 62.9377C102.894 62.2455 101.729 61.8714 100.534 61.8664H89.6142L88.7732 59.8944C90.1803 57.4081 91.2782 54.7591 92.0425 52.0064L97.6821 49.7541C98.4105 49.4622 99.0456 48.9773 99.5191 48.3516C99.9926 47.7258 100.287 46.9828 100.369 46.2025C100.486 44.9829 100.541 43.7582 100.534 42.533C100.542 41.3143 100.487 40.096 100.371 38.8829C100.291 38.0971 99.9971 37.3484 99.5217 36.7176C99.0463 36.0869 98.4075 35.5981 97.6743 35.3043L92.0425 33.0597C91.2779 30.3083 90.18 27.6606 88.7732 25.1755L91.1571 19.5939C91.1938 19.5108 91.1976 19.4219 91.2286 19.3368H108.267C108.779 19.3368 109.27 19.54 109.633 19.9017C109.995 20.2634 110.199 20.7542 110.2 21.2663ZM87.0004 67.6665C87.0004 67.1537 87.204 66.662 87.5666 66.2994C87.9292 65.9368 88.421 65.7331 88.9337 65.7331H100.534C101.047 65.7331 101.538 65.9368 101.901 66.2994C102.263 66.662 102.467 67.1537 102.467 67.6665V75.3998C102.467 75.9126 102.263 76.4043 101.901 76.7669C101.538 77.1295 101.047 77.3332 100.534 77.3332H88.9337C88.421 77.3332 87.9292 77.1295 87.5666 76.7669C87.204 76.4043 87.0004 75.9126 87.0004 75.3998V67.6665ZM30.6435 15.2052C31.4367 14.4184 32.2636 13.6662 33.122 12.951C33.1838 12.9115 33.255 12.889 33.3282 12.8856C33.4015 12.8822 33.4744 12.8981 33.5396 12.9316L40.0202 15.6982C40.3018 15.8186 40.608 15.8703 40.9135 15.8491C41.2191 15.828 41.5152 15.7345 41.7776 15.5764C44.4618 13.9515 47.3759 12.7411 50.4215 11.9862C50.7198 11.9126 50.9961 11.769 51.2278 11.5673C51.4594 11.3655 51.6397 11.1115 51.7536 10.8262L54.3598 4.29927C54.3882 4.22417 54.4358 4.15785 54.4979 4.10696C54.56 4.05606 54.6343 4.02237 54.7136 4.00927C56.9073 3.81207 59.1144 3.81207 61.3082 4.00927C61.3821 4.02472 61.4509 4.05848 61.5083 4.10747C61.5657 4.15645 61.6099 4.21908 61.6369 4.2896L64.2469 10.8243C64.3608 11.1096 64.541 11.3636 64.7727 11.5653C65.0043 11.767 65.2807 11.9107 65.5789 11.9843C68.6264 12.738 71.5426 13.9477 74.2287 15.5726C74.4911 15.7306 74.7872 15.8241 75.0927 15.8453C75.3983 15.8665 75.7045 15.8147 75.9861 15.6944L82.4647 12.9278C82.5357 12.8936 82.6146 12.8795 82.693 12.887C82.7714 12.8945 82.8462 12.9233 82.9094 12.9703C83.6402 13.5735 84.4174 14.283 85.3261 15.1704C86.2425 16.1081 86.952 16.8873 87.5823 17.6509C87.6216 17.7128 87.644 17.7839 87.6474 17.8572C87.6508 17.9304 87.635 18.0033 87.6016 18.0685L84.835 24.553C84.7147 24.8346 84.6629 25.1408 84.6841 25.4463C84.7053 25.7519 84.7988 26.048 84.9568 26.3104C86.5802 28.9954 87.7905 31.9093 88.547 34.9543C88.6207 35.2526 88.7643 35.5289 88.966 35.7606C89.1677 35.9922 89.4218 36.1725 89.707 36.2864L96.2359 38.8925C96.3113 38.9211 96.3778 38.969 96.4287 39.0315C96.4796 39.0939 96.5131 39.1687 96.5259 39.2483C96.6295 40.34 96.6766 41.4364 96.6671 42.533C96.6751 43.6375 96.6261 44.7416 96.5201 45.841C96.5047 45.9149 96.4709 45.9837 96.4219 46.0411C96.373 46.0985 96.3103 46.1427 96.2398 46.1696L89.707 48.7797C89.4218 48.8936 89.1677 49.0738 88.966 49.3055C88.7643 49.5371 88.6207 49.8135 88.547 50.1117C87.7916 53.1587 86.582 56.0746 84.9588 58.7615C84.8007 59.0238 84.7072 59.32 84.6861 59.6255C84.6649 59.9311 84.7166 60.2373 84.837 60.5189L85.8036 62.7964C84.7298 63.4936 83.9163 64.526 83.4894 65.7331H71.87C76.958 62.697 80.9091 58.0753 83.1172 52.5772C85.3253 47.0791 85.6683 41.0083 84.0936 35.2965C82.5189 29.5846 79.1135 24.5472 74.4 20.9573C69.6864 17.3674 63.9252 15.4233 58.0002 15.4233C52.0753 15.4233 46.314 17.3674 41.6005 20.9573C36.887 24.5472 33.4816 29.5846 31.9069 35.2965C30.3322 41.0083 30.6752 47.0791 32.8833 52.5772C35.0914 58.0753 39.0425 62.697 44.1305 65.7331H32.5111C32.0827 64.5252 31.2671 63.4927 30.1911 62.7964L31.1577 60.5189C31.2781 60.2373 31.3298 59.9311 31.3086 59.6255C31.2874 59.32 31.194 59.0238 31.0359 58.7615C29.4147 56.0742 28.207 53.1583 27.4534 50.1117C27.3798 49.8135 27.2362 49.5371 27.0345 49.3055C26.8327 49.0738 26.5787 48.8936 26.2934 48.7797L19.7645 46.1735C19.6892 46.145 19.6227 46.097 19.5718 46.0346C19.5209 45.9721 19.4873 45.8973 19.4745 45.8178C19.371 44.726 19.3239 43.6296 19.3334 42.533C19.3253 41.4286 19.3744 40.3245 19.4803 39.2251C19.4958 39.1512 19.5296 39.0824 19.5785 39.025C19.6275 38.9675 19.6902 38.9233 19.7607 38.8964L26.2973 36.2864C26.5826 36.1725 26.8366 35.9922 27.0383 35.7606C27.2401 35.5289 27.3837 35.2526 27.4573 34.9543C28.2127 31.9074 29.4224 28.9915 31.0456 26.3046C31.2036 26.0422 31.2971 25.7461 31.3183 25.4405C31.3395 25.135 31.2877 24.8288 31.1674 24.5472L28.4008 18.0705C28.3658 17.9996 28.3514 17.9204 28.3592 17.8417C28.3671 17.7631 28.3969 17.6883 28.4453 17.6258C29.0485 16.8911 29.758 16.112 30.6435 15.2052ZM58.0002 65.7331C53.4117 65.7331 48.9262 64.3725 45.111 61.8232C41.2957 59.2739 38.3221 55.6506 36.5661 51.4113C34.8102 47.1721 34.3507 42.5073 35.2459 38.0069C36.1411 33.5065 38.3507 29.3727 41.5953 26.1281C44.8399 22.8835 48.9738 20.6739 53.4741 19.7787C57.9745 18.8835 62.6393 19.343 66.8785 21.0989C71.1178 22.8549 74.7412 25.8285 77.2904 29.6437C79.8397 33.459 81.2003 37.9445 81.2003 42.533C81.1937 48.684 78.7473 54.5812 74.3978 58.9306C70.0484 63.2801 64.1512 65.7265 58.0002 65.7331ZM13.5334 67.6665C13.5334 67.1537 13.7371 66.662 14.0997 66.2994C14.4622 65.9368 14.954 65.7331 15.4667 65.7331H27.0668C27.5795 65.7331 28.0713 65.9368 28.4339 66.2994C28.7964 66.662 29.0001 67.1537 29.0001 67.6665V75.3998C29.0001 75.9126 28.7964 76.4043 28.4339 76.7669C28.0713 77.1295 27.5795 77.3332 27.0668 77.3332H15.4667C14.954 77.3332 14.4622 77.1295 14.0997 76.7669C13.7371 76.4043 13.5334 75.9126 13.5334 75.3998V67.6665ZM7.73337 19.3329H24.7719C24.8028 19.418 24.8067 19.505 24.8434 19.5901L27.2272 25.1716C25.8202 27.658 24.7223 30.3069 23.958 33.0597L18.3184 35.3081C17.59 35.6 16.9549 36.0849 16.4814 36.7106C16.0079 37.3364 15.7139 38.0794 15.6311 38.8597C15.5139 40.0805 15.459 41.3066 15.4667 42.533C15.4588 43.7517 15.513 44.97 15.6291 46.1832C15.7096 46.9689 16.0034 47.7177 16.4788 48.3484C16.9542 48.9792 17.593 49.468 18.3261 49.7618L23.958 52.0064C24.7226 54.7578 25.8205 57.4055 27.2272 59.8906L26.3862 61.8664H15.4667C14.2714 61.8714 13.1068 62.2455 12.1323 62.9377C11.1578 63.6298 10.4209 64.6062 10.0224 65.7331H5.80002V21.2663C5.80002 20.7535 6.00372 20.2618 6.36629 19.8992C6.72886 19.5366 7.22061 19.3329 7.73337 19.3329ZM112.134 108.267C112.134 109.292 111.726 110.276 111.001 111.001C110.276 111.726 109.293 112.133 108.267 112.133H7.73337C6.70786 112.133 5.72435 111.726 4.99921 111.001C4.27406 110.276 3.86668 109.292 3.86668 108.267V69.5998H9.66671V75.3998C9.66671 76.9381 10.2778 78.4134 11.3655 79.5011C12.4532 80.5888 13.9285 81.1999 15.4667 81.1999H27.0668C28.605 81.1999 30.0803 80.5888 31.168 79.5011C32.2557 78.4134 32.8668 76.9381 32.8668 75.3998V69.5998H83.1337V75.3998C83.1337 76.9381 83.7448 78.4134 84.8325 79.5011C85.9202 80.5888 87.3954 81.1999 88.9337 81.1999H100.534C102.072 81.1999 103.547 80.5888 104.635 79.5011C105.723 78.4134 106.334 76.9381 106.334 75.3998V69.5998H112.134V108.267Z" fill="#4B4B4B"/>
<path d="M58.0003 27.0663C54.9412 27.0663 51.9509 27.9734 49.4074 29.6729C46.8639 31.3724 44.8815 33.788 43.7109 36.6142C42.5402 39.4403 42.2339 42.5502 42.8307 45.5504C43.4275 48.5507 44.9006 51.3066 47.0636 53.4697C49.2267 55.6327 51.9826 57.1058 54.9828 57.7026C57.9831 58.2994 61.0929 57.9931 63.9191 56.8224C66.7453 55.6518 69.1609 53.6694 70.8604 51.1259C72.5599 48.5824 73.467 45.592 73.467 42.533C73.4624 38.4324 71.8314 34.5011 68.9318 31.6015C66.0322 28.7019 62.1009 27.0709 58.0003 27.0663ZM58.0003 54.1331C55.706 54.1331 53.4632 53.4527 51.5556 52.1781C49.648 50.9035 48.1612 49.0918 47.2832 46.9722C46.4052 44.8525 46.1755 42.5201 46.6231 40.27C47.0707 38.0198 48.1755 35.9528 49.7978 34.3305C51.4201 32.7082 53.487 31.6034 55.7372 31.1559C57.9874 30.7083 60.3198 30.938 62.4394 31.816C64.559 32.6939 66.3707 34.1808 67.6453 36.0884C68.92 37.996 69.6003 40.2387 69.6003 42.533C69.5972 45.6086 68.3741 48.5573 66.1993 50.7321C64.0246 52.9069 61.0758 54.13 58.0003 54.1331ZM19.3334 73.4665H23.2001C23.7129 73.4665 24.2046 73.2628 24.5672 72.9002C24.9298 72.5377 25.1335 72.0459 25.1335 71.5331C25.1335 71.0204 24.9298 70.5286 24.5672 70.1661C24.2046 69.8035 23.7129 69.5998 23.2001 69.5998H19.3334C18.8207 69.5998 18.3289 69.8035 17.9663 70.1661C17.6038 70.5286 17.4001 71.0204 17.4001 71.5331C17.4001 72.0459 17.6038 72.5377 17.9663 72.9002C18.3289 73.2628 18.8207 73.4665 19.3334 73.4665ZM92.8004 73.4665H96.6671C97.1798 73.4665 97.6716 73.2628 98.0342 72.9002C98.3967 72.5377 98.6004 72.0459 98.6004 71.5331C98.6004 71.0204 98.3967 70.5286 98.0342 70.1661C97.6716 69.8035 97.1798 69.5998 96.6671 69.5998H92.8004C92.2876 69.5998 91.7959 69.8035 91.4333 70.1661C91.0707 70.5286 90.8671 71.0204 90.8671 71.5331C90.8671 72.0459 91.0707 72.5377 91.4333 72.9002C91.7959 73.2628 92.2876 73.4665 92.8004 73.4665ZM44.1053 82.0099C43.8072 81.5934 43.3559 81.3122 42.8506 81.2281C42.3453 81.144 41.8272 81.2638 41.4103 81.5614L27.8769 91.2281C27.627 91.407 27.4234 91.643 27.283 91.9163C27.1425 92.1897 27.0692 92.4926 27.0692 92.7999C27.0692 93.1072 27.1425 93.4101 27.283 93.6835C27.4234 93.9568 27.627 94.1928 27.8769 94.3717L41.4103 104.038C41.8278 104.313 42.3356 104.416 42.8271 104.324C43.3186 104.233 43.7555 103.954 44.0462 103.548C44.3368 103.141 44.4587 102.637 44.3861 102.143C44.3135 101.648 44.0521 101.201 43.6568 100.895L32.3274 92.7999L43.6568 84.705C44.0733 84.4068 44.3546 83.9556 44.4387 83.4503C44.5227 82.9449 44.4029 82.4269 44.1053 82.0099ZM88.1236 91.2281L74.5903 81.5614C74.1727 81.2865 73.6649 81.1841 73.1734 81.2756C72.6819 81.3671 72.245 81.6455 71.9543 82.0522C71.6637 82.4589 71.5418 82.9624 71.6144 83.4571C71.687 83.9517 71.9484 84.3989 72.3437 84.705L83.6731 92.7999L72.3437 100.895C72.1264 101.038 71.9402 101.223 71.7963 101.44C71.6524 101.657 71.5536 101.9 71.506 102.156C71.4584 102.412 71.4629 102.674 71.5192 102.928C71.5755 103.182 71.6825 103.422 71.8337 103.634C71.985 103.845 72.1774 104.024 72.3994 104.16C72.6214 104.295 72.8685 104.385 73.1259 104.423C73.3833 104.46 73.6456 104.446 73.8972 104.38C74.1489 104.314 74.3846 104.198 74.5903 104.038L88.1236 94.3717C88.3735 94.1928 88.5771 93.9568 88.7176 93.6835C88.858 93.4101 88.9313 93.1072 88.9313 92.7999C88.9313 92.4926 88.858 92.1897 88.7176 91.9163C88.5771 91.643 88.3735 91.407 88.1236 91.2281ZM64.1251 80.1268L48.6583 103.327C48.3738 103.754 48.2703 104.276 48.3708 104.779C48.4712 105.282 48.7673 105.724 49.1939 106.008C49.6205 106.293 50.1427 106.397 50.6456 106.296C51.1485 106.196 51.5909 105.9 51.8754 105.473L67.3422 82.2729C67.6267 81.8462 67.7302 81.3241 67.6298 80.8212C67.5293 80.3183 67.2332 79.8759 66.8066 79.5913C66.38 79.3067 65.8578 79.2033 65.3549 79.3037C64.8521 79.4041 64.4097 79.7002 64.1251 80.1268Z" fill="#4B4B4B"/>
</svg>
