<svg width="19" height="19" viewBox="0 0 19 19" fill="none" xmlns="http://www.w3.org/2000/svg">
<path d="M18.8745 18.4884L18.8791 18.4877V11.7515C18.8791 8.45604 18.1696 5.91752 14.3171 5.91752C12.465 5.91752 11.2222 6.93385 10.7148 7.89737H10.6612V6.22518H7.0084V18.4877H10.812V12.4157C10.812 10.817 11.115 9.27109 13.0949 9.27109C15.0456 9.27109 15.0747 11.0956 15.0747 12.5183V18.4884H18.8745ZM0.81478 6.22594H4.62294V18.4884H0.81478V6.22594ZM2.71733 0.121094C1.49973 0.121094 0.511719 1.1091 0.511719 2.32671C0.511719 3.54431 1.49973 4.55298 2.71733 4.55298C3.93493 4.55298 4.92294 3.54431 4.92294 2.32671C4.92254 1.74187 4.69003 1.1811 4.27649 0.76755C3.86294 0.354006 3.30217 0.121499 2.71733 0.121094Z" fill="#0077B5"/>
</svg>
