<svg width="264" height="205" viewBox="0 0 264 205" fill="none" xmlns="http://www.w3.org/2000/svg">
<path d="M263.5 142.292C263.5 159.187 248.97 174.634 225.125 185.887C201.318 197.122 168.394 204.084 132 204.084C95.6061 204.084 62.6821 197.122 38.8753 185.887C15.0297 174.634 0.5 159.187 0.5 142.292C0.5 125.397 15.0297 109.95 38.8753 98.6971C62.6821 87.4624 95.6061 80.5 132 80.5C168.394 80.5 201.318 87.4624 225.125 98.6971C248.97 109.95 263.5 125.397 263.5 142.292Z" fill="#F6F6D8" stroke="#D0D19A"/>
<path d="M105.564 16.8361L106.133 18.8502L108.416 18.7277C108.631 19.1703 108.879 19.5901 109.16 19.9819L107.967 21.9286L109.468 23.3882L111.384 22.1411C111.787 22.4131 112.212 22.651 112.656 22.8521L112.595 25.1382L114.624 25.6525L115.658 23.6165C116.139 23.6497 116.626 23.6427 117.116 23.5938L118.207 25.6026L120.221 25.0333L120.098 22.7507C120.541 22.5356 120.961 22.2863 121.352 22.0065L123.299 23.1993L124.759 21.6986L123.511 19.7825C123.783 19.3793 124.021 18.9543 124.222 18.5109L126.508 18.5712L127.022 16.5422L124.986 15.5085C125.02 15.0275 125.012 14.5404 124.963 14.0506L126.972 12.96L126.403 10.9459L124.12 11.0684C123.905 10.6259 123.657 10.2061 123.376 9.81427L124.569 7.86751L123.068 6.40788L121.152 7.65587C120.749 7.38388 120.324 7.14601 119.88 6.94486L119.941 4.65877L117.912 4.14453L116.878 6.1805C116.397 6.14639 115.91 6.15426 115.42 6.20323L114.33 4.19438L112.316 4.76372L112.438 7.04631C111.995 7.26145 111.576 7.50982 111.184 7.79055L109.237 6.59766L107.778 8.0984L109.026 10.0145C108.754 10.4177 108.516 10.8428 108.314 11.2862L106.028 11.2258L105.514 13.2548L107.55 14.2885C107.516 14.7695 107.524 15.2566 107.573 15.7464L105.564 16.8361ZM114.804 9.71195C117.668 8.90211 120.646 10.5673 121.455 13.4314C122.265 16.2956 120.599 19.2735 117.735 20.0824C114.871 20.8923 111.893 19.2271 111.084 16.3629C110.274 13.4997 111.94 10.5218 114.804 9.71195Z" fill="#F0F1BF"/>
<path d="M114.625 25.8472C114.609 25.8472 114.594 25.8455 114.577 25.8411L112.548 25.3269C112.46 25.3041 112.399 25.2237 112.401 25.1327L112.458 22.9743C112.087 22.7994 111.727 22.5974 111.384 22.3735L109.575 23.5515C109.498 23.6014 109.398 23.5917 109.332 23.5279L107.832 22.0683C107.766 22.0044 107.754 21.9047 107.801 21.8269L108.927 19.9895C108.697 19.6554 108.486 19.3003 108.299 18.9295L106.144 19.0449C106.055 19.0493 105.971 18.9907 105.946 18.9033L105.377 16.8892C105.352 16.8017 105.392 16.7081 105.471 16.6653L107.368 15.6359C107.333 15.2223 107.327 14.8086 107.349 14.4037L105.428 13.4277C105.346 13.3866 105.304 13.2947 105.327 13.2064L105.841 11.1774C105.864 11.0891 105.95 11.0288 106.035 11.0305L108.194 11.0874C108.369 10.7165 108.571 10.3562 108.795 10.0134L107.615 8.20307C107.565 8.12698 107.575 8.02641 107.638 7.96082L109.098 6.46008C109.162 6.39449 109.262 6.38225 109.339 6.42947L111.177 7.5559C111.51 7.32502 111.866 7.11425 112.237 6.92709L112.121 4.77219C112.116 4.68124 112.176 4.59903 112.263 4.57454L114.277 4.00521C114.365 3.98072 114.458 4.02007 114.501 4.09966L115.53 5.99657C115.944 5.96159 116.358 5.95546 116.763 5.97733L117.739 4.05593C117.78 3.9746 117.872 3.93262 117.96 3.95536L119.989 4.46959C120.077 4.49233 120.138 4.57279 120.136 4.66375L120.081 6.8204C120.451 6.99531 120.812 7.19733 121.155 7.42122L122.964 6.24319C123.041 6.19334 123.141 6.20296 123.206 6.26681L124.707 7.72644C124.773 7.79028 124.785 7.88998 124.738 7.96782L123.611 9.80526C123.842 10.1385 124.053 10.4944 124.24 10.8652L126.395 10.7498C126.484 10.7445 126.568 10.804 126.593 10.8915L127.162 12.9056C127.186 12.993 127.147 13.0866 127.068 13.1294L125.171 14.1588C125.206 14.5733 125.212 14.9861 125.19 15.391L127.111 16.367C127.193 16.4081 127.235 16.5 127.212 16.5883L126.698 18.6173C126.675 18.7056 126.589 18.766 126.503 18.7642L124.345 18.7074C124.17 19.0782 123.968 19.4385 123.744 19.7813L124.922 21.5908C124.972 21.6668 124.962 21.7674 124.899 21.833L123.439 23.3338C123.375 23.3993 123.275 23.4116 123.198 23.3644L121.36 22.2379C121.026 22.4688 120.67 22.6805 120.3 22.8667L120.416 25.0216C120.421 25.1126 120.361 25.1948 120.274 25.2193L118.26 25.7886C118.172 25.8131 118.079 25.7738 118.036 25.6942L117.007 23.7973C116.593 23.8322 116.179 23.8384 115.774 23.8165L114.798 25.7379C114.765 25.807 114.697 25.8472 114.625 25.8472ZM112.795 24.9875L114.522 25.4248L115.486 23.5279C115.522 23.4579 115.596 23.416 115.673 23.4221C116.14 23.4544 116.619 23.4474 117.098 23.4002C117.175 23.3923 117.252 23.4326 117.289 23.5008L118.305 25.3732L120.019 24.8887L119.905 22.7609C119.901 22.6831 119.943 22.6096 120.014 22.5755C120.447 22.3647 120.86 22.1207 121.24 21.8479C121.304 21.8024 121.389 21.7998 121.455 21.84L123.269 22.9516L124.512 21.6747L123.349 19.8889C123.306 19.8233 123.307 19.7385 123.351 19.6737C123.616 19.2802 123.85 18.8622 124.046 18.431C124.078 18.3602 124.152 18.3147 124.229 18.3173L126.359 18.3733L126.796 16.646L124.899 15.6823C124.83 15.6464 124.788 15.5729 124.794 15.4951C124.826 15.029 124.819 14.5497 124.772 14.0696C124.764 13.9918 124.804 13.9165 124.872 13.8789L126.745 12.8627L126.26 11.1477L124.133 11.2623C124.054 11.2658 123.981 11.2238 123.947 11.1529C123.736 10.72 123.491 10.3073 123.219 9.92682C123.174 9.86298 123.171 9.77814 123.212 9.71168L124.323 7.89785L123.046 6.65511L121.26 7.81827C121.195 7.86112 121.11 7.86025 121.045 7.81652C120.652 7.55153 120.234 7.31802 119.802 7.12125C119.731 7.08889 119.685 7.01717 119.688 6.93846L119.744 4.80805L118.017 4.37077L117.053 6.26768C117.017 6.33764 116.944 6.37875 116.866 6.3735C116.4 6.34114 115.92 6.34814 115.44 6.39536C115.362 6.40324 115.287 6.36301 115.25 6.29479L114.233 4.42237L112.518 4.90687L112.633 7.03466C112.637 7.1125 112.594 7.18596 112.524 7.22007C112.09 7.43084 111.678 7.67571 111.298 7.9477C111.234 7.99318 111.149 7.99668 111.082 7.95557L109.269 6.84401L108.026 8.12086L109.189 9.9067C109.232 9.9723 109.231 10.0571 109.187 10.1218C108.922 10.5154 108.689 10.9334 108.492 11.3646C108.46 11.4354 108.388 11.48 108.309 11.4783L106.179 11.4223L105.741 13.1496L107.638 14.1133C107.708 14.1492 107.75 14.2226 107.744 14.3005C107.712 14.7675 107.719 15.2467 107.766 15.726C107.774 15.8038 107.734 15.879 107.665 15.9166L105.793 16.9329L106.278 18.6479L108.405 18.5333C108.484 18.5289 108.557 18.5718 108.591 18.6426C108.802 19.0755 109.046 19.4883 109.318 19.8688C109.364 19.9326 109.367 20.0174 109.326 20.0839L108.215 21.8977L109.492 23.1405L111.277 21.9773C111.343 21.9345 111.428 21.9353 111.493 21.9791C111.885 22.2441 112.304 22.4776 112.736 22.6743C112.807 22.7067 112.852 22.7784 112.85 22.8571L112.795 24.9875ZM116.261 20.4836C115.319 20.4836 114.388 20.2431 113.543 19.7708C112.242 19.0432 111.301 17.852 110.896 16.4169C110.49 14.9817 110.668 13.4749 111.395 12.1727C112.123 10.8713 113.314 9.93032 114.749 9.5254C116.185 9.11961 117.691 9.29714 118.994 10.0248C120.295 10.7524 121.236 11.9435 121.642 13.3787C122.048 14.8138 121.87 16.3207 121.142 17.6229C120.415 18.9242 119.224 19.8653 117.788 20.2711C117.284 20.4136 116.771 20.4836 116.261 20.4836ZM114.856 9.89971C113.521 10.2775 112.413 11.1521 111.736 12.3625C111.059 13.5737 110.893 14.9756 111.271 16.3102C111.649 17.6448 112.524 18.7537 113.734 19.4306C114.945 20.1075 116.347 20.2728 117.682 19.895C119.017 19.5172 120.125 18.6426 120.802 17.4323C121.479 16.221 121.644 14.8191 121.267 13.4845C120.889 12.1491 120.014 11.041 118.804 10.3641C117.593 9.68719 116.192 9.52277 114.856 9.89971Z" fill="#A9AB23"/>
<path d="M72.2641 38.0243L73.2384 41.4709L77.145 41.261C77.5132 42.0184 77.9391 42.7364 78.4184 43.4072L76.3763 46.7383L78.944 49.2361L82.2236 47.1004C82.9136 47.5657 83.6412 47.9723 84.3995 48.3169L84.2971 52.2288L87.7691 53.1086L89.5383 49.6244C90.3613 49.6821 91.1948 49.669 92.0335 49.5859L93.8998 53.0238L97.3464 52.0495L97.1365 48.1429C97.8939 47.7747 98.6119 47.3488 99.2826 46.8695L102.615 48.9116L105.112 46.3439L102.977 43.0643C103.442 42.3743 103.849 41.6467 104.193 40.8893L108.105 40.9916L108.985 37.5197L105.501 35.7504C105.558 34.9275 105.545 34.0931 105.462 33.2553L108.9 31.389L107.926 27.9424L104.019 28.1523C103.651 27.3949 103.225 26.6769 102.746 26.0061L104.788 22.6749L102.22 20.1772L98.9407 22.3129C98.2507 21.8476 97.523 21.441 96.7657 21.0964L96.868 17.1845L93.396 16.3047L91.6268 19.7889C90.8038 19.7312 89.9695 19.7443 89.1317 19.8274L87.2654 16.3895L83.8188 17.3638L84.0287 21.2704C83.2713 21.6386 82.5533 22.0645 81.8825 22.5438L78.5513 20.5017L76.0536 23.0694L78.1892 26.3481C77.724 27.0381 77.3173 27.7657 76.9727 28.524L73.06 28.4208L72.1802 31.8928L75.6644 33.662C75.6067 34.4849 75.6198 35.3184 75.7029 36.1571L72.2641 38.0243ZM88.0743 25.8338C92.9745 24.4485 98.0705 27.2978 99.4558 32.1989C100.841 37.099 97.9918 42.195 93.0908 43.5803C88.1907 44.9656 83.0946 42.1163 81.7093 37.2153C80.324 32.3152 83.1742 27.2191 88.0743 25.8338Z" fill="#F0F1BF"/>
<path d="M87.7692 53.3051C87.7535 53.3051 87.7378 53.3034 87.7211 53.299L84.2492 52.4192C84.1608 52.3964 84.0996 52.316 84.1022 52.225L84.2011 48.4417C83.5163 48.1234 82.8525 47.7517 82.2219 47.3354L79.0508 49.4011C78.9738 49.4509 78.8741 49.4413 78.8085 49.3775L76.2409 46.8797C76.1753 46.8159 76.163 46.7162 76.2102 46.6384L78.185 43.4165C77.7565 42.8052 77.3673 42.1493 77.0262 41.4636L73.2481 41.6665C73.158 41.6718 73.075 41.6123 73.0505 41.5248L72.0762 38.0782C72.0517 37.9908 72.0911 37.8972 72.1707 37.8543L75.4957 36.0493C75.4266 35.2866 75.4153 34.524 75.4607 33.7789L72.0911 32.0674C72.0098 32.0263 71.9678 31.9345 71.9905 31.8461L72.8703 28.3742C72.8922 28.2858 72.97 28.2237 73.0645 28.2272L76.8478 28.3261C77.1661 27.6413 77.5378 26.9766 77.9541 26.3469L75.8884 23.1758C75.8386 23.0997 75.8482 22.9991 75.912 22.9335L78.4097 20.3659C78.4736 20.3003 78.5733 20.288 78.6511 20.3352L81.873 22.31C82.4834 21.8815 83.1393 21.4923 83.8259 21.1512L83.623 17.3731C83.6177 17.2822 83.6772 17.2 83.7647 17.1755L87.2113 16.2012C87.2987 16.1767 87.3923 16.2161 87.4352 16.2957L89.2402 19.6207C90.0029 19.5516 90.7655 19.5403 91.5106 19.5857L93.2221 16.2161C93.2632 16.1348 93.355 16.0928 93.4434 16.1155L96.9153 16.9953C97.0037 17.0181 97.0649 17.0985 97.0623 17.1895L96.9634 20.9728C97.6482 21.2911 98.3129 21.6628 98.9417 22.0791L102.113 20.0134C102.19 19.9636 102.289 19.9732 102.355 20.037L104.923 22.5347C104.988 22.5986 105.001 22.6983 104.953 22.7761L102.979 25.998C103.407 26.6084 103.796 27.2643 104.137 27.9509L107.915 27.748C108.006 27.7427 108.089 27.8022 108.113 27.8897L109.087 31.3363C109.112 31.4237 109.073 31.5173 108.993 31.5602L105.668 33.3652C105.737 34.1279 105.748 34.8905 105.703 35.6356L109.072 37.3471C109.153 37.3882 109.195 37.48 109.172 37.5684L108.292 41.0403C108.27 41.1287 108.187 41.1908 108.098 41.1873L104.315 41.0884C103.997 41.7723 103.625 42.437 103.209 43.0676L105.274 46.2387C105.324 46.3148 105.315 46.4154 105.251 46.4809L102.753 49.0486C102.689 49.1142 102.589 49.1265 102.512 49.0793L99.2898 47.1045C98.6784 47.5339 98.0225 47.9222 97.3369 48.2633L97.5398 52.0414C97.545 52.1323 97.4855 52.2145 97.3981 52.239L93.9515 53.2133C93.864 53.2378 93.7704 53.1984 93.7276 53.1188L91.9225 49.7938C91.1599 49.8629 90.3982 49.8742 89.6522 49.8287L87.9407 53.1984C87.9092 53.2649 87.841 53.3051 87.7692 53.3051ZM84.4958 52.0798L87.666 52.8827L89.3653 49.5375C89.4012 49.4676 89.4746 49.4264 89.5525 49.4317C90.3588 49.4885 91.1879 49.4754 92.0152 49.3932C92.0922 49.3853 92.1683 49.4256 92.2059 49.4938L93.9978 52.7952L97.1453 51.9058L96.9442 48.1548C96.9398 48.077 96.9827 48.0035 97.0535 47.9694C97.8013 47.6056 98.514 47.1832 99.1717 46.7127C99.2355 46.6672 99.3204 46.6646 99.3868 46.7048L102.586 48.6656L104.867 46.3218L102.816 43.1734C102.773 43.1078 102.774 43.023 102.818 42.9582C103.276 42.2787 103.68 41.5555 104.018 40.8112C104.051 40.7404 104.123 40.6949 104.201 40.6975L107.957 40.7963L108.76 37.6261L105.415 35.9268C105.345 35.8918 105.303 35.8175 105.309 35.7397C105.366 34.9333 105.353 34.1051 105.272 33.2769C105.264 33.1991 105.304 33.1239 105.372 33.0863L108.674 31.2943L107.784 28.1468L104.033 28.3479C103.955 28.3523 103.882 28.3094 103.848 28.2386C103.484 27.49 103.061 26.7772 102.591 26.1204C102.546 26.0566 102.543 25.9718 102.583 25.9053L104.544 22.7062L102.2 20.4253L99.0519 22.4762C98.9863 22.519 98.9015 22.5181 98.8367 22.4744C98.1572 22.017 97.4348 21.613 96.6897 21.2736C96.6189 21.2413 96.5734 21.1696 96.576 21.0909L96.6748 17.3346L93.5046 16.5318L91.8053 19.877C91.7703 19.9469 91.6969 19.9889 91.6182 19.9828C90.8118 19.9259 89.9836 19.9391 89.1554 20.0204C89.0784 20.0283 89.0024 19.988 88.9648 19.9198L87.1719 16.6184L84.0244 17.5078L84.2255 21.2588C84.2299 21.3366 84.1871 21.4101 84.1162 21.4442C83.3676 21.808 82.6548 22.2313 81.998 22.7009C81.9342 22.7464 81.8494 22.7499 81.7829 22.7088L78.5838 20.748L76.3029 23.0918L78.3538 26.2402C78.3966 26.3058 78.3958 26.3907 78.352 26.4554C77.8946 27.134 77.4906 27.8564 77.1513 28.6024C77.1189 28.6733 77.0489 28.7187 76.9685 28.7161L73.2123 28.6173L72.4094 31.7875L75.7546 33.4868C75.8246 33.5227 75.8665 33.5961 75.8604 33.674C75.8036 34.4794 75.8167 35.3085 75.898 36.1367C75.9059 36.2145 75.8657 36.2898 75.7975 36.3274L72.496 38.1193L73.3854 41.2668L77.1364 41.0657C77.2169 41.0613 77.2877 41.1051 77.3218 41.175C77.6856 41.9228 78.108 42.6355 78.5785 43.2932C78.624 43.357 78.6266 43.4419 78.5864 43.5083L76.6257 46.7075L78.9695 48.9883L82.1179 46.9375C82.1835 46.8946 82.2683 46.8955 82.333 46.9392C83.0125 47.3966 83.7349 47.8006 84.48 48.14C84.5509 48.1723 84.5964 48.244 84.5937 48.3228L84.4958 52.0798ZM90.5862 44.124C86.4784 44.124 82.6933 41.412 81.5223 37.2684C80.1099 32.272 83.0256 27.0588 88.0211 25.6464C90.441 24.9625 92.9833 25.2616 95.1785 26.4886C97.3736 27.7165 98.9592 29.7253 99.6439 32.1452C100.328 34.5651 100.029 37.1075 98.8018 39.3026C97.5739 41.4977 95.565 43.0833 93.1451 43.7681C92.2916 44.0095 91.4319 44.124 90.5862 44.124ZM90.5967 25.677C89.772 25.677 88.9429 25.7907 88.1278 26.0216C83.3387 27.3754 80.5437 32.3735 81.8975 37.1634C83.2513 41.9525 88.2494 44.7476 93.0393 43.3938C95.3595 42.7379 97.2853 41.2179 98.4615 39.1137C99.6378 37.0095 99.9247 34.573 99.2688 32.2528C98.6128 29.9326 97.0929 28.0068 94.9887 26.8306C93.6235 26.0662 92.1184 25.677 90.5967 25.677Z" fill="#181800"/>
<path d="M202.834 0.195312H162.541C160.969 0.195312 159.694 1.46954 159.694 3.04199V47.4974C159.694 49.0698 160.969 50.3441 162.541 50.3441H202.834C204.406 50.3441 205.68 49.0698 205.68 47.4974V3.04199C205.68 1.46954 204.406 0.195312 202.834 0.195312Z" fill="#F0F1BF"/>
<path d="M202.834 50.5388H162.541C160.864 50.5388 159.5 49.1745 159.5 47.4971V3.0417C159.5 1.36431 160.864 0 162.541 0H202.834C204.511 0 205.875 1.36431 205.875 3.0417V47.4971C205.875 49.1745 204.511 50.5388 202.834 50.5388ZM162.541 0.389177C161.079 0.389177 159.89 1.57857 159.89 3.04083V47.4971C159.89 48.9594 161.079 50.1488 162.541 50.1488H202.834C204.296 50.1488 205.485 48.9594 205.485 47.4971V3.0417C205.485 1.57945 204.296 0.390052 202.834 0.390052H162.541V0.389177Z" fill="#181800"/>
<path d="M203.454 5.05997H161.958C161.85 5.05997 161.763 4.97252 161.763 4.86495C161.763 4.75738 161.85 4.66992 161.958 4.66992H203.454C203.562 4.66992 203.65 4.75738 203.65 4.86495C203.65 4.97252 203.562 5.05997 203.454 5.05997Z" fill="#181800"/>
<path d="M162.687 3.1148C163.091 3.1148 163.418 2.78786 163.418 2.38455C163.418 1.98124 163.091 1.6543 162.687 1.6543C162.284 1.6543 161.957 1.98124 161.957 2.38455C161.957 2.78786 162.284 3.1148 162.687 3.1148Z" fill="#181800"/>
<path d="M165.607 3.1148C166.011 3.1148 166.337 2.78786 166.337 2.38455C166.337 1.98124 166.011 1.6543 165.607 1.6543C165.204 1.6543 164.877 1.98124 164.877 2.38455C164.877 2.78786 165.204 3.1148 165.607 3.1148Z" fill="#181800"/>
<path d="M168.527 3.1148C168.93 3.1148 169.257 2.78786 169.257 2.38455C169.257 1.98124 168.93 1.6543 168.527 1.6543C168.123 1.6543 167.796 1.98124 167.796 2.38455C167.796 2.78786 168.123 3.1148 168.527 3.1148Z" fill="#181800"/>
<path d="M203.455 2.5795H199.342C199.235 2.5795 199.147 2.49205 199.147 2.38448C199.147 2.27691 199.235 2.18945 199.342 2.18945H203.455C203.562 2.18945 203.65 2.27691 203.65 2.38448C203.65 2.49205 203.562 2.5795 203.455 2.5795Z" fill="#181800"/>
<path d="M197.493 2.5795H180.461C180.353 2.5795 180.266 2.49205 180.266 2.38448C180.266 2.27691 180.353 2.18945 180.461 2.18945H197.493C197.6 2.18945 197.688 2.27691 197.688 2.38448C197.688 2.49205 197.6 2.5795 197.493 2.5795Z" fill="#181800"/>
<path d="M175.984 2.5795H172.359C172.252 2.5795 172.164 2.49205 172.164 2.38448C172.164 2.27691 172.252 2.18945 172.359 2.18945H175.984C176.092 2.18945 176.179 2.27691 176.179 2.38448C176.179 2.49205 176.092 2.5795 175.984 2.5795Z" fill="#181800"/>
<path d="M175.71 23.9797C177.037 21.6586 179.506 20.0188 182.375 19.7224L182.574 8.375C174.334 8.40299 167.062 13.0451 163.75 19.9069L175.71 23.9797Z" fill="#BCBD7A"/>
<path d="M175.711 24.1753C175.69 24.1753 175.669 24.1718 175.648 24.1648L163.687 20.0911C163.635 20.0728 163.592 20.0334 163.57 19.9818C163.548 19.9302 163.55 19.8725 163.574 19.8218C166.975 12.7763 174.432 8.2068 182.573 8.17969C182.631 8.18231 182.675 8.20068 182.712 8.23741C182.749 8.27501 182.769 8.32486 182.768 8.37734L182.569 19.7247C182.567 19.8235 182.492 19.9049 182.394 19.9153C179.641 20.2004 177.205 21.7554 175.878 24.0756C175.844 24.1386 175.78 24.1753 175.711 24.1753ZM164.023 19.7938L175.623 23.7441C177 21.4397 179.431 19.8847 182.183 19.548L182.376 8.57149C174.538 8.67031 167.373 13.0518 164.023 19.7938Z" fill="#181800"/>
<path d="M175.148 11.6564C175.071 11.6564 174.998 11.6101 174.967 11.5348C174.927 11.4351 174.975 11.3214 175.074 11.2812C176.935 10.5282 178.894 10.0586 180.9 9.88543C181.007 9.87668 181.101 9.95539 181.111 10.063C181.12 10.1705 181.041 10.2641 180.933 10.2737C178.966 10.4443 177.044 10.9043 175.22 11.6433C175.197 11.652 175.171 11.6564 175.148 11.6564Z" fill="#181800"/>
<path d="M168.583 16.0334C168.534 16.0334 168.485 16.015 168.447 15.9774C168.37 15.9022 168.369 15.7789 168.444 15.7019C169.848 14.2685 171.477 13.0599 173.285 12.1101C173.381 12.0603 173.498 12.097 173.549 12.1923C173.599 12.2877 173.562 12.4057 173.467 12.4556C171.694 13.3861 170.098 14.5703 168.722 15.9748C168.684 16.0133 168.634 16.0334 168.583 16.0334Z" fill="#181800"/>
<path d="M191.607 29.0117C190.931 32.7399 187.535 35.6715 183.374 35.8009C182.133 35.8394 180.947 35.6251 179.872 35.2062L173.376 45.2627C176.395 46.6253 179.806 47.2934 183.374 47.0879C193.748 46.4923 201.904 38.6817 202.811 29.2802L191.607 29.0117Z" fill="#BCBD7A"/>
<path d="M182.129 47.3185C179.066 47.3185 176.037 46.6766 173.297 45.44C173.245 45.4163 173.206 45.3717 173.19 45.3175C173.174 45.2633 173.182 45.2047 173.214 45.1566L179.709 35.1001C179.759 35.0223 179.857 34.9908 179.943 35.024C181.029 35.4473 182.18 35.6423 183.368 35.6056C187.358 35.4814 190.742 32.6933 191.416 28.9765C191.433 28.882 191.52 28.8155 191.612 28.8164L202.816 29.0849C202.87 29.0858 202.921 29.1103 202.956 29.1505C202.992 29.1907 203.01 29.2449 203.004 29.2983C202.073 38.9613 193.639 46.6932 183.385 47.2818C182.966 47.3063 182.547 47.3185 182.129 47.3185ZM173.664 45.1767C176.668 46.492 180.017 47.0859 183.363 46.8935C193.353 46.3198 201.583 38.8467 202.596 29.4697L191.767 29.21C190.992 33.0248 187.493 35.8671 183.38 35.9948C182.194 36.0315 181.041 35.8461 179.95 35.4429L173.664 45.1767Z" fill="#181800"/>
<path d="M182.109 45.6907C179.92 45.6907 177.783 45.3444 175.759 44.6605C175.656 44.6264 175.602 44.5153 175.636 44.4139C175.67 44.3116 175.78 44.2573 175.883 44.2914C177.867 44.9613 179.962 45.3007 182.108 45.3007C182.494 45.3007 182.884 45.2893 183.268 45.2674C183.375 45.2604 183.468 45.3435 183.474 45.4502C183.48 45.5578 183.398 45.6496 183.29 45.6557C182.899 45.6794 182.501 45.6907 182.109 45.6907Z" fill="#181800"/>
<path d="M187.382 44.9881C187.297 44.9881 187.218 44.9312 187.194 44.8446C187.166 44.7406 187.228 44.6339 187.331 44.605C194.146 42.7466 199.409 37.3366 200.739 30.822C200.761 30.7162 200.864 30.6489 200.969 30.6698C201.074 30.6917 201.143 30.794 201.122 30.8999C199.762 37.557 194.389 43.0842 187.434 44.9811C187.416 44.9854 187.399 44.9881 187.382 44.9881Z" fill="#181800"/>
<path d="M171.344 44.2031L177.899 34.1168C175.938 32.6651 174.678 30.4061 174.678 27.8437C174.678 27.2245 174.752 26.621 174.892 26.0403L162.886 22.0156C162.242 23.9055 161.894 25.917 161.894 28.0011C161.893 34.9004 165.679 40.8404 171.344 44.2031Z" fill="#BCBD7A"/>
<path d="M171.344 44.3975C171.31 44.3975 171.275 44.3888 171.245 44.3704C165.267 40.8224 161.698 34.7031 161.698 28.0005C161.698 25.9392 162.036 23.9041 162.701 21.9521C162.735 21.8506 162.846 21.7964 162.948 21.8305L174.954 25.8552C175.05 25.8876 175.105 25.9873 175.082 26.0852C174.943 26.6607 174.873 27.2519 174.873 27.8431C174.873 30.2516 176.017 32.4808 178.015 33.9597C178.098 34.0209 178.118 34.1364 178.062 34.2221L171.507 44.3083C171.47 44.366 171.408 44.3975 171.344 44.3975ZM163.008 22.2617C162.397 24.1166 162.087 26.0467 162.087 28.0005C162.087 34.5037 165.521 40.448 171.282 43.9393L177.636 34.1626C175.63 32.6103 174.482 30.3181 174.482 27.844C174.482 27.2816 174.543 26.7193 174.662 26.1692L163.008 22.2617Z" fill="#181800"/>
<path d="M186.098 19.295C189.887 19.8591 192.8 22.795 193.147 26.4244L211.468 26.9552C211.468 26.9474 211.468 26.9395 211.468 26.9316C211.468 13.4915 200.759 1.98843 186.426 0.507812L186.098 19.295Z" fill="#BCBD7A"/>
<path d="M211.466 27.1502C211.465 27.1502 211.463 27.1502 211.462 27.1502L193.141 26.6194C193.043 26.6167 192.962 26.5407 192.953 26.4436C192.616 22.9016 189.785 20.041 186.07 19.4882C185.972 19.4743 185.902 19.3903 185.903 19.2923L186.231 0.506021C186.232 0.451799 186.256 0.4002 186.297 0.363469C186.338 0.327612 186.391 0.310121 186.446 0.315368C193.401 1.03338 199.8 4.15467 204.464 9.10203C209.106 14.0266 211.663 20.3593 211.663 26.9325C211.663 26.9849 211.642 27.047 211.604 27.0838C211.566 27.1196 211.517 27.1502 211.466 27.1502ZM193.322 26.2346L211.272 26.7549C211.18 13.411 200.626 2.27175 186.616 0.72466L186.294 19.1288C190.044 19.7594 192.9 22.6471 193.322 26.2346Z" fill="#181800"/>
<path d="M165.556 22.0898H141.577C140.395 22.0898 139.437 23.0475 139.437 24.2299V56.0917C139.437 57.2732 140.394 58.2317 141.577 58.2317H165.556C166.738 58.2317 167.696 57.2741 167.696 56.0917V24.2299C167.695 23.0484 166.738 22.0898 165.556 22.0898Z" fill="#F0F1A4" fill-opacity="0.960784"/>
<path d="M165.556 58.4267H141.576C140.289 58.4267 139.242 57.3798 139.242 56.0925V24.2307C139.242 22.9433 140.289 21.8965 141.576 21.8965H165.556C166.843 21.8965 167.89 22.9433 167.89 24.2307V56.0925C167.89 57.3798 166.843 58.4267 165.556 58.4267ZM141.576 22.2857C140.503 22.2857 139.63 23.1585 139.63 24.2307V56.0925C139.63 57.1647 140.503 58.0375 141.576 58.0375H165.555C166.627 58.0375 167.5 57.1647 167.5 56.0925V24.2307C167.5 23.1585 166.627 22.2857 165.555 22.2857H141.576Z" fill="#181800"/>
<path d="M148.952 32.416H142.796V52.6454H148.952V32.416Z" fill="#BCBD7A"/>
<path d="M148.952 52.8401H142.796C142.688 52.8401 142.601 52.7526 142.601 52.6451V32.4157C142.601 32.3082 142.688 32.2207 142.796 32.2207H148.952C149.059 32.2207 149.147 32.3082 149.147 32.4157V52.6451C149.147 52.7526 149.059 52.8401 148.952 52.8401ZM142.991 52.45H148.757V32.6108H142.991V52.45Z" fill="#181800"/>
<path d="M156.644 26.8379H150.488V52.6495H156.644V26.8379Z" fill="#BCBD7A"/>
<path d="M156.644 52.8443H150.488C150.38 52.8443 150.292 52.7568 150.292 52.6492V26.8376C150.292 26.73 150.38 26.6426 150.488 26.6426H156.644C156.751 26.6426 156.839 26.73 156.839 26.8376V52.6492C156.839 52.7568 156.751 52.8443 156.644 52.8443ZM150.683 52.4542H156.448V27.0326H150.683V52.4542Z" fill="#181800"/>
<path d="M164.336 40.5879H158.18V52.648H164.336V40.5879Z" fill="#BCBD7A"/>
<path d="M164.336 52.8427H158.18C158.072 52.8427 157.985 52.7553 157.985 52.6477V40.5876C157.985 40.48 158.072 40.3926 158.18 40.3926H164.336C164.443 40.3926 164.531 40.48 164.531 40.5876V52.6477C164.531 52.7553 164.443 52.8427 164.336 52.8427ZM158.375 52.4527H164.141V40.7826H158.375V52.4527Z" fill="#181800"/>
<path d="M117.719 130.881L118.257 136.006L121.722 136.411V130.336L117.719 130.881Z" fill="#FFF5E7"/>
<path d="M121.722 136.607C121.714 136.607 121.707 136.607 121.699 136.605L118.234 136.2C118.143 136.189 118.073 136.117 118.063 136.026L117.525 130.902C117.514 130.797 117.588 130.702 117.692 130.688L121.695 130.142C121.751 130.135 121.807 130.152 121.85 130.189C121.892 130.226 121.916 130.279 121.916 130.336V136.412C121.916 136.468 121.893 136.521 121.851 136.557C121.816 136.59 121.769 136.607 121.722 136.607ZM118.435 135.831L121.527 136.194V130.56L117.933 131.049L118.435 135.831Z" fill="#181800"/>
<path d="M122.268 145.333C120.824 145.536 118.456 145.716 115.676 145.331C114.765 145.205 114.162 144.321 114.381 143.428C114.993 140.94 116.048 136.221 117.858 134.034L118.307 135.22L118.928 134.103C119.013 133.95 119.166 133.847 119.34 133.825L120.7 133.653C120.984 133.617 121.248 133.805 121.307 134.085L121.523 135.114L121.997 133.763L123.579 143.599C123.692 144.44 123.107 145.215 122.268 145.333Z" fill="white"/>
<path d="M118.992 145.753C117.979 145.753 116.853 145.69 115.649 145.523C115.159 145.455 114.719 145.182 114.441 144.773C114.165 144.366 114.074 143.858 114.192 143.381L114.323 142.844C114.948 140.277 115.993 135.982 117.708 133.909C117.752 133.856 117.822 133.831 117.89 133.841C117.958 133.852 118.016 133.9 118.04 133.964L118.341 134.758L118.758 134.008C118.873 133.802 119.081 133.661 119.315 133.631L120.675 133.459C121.055 133.411 121.419 133.668 121.497 134.045L121.57 134.392L121.813 133.699C121.843 133.615 121.927 133.561 122.014 133.569C122.103 133.577 122.175 133.644 122.189 133.732L123.771 143.568C123.896 144.518 123.233 145.394 122.293 145.526C121.446 145.646 120.316 145.753 118.992 145.753ZM117.799 134.427C116.262 136.522 115.291 140.51 114.702 142.936L114.571 143.474C114.478 143.85 114.547 144.234 114.765 144.554C114.98 144.872 115.323 145.084 115.704 145.138C118.436 145.516 120.768 145.348 122.242 145.14C122.972 145.038 123.486 144.358 123.389 143.625L121.929 134.552L121.709 135.179C121.68 135.261 121.599 135.315 121.512 135.309C121.425 135.303 121.352 135.24 121.335 135.155L121.119 134.125C121.081 133.946 120.91 133.823 120.726 133.846L119.366 134.019C119.254 134.033 119.155 134.1 119.1 134.199L118.479 135.316C118.443 135.382 118.371 135.421 118.295 135.415C118.219 135.41 118.154 135.361 118.127 135.29L117.799 134.427Z" fill="#181800"/>
<path d="M118.255 144.103C117.331 144.103 116.331 144.021 115.335 143.795C115.23 143.771 115.165 143.666 115.188 143.561C115.213 143.456 115.317 143.391 115.422 143.414C118.817 144.188 122.373 143.193 122.409 143.183C122.512 143.154 122.62 143.214 122.649 143.317C122.679 143.42 122.619 143.529 122.515 143.558C122.409 143.588 120.57 144.103 118.255 144.103Z" fill="#181800"/>
<path d="M117.427 140.292C117.322 140.292 117.237 140.209 117.233 140.104C117.23 139.996 117.313 139.906 117.421 139.902L120.669 139.795C120.776 139.794 120.867 139.875 120.87 139.983C120.874 140.091 120.79 140.181 120.682 140.184L117.434 140.292C117.432 140.292 117.429 140.292 117.427 140.292Z" fill="#181800"/>
<path d="M133.948 128.152L134.468 135.631H138.637L138.831 128.152H133.948Z" fill="#FFF5E7"/>
<path d="M138.637 135.826H134.468C134.366 135.826 134.281 135.747 134.274 135.645L133.754 128.167C133.751 128.113 133.769 128.06 133.806 128.021C133.843 127.982 133.894 127.959 133.948 127.959H138.831C138.884 127.959 138.934 127.98 138.971 128.018C139.008 128.055 139.028 128.106 139.026 128.158L138.832 135.637C138.829 135.743 138.743 135.826 138.637 135.826ZM134.65 135.437H138.447L138.631 128.349H134.158L134.65 135.437Z" fill="#181800"/>
<path d="M133.379 139.855C133.369 140.563 133.852 141.184 134.541 141.344C136.939 141.902 142.338 143.143 143.878 143.373C145.877 143.67 148.334 143.058 149.39 141.888C150.447 140.719 147.026 137.928 145.402 136.911C142.99 135.403 140.672 132.42 139.7 132.286C138.729 132.152 136.915 134.971 136.915 134.971L133.95 133.725C133.948 133.726 133.432 136.267 133.379 139.855Z" fill="white"/>
<path d="M144.923 143.643C144.56 143.643 144.199 143.618 143.849 143.566C142.293 143.335 136.79 142.068 134.497 141.534C133.725 141.354 133.173 140.647 133.184 139.852C133.238 136.288 133.753 133.713 133.758 133.688C133.769 133.631 133.806 133.582 133.858 133.554C133.909 133.527 133.97 133.524 134.024 133.547L136.839 134.729C137.298 134.036 138.761 131.96 139.726 132.094C140.275 132.17 141.062 132.917 142.151 133.95C143.166 134.913 144.316 136.005 145.503 136.747C146.807 137.563 149.566 139.72 149.77 141.184C149.817 141.514 149.736 141.795 149.534 142.019C148.643 143.007 146.756 143.643 144.923 143.643ZM134.096 134C133.971 134.706 133.617 136.946 133.573 139.858C133.565 140.471 133.99 141.016 134.584 141.154C136.873 141.687 142.364 142.951 143.905 143.181C145.91 143.479 148.255 142.855 149.244 141.759C149.367 141.621 149.413 141.452 149.384 141.239C149.21 139.997 146.636 137.916 145.296 137.078C144.076 136.316 142.911 135.209 141.883 134.233C140.964 133.362 140.097 132.539 139.672 132.481C139.055 132.395 137.752 134.029 137.077 135.078C137.025 135.158 136.925 135.189 136.838 135.152L134.096 134Z" fill="#181800"/>
<path d="M144.881 142.269C140.548 142.269 134.722 139.916 134.394 139.781C134.295 139.74 134.248 139.626 134.288 139.527C134.328 139.428 134.443 139.38 134.541 139.421C134.648 139.464 145.207 143.731 148.316 140.924C148.396 140.852 148.519 140.858 148.591 140.938C148.663 141.018 148.657 141.141 148.577 141.213C147.726 141.982 146.394 142.269 144.881 142.269Z" fill="#181800"/>
<path d="M140.26 137.739C140.207 137.739 140.154 137.718 140.115 137.675C140.043 137.595 140.049 137.472 140.129 137.4L142.25 135.487C142.33 135.416 142.453 135.422 142.525 135.501C142.597 135.581 142.591 135.704 142.511 135.776L140.39 137.689C140.354 137.723 140.306 137.739 140.26 137.739Z" fill="#181800"/>
<path d="M116.537 79.4015C116.537 79.4015 115.245 102.779 114.569 110.85C113.893 118.92 116.15 131.892 116.15 131.892L122.586 131.554C122.586 131.554 123.027 115.781 123.505 111.401C123.505 111.401 126.224 105.462 127.03 100.167C127.835 94.8715 130.58 86.5064 130.58 86.5064C130.58 86.5064 132.808 128.257 133.023 131.537C133.023 131.537 138.07 131.762 139.879 130.623C139.879 130.623 143.085 115.4 142.624 107.117C142.164 98.8342 142.67 78.2559 142.67 78.2559L116.537 79.4015Z" fill="#181800"/>
<path d="M122.319 111.593H120.352C120.245 111.593 120.157 111.506 120.157 111.398C120.157 111.291 120.245 111.203 120.352 111.203H122.319C122.427 111.203 122.514 111.291 122.514 111.398C122.514 111.506 122.427 111.593 122.319 111.593Z" fill="white"/>
<path d="M136.333 123.737C136.332 123.737 136.331 123.737 136.33 123.737C136.222 123.736 136.136 123.646 136.138 123.539C136.209 119.68 140.445 112.762 140.625 112.47C140.681 112.378 140.801 112.35 140.892 112.406C140.984 112.462 141.012 112.582 140.956 112.673C140.912 112.744 136.596 119.794 136.527 123.546C136.526 123.653 136.439 123.737 136.333 123.737Z" fill="white"/>
<path d="M144.706 42.0133C145.175 41.9766 147.474 46.6861 154.671 46.4884C161.868 46.2908 167.642 38.2379 167.642 38.2379C167.642 38.2379 170.127 34.047 172.014 32.5314C173.9 31.0167 174.196 30.8164 174.196 30.8164C174.196 30.8164 174.787 31.6044 174.196 32.5314C173.604 33.4584 171.972 35.1936 171.972 35.1936C171.972 35.1936 173.77 36.1809 172.959 38.2379C172.026 40.6036 169.397 40.4138 169.397 40.4138C169.397 40.4138 164.061 64.0373 142.009 52.8115L144.706 42.0133Z" fill="#FFF5E7"/>
<path d="M152.945 56.0332C149.596 56.0332 145.91 55.0161 141.921 52.9854C141.84 52.9443 141.798 52.8525 141.82 52.765L144.517 41.966C144.537 41.8847 144.607 41.8252 144.691 41.8191C144.885 41.8042 145.037 41.9739 145.405 42.384C146.496 43.6005 149.048 46.449 154.667 46.2942C161.686 46.1018 167.427 38.2045 167.484 38.1249C167.577 37.9667 170 33.9 171.892 32.3809C173.762 30.8775 174.075 30.6641 174.087 30.6562C174.173 30.5985 174.29 30.6178 174.352 30.7008C174.379 30.7376 175.017 31.6086 174.361 32.638C173.868 33.4102 172.696 34.7002 172.27 35.1611C172.745 35.5153 173.832 36.5604 173.142 38.3104C172.306 40.4277 170.164 40.6052 169.551 40.6113C169.215 41.9231 166.604 51.1934 159.169 54.6829C157.249 55.5837 155.171 56.0332 152.945 56.0332ZM142.236 52.7082C148.706 55.9685 154.345 56.5151 159 54.3313C166.796 50.6731 169.184 40.474 169.207 40.3708C169.228 40.2772 169.315 40.2134 169.411 40.2195C169.512 40.2265 171.91 40.3673 172.778 38.1669C173.514 36.2997 171.944 35.4016 171.877 35.3648C171.824 35.336 171.788 35.2835 171.779 35.224C171.769 35.1646 171.789 35.1042 171.83 35.0605C171.845 35.043 173.456 33.3289 174.031 32.4272C174.392 31.8614 174.251 31.3559 174.135 31.1031C173.895 31.285 173.344 31.7127 172.135 32.6835C170.297 34.1597 167.834 38.2955 167.808 38.3366C167.741 38.4319 161.886 46.4848 154.676 46.6825C154.525 46.6868 154.374 46.6886 154.228 46.6886C148.741 46.6886 146.211 43.8664 145.114 42.6429C145.012 42.5301 144.91 42.4155 144.827 42.3307L142.236 52.7082Z" fill="#181800"/>
<path d="M109.039 52.8068C109.039 52.8068 111.198 38.8672 118.828 35.4381C126.458 32.0081 136.78 32.4856 139.627 34.198C142.474 35.9104 149.893 43.6546 149.893 43.6546L143.337 52.8068C143.337 52.8068 144.835 77.4447 143.651 83.9488C143.651 83.9488 136.358 84.7998 133.265 83.5815C130.171 82.3632 120 80.6561 115.139 82.8897L116.022 51.697L109.039 52.8068Z" fill="#A9AB23"/>
<path d="M138.503 84.4375C136.566 84.4375 134.517 84.2853 133.192 83.7641C130.147 82.5651 120.078 80.8361 115.219 83.0688C115.158 83.0968 115.087 83.0915 115.03 83.0539C114.974 83.0172 114.941 82.9534 114.943 82.886L115.82 51.9276L109.069 53.0007C109.008 53.0103 108.945 52.9902 108.901 52.9465C108.857 52.9028 108.836 52.8398 108.846 52.7786C108.935 52.2049 111.109 38.6956 118.748 35.2621C126.267 31.882 136.658 32.1863 139.727 34.0325C142.563 35.7387 149.729 43.204 150.032 43.5214C150.097 43.5888 150.105 43.6937 150.05 43.7698L143.534 52.866C143.621 54.3196 144.985 77.7025 143.841 83.9853C143.826 84.0693 143.757 84.134 143.673 84.1436C143.5 84.1637 141.103 84.4375 138.503 84.4375ZM121.747 81.6066C126.358 81.6066 131.338 82.6149 133.335 83.4011C136.111 84.4943 142.447 83.8821 143.484 83.7719C144.604 77.1533 143.157 53.0637 143.143 52.8197C143.14 52.7751 143.152 52.7305 143.178 52.6946L149.641 43.6736C148.7 42.6993 142.129 35.9311 139.527 34.3657C136.848 32.7539 126.543 32.1846 118.909 35.6163C112.036 38.7052 109.625 50.6377 109.276 52.5731L115.99 51.5061C116.048 51.4974 116.106 51.514 116.149 51.5525C116.193 51.5909 116.217 51.646 116.216 51.7046L115.341 82.5913C117.066 81.8777 119.357 81.6066 121.747 81.6066Z" fill="#181800"/>
<path d="M121.839 76.6602C121.747 76.6602 121.665 76.5938 121.648 76.4993C121.63 76.3935 121.7 76.292 121.806 76.2737C133.403 74.2246 136.788 66.1944 136.821 66.114C136.861 66.0143 136.975 65.9662 137.074 66.0064C137.174 66.0466 137.222 66.1603 137.182 66.26C137.149 66.3431 133.692 74.5683 121.874 76.6567C121.862 76.6594 121.851 76.6602 121.839 76.6602Z" fill="#181800"/>
<path d="M142.784 62.5549H127.937L132.587 45.9707H147.434L142.784 62.5549Z" fill="#181800"/>
<path d="M110.348 52.8631L117.862 49.5039C117.862 49.5039 116.803 62.2357 132.006 56.3569C132.006 56.3569 131.445 54.7206 131.525 52.8097C131.604 50.8988 132.747 52.7476 132.908 54.3008C133.068 55.8541 136.637 55.2235 138.782 54.6113C140.927 53.9991 143.742 54.3997 138.782 57.1362C133.821 59.8726 132.734 58.6518 132.734 58.6518C132.734 58.6518 126.4 67.5162 118.518 65.6325C108.823 63.3166 110.348 52.8631 110.348 52.8631Z" fill="#FFF5E7"/>
<path d="M120.717 66.0863C119.985 66.0863 119.237 66.0041 118.473 65.8214C113.374 64.6031 111.383 61.1302 110.61 58.4322C109.777 55.5226 110.139 52.9427 110.154 52.8342C110.164 52.7686 110.207 52.7118 110.268 52.6847L117.782 49.3255C117.845 49.2975 117.918 49.3045 117.975 49.3447C118.031 49.385 118.062 49.4514 118.056 49.5196C118.052 49.566 117.709 54.1889 120.738 56.4531C123.081 58.2049 126.791 58.1331 131.765 56.2397C131.622 55.7587 131.264 54.3813 131.33 52.801C131.34 52.557 131.371 51.8136 131.823 51.8005C131.827 51.8005 131.83 51.8005 131.834 51.8005C132.421 51.8005 132.997 53.2759 133.101 54.2807C133.123 54.4915 133.223 54.655 133.409 54.781C134.3 55.3835 136.831 54.9655 138.728 54.4242C139.723 54.1399 141.409 53.951 141.699 54.6542C141.946 55.255 141.023 56.1225 138.876 57.3076C134.811 59.549 133.266 59.1975 132.775 58.9229C131.959 59.9872 127.009 66.0863 120.717 66.0863ZM110.527 52.9951C110.469 53.5085 110.267 55.8287 110.988 58.3378C112.071 62.1106 114.621 64.5008 118.563 65.4427C119.296 65.6176 120.018 65.6972 120.722 65.6972C127.375 65.698 132.519 58.6168 132.576 58.5381C132.61 58.49 132.665 58.4602 132.724 58.4567C132.786 58.4532 132.84 58.4777 132.88 58.5214C132.887 58.5276 134 59.5499 138.688 56.9647C141.493 55.4168 141.363 54.8597 141.339 54.8011C141.219 54.5099 140.075 54.4434 138.835 54.7976C137.83 55.0844 134.45 55.9546 133.191 55.1019C132.908 54.9104 132.748 54.6472 132.714 54.3192C132.598 53.1902 132.026 52.2212 131.835 52.1888C131.839 52.1958 131.742 52.2999 131.72 52.8158C131.643 54.6655 132.185 56.2756 132.191 56.2922C132.225 56.391 132.175 56.4995 132.078 56.5371C126.883 58.5459 122.988 58.622 120.504 56.7636C117.746 54.7005 117.623 50.9408 117.653 49.81L110.527 52.9951Z" fill="#181800"/>
<path d="M130.405 29.0905C129.756 29.6852 128.487 30.4103 127.493 29.91C126.753 29.5374 126.341 28.5728 126.367 27.4674C126.025 27.4954 125.575 27.4709 125.255 27.1884C124.762 26.7529 124.855 25.9509 124.874 25.4235C124.963 22.9914 123.55 22.618 123.895 20.9677C124.167 19.6707 125.186 18.8976 125.377 18.7533C126.339 18.0239 126.99 18.2592 128.607 17.835C131.329 17.1223 131.416 15.9495 133.208 15.9434C133.313 15.9434 135.753 15.9696 136.581 17.6557C137.254 19.027 136.468 20.6931 135.654 21.5685C134.601 22.7019 133.844 22.1422 132.787 23.0928C130.932 24.7632 132.333 27.3257 130.405 29.0905Z" fill="#181800"/>
<path d="M135.836 24.7524L135.728 24.6596C135.19 24.1953 134.629 23.6565 134.486 22.9604C133.879 20 131.167 18.9252 131.042 21.6433C131.01 22.329 128.505 22.294 128.802 23.0137C129.577 24.8914 129.594 24.3859 128.5 25.0777C128.376 25.0829 128.254 25.11 128.137 25.1643C127.577 25.4258 127.378 26.1875 127.694 26.8653C127.885 27.2772 128.224 27.5597 128.584 27.6629V30.6294C128.584 31.7409 127.912 32.7423 126.882 33.1638L125.881 33.5731C125.881 33.5731 130.551 36.6209 135.291 33.2749L134.659 32.9915C133.545 32.4922 132.813 31.3998 132.775 30.1798L132.77 29.6C133.088 29.628 133.397 29.607 133.682 29.5239C135.008 29.1382 135.448 27.6104 135.223 25.7117L135.762 25.4214C136.015 25.285 136.053 24.9386 135.836 24.7524Z" fill="#FFF5E7"/>
<path d="M130.498 35.0267C127.801 35.0267 125.805 33.7551 125.774 33.735C125.714 33.6957 125.679 33.6257 125.686 33.5531C125.693 33.4814 125.74 33.4184 125.806 33.3913L126.808 32.982C127.768 32.5894 128.388 31.6658 128.388 30.6286V27.8012C128.015 27.6516 127.702 27.3473 127.516 26.9467C127.155 26.1728 127.396 25.2929 128.054 24.9869C128.173 24.9309 128.301 24.8976 128.438 24.8854C128.619 24.7726 128.768 24.6939 128.888 24.6292C129.026 24.5557 129.157 24.4857 129.16 24.4508C129.169 24.3624 129.06 24.1132 128.911 23.7677C128.831 23.5841 128.734 23.3611 128.621 23.0873C128.567 22.957 128.569 22.8258 128.627 22.7078C128.777 22.399 129.262 22.2635 129.821 22.1061C130.226 21.9924 130.838 21.821 130.846 21.6338C130.915 20.1366 131.698 19.9144 132.031 19.8882C132.989 19.8139 134.272 20.9508 134.676 22.9203C134.808 23.5648 135.354 24.0799 135.855 24.5111L135.962 24.6038C136.113 24.7332 136.19 24.9283 136.168 25.1259C136.146 25.3236 136.029 25.4967 135.854 25.5912L135.43 25.8186C135.648 27.9166 135.034 29.3308 133.736 29.7086C133.498 29.7777 133.238 29.8092 132.965 29.8039L132.969 30.1765C133.005 31.3099 133.699 32.3462 134.737 32.8124L135.37 33.0957C135.433 33.1246 135.477 33.1849 135.483 33.2549C135.49 33.3249 135.459 33.3922 135.402 33.4324C133.697 34.6376 131.99 35.0267 130.498 35.0267ZM126.326 33.6004C127.44 34.1846 131.135 35.7553 134.893 33.3082L134.579 33.1674C133.405 32.641 132.621 31.4699 132.581 30.1843L132.575 29.6001C132.574 29.545 132.597 29.4926 132.638 29.455C132.679 29.4174 132.733 29.399 132.788 29.4042C133.094 29.4313 133.377 29.4086 133.629 29.3351C134.753 29.0081 135.264 27.6954 135.031 25.7329C135.021 25.6533 135.062 25.5763 135.133 25.5387L135.672 25.2483C135.735 25.2142 135.775 25.1548 135.783 25.0839C135.791 25.0131 135.765 24.9458 135.711 24.8994L135.603 24.8067C135.054 24.3336 134.454 23.7634 134.297 22.999C133.948 21.2936 132.859 20.2144 132.065 20.2765C131.577 20.315 131.277 20.8161 131.238 21.6522C131.216 22.1209 130.591 22.2967 129.929 22.4821C129.559 22.5853 129.053 22.7279 128.979 22.8792C128.975 22.8879 128.968 22.9019 128.984 22.9395C129.095 23.2106 129.192 23.4319 129.27 23.6138C129.637 24.4569 129.713 24.6327 129.074 24.9746C128.949 25.0411 128.795 25.1242 128.606 25.2431C128.577 25.2615 128.544 25.272 128.51 25.2728C128.405 25.2772 128.308 25.2999 128.221 25.3411C127.758 25.5571 127.602 26.2034 127.871 26.7832C128.03 27.1251 128.318 27.384 128.638 27.4758C128.722 27.4995 128.78 27.5764 128.78 27.663V30.6286C128.78 31.825 128.064 32.8902 126.957 33.3432L126.326 33.6004Z" fill="#181800"/>
<path d="M132.77 29.791C132.761 29.791 132.75 29.7901 132.741 29.7884C130.83 29.4954 129.971 28.0366 129.935 27.9754C129.882 27.8827 129.913 27.7638 130.007 27.7095C130.1 27.6562 130.218 27.6877 130.273 27.7804C130.281 27.7935 131.079 29.1394 132.799 29.4036C132.906 29.4202 132.979 29.519 132.962 29.6257C132.947 29.7219 132.865 29.791 132.77 29.791Z" fill="#181800"/>
<path d="M111.339 126.238L108.381 156.524L106.271 156.436L107.319 124.598L111.339 126.238Z" fill="#CECECE"/>
<path d="M108.381 156.719C108.378 156.719 108.375 156.719 108.373 156.719L106.263 156.631C106.156 156.626 106.073 156.536 106.076 156.429L107.125 124.591C107.127 124.527 107.16 124.469 107.213 124.434C107.267 124.399 107.334 124.393 107.392 124.417L111.412 126.059C111.492 126.091 111.541 126.172 111.532 126.258L108.574 156.544C108.565 156.643 108.48 156.719 108.381 156.719ZM106.472 156.249L108.205 156.322L111.13 126.364L107.504 124.883L106.472 156.249Z" fill="#181800"/>
<path d="M71.665 125.145L74.5519 156.596L76.734 156.433L75.6854 123.445L71.665 125.145Z" fill="#CECECE"/>
<path d="M74.5517 156.792C74.452 156.792 74.3672 156.716 74.3576 156.615L71.4715 125.164C71.4637 125.08 71.5118 125 71.5896 124.968L75.6091 123.267C75.6685 123.242 75.7359 123.248 75.7901 123.283C75.8443 123.318 75.8776 123.377 75.8802 123.441L76.9288 156.429C76.9323 156.533 76.8527 156.621 76.7486 156.629L74.5666 156.793C74.5613 156.792 74.5561 156.792 74.5517 156.792ZM71.8721 125.27L74.7275 156.389L76.5326 156.253L75.4989 123.736L71.8721 125.27Z" fill="#181800"/>
<path d="M61.6182 117.748L62.4674 150.773L64.171 150.404L65.7338 116.178L61.6182 117.748Z" fill="#CECECE"/>
<path d="M62.4672 150.969C62.4243 150.969 62.3815 150.955 62.3465 150.927C62.301 150.891 62.2739 150.837 62.2721 150.779L61.4229 117.753C61.4203 117.671 61.471 117.596 61.548 117.566L65.6637 115.995C65.7249 115.972 65.794 115.981 65.8473 116.02C65.9007 116.058 65.9304 116.121 65.9278 116.187L64.365 150.413C64.3606 150.502 64.2976 150.576 64.2119 150.594L62.5083 150.963C62.4943 150.967 62.4803 150.969 62.4672 150.969ZM61.8165 117.881L62.6561 150.533L63.9836 150.245L65.5255 116.465L61.8165 117.881Z" fill="#181800"/>
<path d="M94.9116 117.008L95.7608 150.033L97.5318 150.043L99.0273 115.438L94.9116 117.008Z" fill="white"/>
<path d="M86.3577 91.2171V98.9018C86.3577 106.417 92.2846 112.51 99.5967 112.51C106.908 112.51 112.836 118.602 112.836 126.118C112.836 126.788 112.294 127.33 111.625 127.33H76.581C65.6202 127.33 56.7339 118.197 56.7339 106.93V90.534C56.7339 86.0528 60.268 82.4199 64.6276 82.4199H77.7984C82.5254 82.4199 86.3577 86.3589 86.3577 91.2171Z" fill="#333400"/>
<path d="M111.625 127.524H76.5809C65.53 127.524 56.5396 118.285 56.5396 106.929V90.5329C56.5396 85.952 60.1681 82.2246 64.6283 82.2246H77.7991C82.6258 82.2246 86.5534 86.2589 86.5534 91.2168V98.9015C86.5534 106.298 92.4051 112.315 99.5974 112.315C107.005 112.315 113.031 118.506 113.031 126.117C113.031 126.893 112.4 127.524 111.625 127.524ZM64.6274 82.6147C60.3823 82.6147 56.9287 86.1671 56.9287 90.5338V106.93C56.9287 118.071 65.7451 127.135 76.5809 127.135H111.625C112.185 127.135 112.641 126.678 112.641 126.117C112.641 118.721 106.789 112.704 99.5965 112.704C92.189 112.704 86.1625 106.512 86.1625 98.9015V91.2168C86.1625 86.4732 82.4106 82.6138 77.7982 82.6138H64.6274V82.6147Z" fill="#181800"/>
<path d="M53.3398 76.8775C52.8028 76.6554 52.3297 76.268 52.0323 75.7371C51.5915 74.9509 51.3563 73.6924 52.3463 71.8943C54.5825 67.8337 58.3177 69.7534 59.7468 69.2829C62.9485 68.229 62.1911 66.4974 63.4925 64.8157C64.4659 63.5572 67.8268 61.1828 72.9316 65.6054C72.9316 65.6054 75.2238 68.7337 77.8221 67.5434C81.0142 66.0811 87.4282 69.3896 85.4018 74.309C84.8176 75.7275 83.7647 76.8181 82.4817 77.4101C82.2491 77.5177 81.9946 77.6209 81.7182 77.7162C80.918 77.9917 80.2997 78.7053 80.0994 79.6254C79.447 82.6216 76.9764 88.405 67.8075 82.5849C67.1158 82.1458 66.2954 82.0907 65.58 82.4222C64.7011 82.8306 63.7479 84.4118 59.5098 83.7445C56.7873 83.316 55.9223 80.1475 55.2034 78.7053C54.6315 77.5579 53.8094 77.0717 53.3398 76.8775Z" fill="#181800"/>
<path d="M100.486 98.9901C96.8804 100.117 89.9732 96.9892 88.7952 91.7418C87.8612 87.5816 86.4015 85.4704 85.8366 84.7734C85.5663 84.3125 85.2112 83.8796 84.7416 83.4668C81.3833 80.5152 75.5667 81.471 73.0497 81.8847C70.1943 82.3535 67.8286 82.7426 66.2203 84.5539C65.7926 85.0349 65.49 85.5386 65.2819 86.0747V86.073C62.2087 91.8599 64.6994 97.8349 66.236 100.595C66.4896 111.662 62.8296 109.923 63.8205 114.837C65.2154 121.76 76.3642 119.172 80.4196 118.288C81.8425 117.978 89.2919 120.19 91.1127 114.443C92.1753 111.089 90.156 109.54 88.3728 103.833C97.5075 109.511 104.292 99.8288 104.292 99.8288L104.996 96.4347C104.995 96.4347 103.153 98.1558 100.486 98.9901Z" fill="#A9AB23"/>
<path d="M71.7264 119.699C69.5654 119.699 67.4804 119.359 65.9395 118.352C64.7099 117.549 63.9324 116.38 63.6289 114.875C63.1846 112.671 63.6481 111.765 64.2883 110.511C65.0859 108.951 66.1774 106.815 66.0418 100.648C64.3688 97.6251 62.053 91.7402 65.1078 85.9848C65.3317 85.4154 65.6474 84.9047 66.0742 84.4246C67.7288 82.5618 70.1802 82.1586 73.0181 81.6925C75.5395 81.2779 81.4427 80.308 84.8701 83.3209C85.3397 83.7328 85.7079 84.1718 85.9965 84.6625C86.5912 85.3988 88.05 87.5371 88.9849 91.6991C89.4921 93.959 91.1993 96.0728 93.6681 97.4974C96.0032 98.8451 98.6566 99.3576 100.428 98.804C103.018 97.9942 104.844 96.3089 104.862 96.2923C104.925 96.2346 105.017 96.2232 105.091 96.2652C105.164 96.3072 105.204 96.3911 105.186 96.4742L104.482 99.8683C104.477 99.8946 104.466 99.9191 104.451 99.9409C104.433 99.9654 102.698 102.415 99.8574 104.127C97.3028 105.667 93.3271 106.905 88.7146 104.265C89.2822 105.995 89.8708 107.341 90.3518 108.44C91.3523 110.729 92.0135 112.24 91.2972 114.501C89.8157 119.177 84.7398 118.753 82.0121 118.525C81.3255 118.468 80.7335 118.419 80.4597 118.478L80.2061 118.533C78.1885 118.975 74.8774 119.699 71.7264 119.699ZM65.4427 86.1851C62.4736 91.7997 64.7702 97.563 66.4056 100.501C66.4214 100.529 66.4292 100.559 66.4301 100.591C66.5744 106.894 65.4541 109.087 64.6355 110.688C64.0085 111.916 63.593 112.728 64.0111 114.799C64.2927 116.197 65.0133 117.283 66.152 118.027C69.8041 120.411 76.7735 118.886 80.123 118.154L80.3775 118.098C80.7081 118.026 81.2687 118.072 82.0453 118.137C84.8482 118.37 89.5394 118.762 90.9273 114.383C91.5989 112.262 90.9955 110.882 89.9959 108.596C89.4668 107.385 88.8082 105.88 88.1864 103.891C88.1619 103.813 88.189 103.729 88.2529 103.679C88.3176 103.629 88.4059 103.625 88.475 103.667C92.1928 105.978 95.9507 106.023 99.6466 103.799C102.246 102.236 103.899 100.038 104.109 99.7485L104.69 96.9491C103.987 97.5097 102.49 98.5679 100.544 99.1757C98.6732 99.7608 95.8982 99.2343 93.4731 97.835C90.9098 96.3561 89.1353 94.1505 88.6045 91.7848C87.6835 87.6814 86.2554 85.6009 85.6843 84.8968C85.6782 84.889 85.6729 84.8811 85.6677 84.8723C85.3992 84.4132 85.0538 84.0022 84.613 83.6139C81.3238 80.7235 75.5482 81.6723 73.0811 82.0773C70.2021 82.5504 67.9282 82.9238 66.3654 84.6834C65.9648 85.1338 65.6701 85.6122 65.4628 86.1457C65.4576 86.1597 65.4506 86.1728 65.4427 86.1851Z" fill="#181800"/>
<path d="M84.5465 98.0858C84.5465 98.0858 91.1241 95.6878 93.1775 91.3045L97.4112 87.3594C97.4112 87.3594 97.3518 89.2668 96.0942 90.0626C96.0942 90.0626 97.1734 92.2359 95.5808 93.7358C95.5808 93.7358 94.3862 94.6855 93.6743 94.7021C93.6743 94.7021 91.5893 101.551 85.9598 103.59C85.9607 103.591 84.3795 101.188 84.5465 98.0858Z" fill="#FFF5E7"/>
<path d="M85.9605 103.784C85.8967 103.784 85.8346 103.752 85.7978 103.696C85.7323 103.596 84.1834 101.204 84.3522 98.0739C84.3566 97.9961 84.4064 97.9278 84.4799 97.9016C84.5446 97.878 91.0058 95.48 93.0016 91.2209C93.0121 91.1981 93.0269 91.178 93.0453 91.1614L97.279 87.2163C97.3367 87.163 97.4207 87.149 97.4924 87.1813C97.5641 87.2137 97.6087 87.2863 97.607 87.365C97.6043 87.4437 97.5335 89.2488 96.3371 90.1321C96.554 90.6787 97.1391 92.5353 95.7153 93.8769C95.6558 93.925 94.5871 94.769 93.821 94.8835C93.4983 95.8324 91.2603 101.877 86.0279 103.772C86.0051 103.78 85.9832 103.784 85.9605 103.784ZM84.7353 98.2217C84.6382 100.759 85.734 102.822 86.0436 103.351C91.4064 101.301 93.4686 94.7112 93.4887 94.6448C93.5132 94.5643 93.5866 94.5092 93.6706 94.5066C94.2006 94.4935 95.1425 93.8349 95.4608 93.5822C96.9143 92.2118 95.9619 90.2309 95.9208 90.1478C95.8771 90.0586 95.9068 89.9502 95.9908 89.8968C96.7586 89.4106 97.0472 88.4555 97.1548 87.8643L93.3383 91.4212C91.388 95.5272 85.6728 97.8623 84.7353 98.2217Z" fill="#181800"/>
<path d="M78.6178 105.765C73.1369 105.765 69.9912 103.05 69.9492 103.012C69.8687 102.941 69.8617 102.818 69.9326 102.738C70.0043 102.657 70.1267 102.649 70.2072 102.721C70.2623 102.77 75.8612 107.584 85.1787 104.127C85.2793 104.09 85.3912 104.141 85.4288 104.242C85.4664 104.342 85.4148 104.454 85.3142 104.492C82.8104 105.422 80.5654 105.765 78.6178 105.765Z" fill="#181800"/>
<path d="M81.9812 98.3502C77.2062 98.3502 74.4259 95.6312 72.9033 93.2341C71.1123 90.4145 70.6356 87.4192 70.6313 87.3885C70.6146 87.2818 70.6881 87.183 70.7939 87.1664C70.9015 87.1498 70.9994 87.2233 71.0161 87.3291C71.0204 87.3579 71.4874 90.2842 73.2383 93.0347C75.5707 96.6991 78.957 98.3336 83.3027 97.8911C83.4085 97.8797 83.5056 97.9584 83.5161 98.0651C83.5266 98.1718 83.4487 98.268 83.342 98.2785C82.8724 98.3275 82.4185 98.3502 81.9812 98.3502Z" fill="#181800"/>
<path d="M85.6851 94.8944C85.6754 94.8944 85.6658 94.8935 85.6562 94.8926C85.5495 94.8769 85.476 94.7781 85.4918 94.6714C86.3506 88.7996 83.664 85.4781 83.6369 85.4448C83.5686 85.3617 83.58 85.2393 83.6622 85.1702C83.7453 85.1011 83.8677 85.1125 83.9359 85.1956C84.0514 85.3346 86.7625 88.6746 85.8766 94.7274C85.8635 94.8253 85.7795 94.8944 85.6851 94.8944Z" fill="#181800"/>
<path d="M84.4716 78.3973C84.2888 77.1747 84.5818 73.9292 84.5284 74.0079C84.0045 74.7758 82.2799 73.8671 80.7276 73.8059C79.1744 73.7447 79.6974 76.0771 79.6974 76.0771C79.6974 76.0771 79.2426 74.4941 78.2736 75.485C77.7112 76.0605 78.3313 76.8021 78.9085 77.2875C78.7502 77.4685 75.9525 80.4831 74.2393 82.2759L78.0392 85.1602L79.9414 83.3831L79.5539 82.7648C79.2776 82.324 79.2522 81.7704 79.4883 81.3069L80.4189 79.7301C80.6323 79.9881 80.9025 80.2837 81.1509 80.4577C81.6467 80.8032 82.2624 80.7498 82.6997 80.3327C83.2988 79.7607 83.7186 79.1179 83.9083 78.4935L84.4716 78.3973Z" fill="#FFF5E7"/>
<path d="M78.0391 85.3542C77.998 85.3542 77.9561 85.3411 77.9211 85.3148L74.1211 82.4305C74.0765 82.3973 74.0494 82.3457 74.045 82.2906C74.0407 82.2355 74.0599 82.1804 74.0984 82.1402C75.6638 80.5021 78.0383 77.9476 78.6312 77.3022C78.263 76.9655 77.8817 76.5072 77.859 76.0384C77.8467 75.7804 77.9394 75.5478 78.1345 75.3484C78.4441 75.0318 78.751 74.9094 79.0493 74.9846C79.1927 75.0204 79.3151 75.1 79.4192 75.1988C79.4262 74.7843 79.5049 74.3182 79.7716 73.9981C79.999 73.7243 80.3226 73.5949 80.7354 73.6107C81.3213 73.6334 81.9353 73.7751 82.4775 73.8993C83.3538 74.1004 84.1103 74.2744 84.3683 73.8975C84.4173 73.8249 84.5108 73.7934 84.5939 73.8214C84.747 73.873 84.747 73.873 84.6989 74.7292C84.6438 75.7113 84.5415 77.54 84.6656 78.3682C84.6814 78.4732 84.6105 78.5711 84.5056 78.5886L84.0587 78.6647C83.8427 79.29 83.422 79.9127 82.8352 80.4724C82.3297 80.9552 81.6082 81.0129 81.0406 80.6158C80.8675 80.4952 80.6689 80.3089 80.4494 80.0623L79.6579 81.4047C79.4603 81.7947 79.4813 82.2792 79.72 82.6597L80.1075 83.278C80.1573 83.3567 80.1433 83.4599 80.0751 83.5237L78.1729 85.3008C78.1345 85.3367 78.0872 85.3542 78.0391 85.3542ZM74.5304 82.2521L78.026 84.9055L79.6912 83.3506L79.3886 82.8687C79.0772 82.3728 79.0493 81.7405 79.3151 81.2193L80.2509 79.632C80.2832 79.5769 80.3401 79.5419 80.4031 79.5366C80.466 79.5314 80.5281 79.5576 80.5684 79.6066C80.8386 79.9328 81.0721 80.1654 81.2619 80.2984C81.6799 80.5905 82.1915 80.5485 82.565 80.1926C83.1387 79.6442 83.5392 79.0373 83.722 78.4373C83.7439 78.3665 83.8033 78.314 83.8759 78.3018L84.2555 78.2371C84.1628 77.3109 84.2564 75.637 84.3088 74.7082C84.3141 74.6076 84.3202 74.5079 84.3246 74.4179C83.8584 74.6173 83.164 74.4581 82.3892 74.2797C81.8382 74.1529 81.2689 74.0226 80.7188 74.0007C80.4319 73.9893 80.2177 74.0707 80.0699 74.2482C79.6929 74.7012 79.8092 75.6912 79.8862 76.0349C79.9089 76.1372 79.8468 76.2396 79.7445 76.2658C79.6431 76.292 79.5381 76.2326 79.5093 76.1311C79.4585 75.9553 79.246 75.4367 78.9522 75.3633C78.7991 75.3248 78.6172 75.4114 78.4117 75.6221C78.2936 75.7428 78.2394 75.8731 78.2464 76.0209C78.2613 76.3288 78.5411 76.7258 79.0326 77.1395C79.0729 77.1736 79.0974 77.2217 79.1017 77.2742C79.1061 77.3266 79.0886 77.3782 79.0536 77.4176C78.9076 77.5829 76.2874 80.4094 74.5304 82.2521Z" fill="#181800"/>
<path d="M80.4186 79.9237C80.3583 79.9237 80.2979 79.8957 80.2603 79.8424L79.963 79.4278C79.9 79.3404 79.9201 79.2188 80.0076 79.1558C80.095 79.0929 80.2166 79.113 80.2796 79.2004L80.5769 79.615C80.6399 79.7024 80.6198 79.824 80.5323 79.887C80.4973 79.9123 80.458 79.9237 80.4186 79.9237Z" fill="#181800"/>
<path d="M113.162 140.926C113.124 141.081 114.945 149.411 114.945 149.411L110.761 148.71L109.501 141.667L113.162 140.926Z" fill="#FFF5E7"/>
<path d="M114.945 149.605C114.935 149.605 114.924 149.604 114.913 149.602L110.729 148.902C110.648 148.888 110.584 148.825 110.57 148.744L109.31 141.702C109.291 141.597 109.359 141.497 109.463 141.476L113.124 140.734C113.19 140.721 113.257 140.742 113.304 140.79C113.341 140.83 113.361 140.882 113.358 140.935C113.386 141.281 114.435 146.157 115.137 149.37C115.151 149.433 115.132 149.499 115.088 149.545C115.049 149.583 114.998 149.605 114.945 149.605ZM110.928 148.54L114.693 149.17C113.45 143.476 113.098 141.717 113.003 141.156L109.725 141.82L110.928 148.54Z" fill="#181800"/>
<path d="M112.723 146.681C112.979 146.466 113.345 146.256 113.811 146.236C114.512 146.206 115.152 146.645 115.442 147.29C116.168 148.903 118.081 153.395 118.622 157.067C118.813 158.364 117.834 159.42 116.308 158.569C113.807 157.176 110.339 153.977 108.523 149.252C108.314 148.709 108.389 148.096 108.731 147.627C109.011 147.245 109.389 146.783 109.83 146.387C110.251 146.01 110.884 146.005 111.32 146.364L111.713 146.687C112.008 146.93 112.431 146.927 112.723 146.681Z" fill="white"/>
<path d="M117.338 159.072C117.031 159.072 116.656 158.987 116.212 158.74C113.597 157.282 110.154 154.043 108.341 149.323C108.105 148.711 108.193 148.034 108.573 147.514C108.94 147.012 109.319 146.584 109.7 146.244C110.193 145.803 110.926 145.789 111.443 146.215L111.837 146.539C112.057 146.721 112.377 146.718 112.598 146.533C112.958 146.23 113.374 146.061 113.802 146.042C114.558 146.01 115.29 146.48 115.619 147.211C116.4 148.946 118.275 153.377 118.814 157.039C118.924 157.788 118.676 158.471 118.166 158.824C117.998 158.939 117.722 159.072 117.338 159.072ZM110.586 146.295C110.361 146.295 110.139 146.375 109.96 146.535C109.6 146.857 109.24 147.264 108.888 147.744C108.585 148.158 108.517 148.696 108.704 149.183C110.481 153.806 113.846 156.975 116.402 158.4C117.006 158.736 117.553 158.772 117.944 158.503C118.331 158.235 118.517 157.697 118.429 157.096C117.897 153.483 116.038 149.091 115.264 147.371C115 146.783 114.42 146.405 113.82 146.431C113.473 146.446 113.147 146.581 112.849 146.831C112.485 147.137 111.956 147.141 111.59 146.84L111.196 146.516C111.017 146.368 110.8 146.295 110.586 146.295Z" fill="#181800"/>
<path d="M117.669 157.608C117.34 157.608 113.812 157.402 109.533 148.947C109.485 148.851 109.523 148.733 109.619 148.685C109.715 148.636 109.833 148.675 109.881 148.771C114.169 157.245 117.639 157.22 117.676 157.219C117.788 157.215 117.873 157.3 117.878 157.407C117.881 157.515 117.797 157.605 117.69 157.608C117.685 157.608 117.678 157.608 117.669 157.608Z" fill="#181800"/>
<path d="M114.992 152.954C114.914 152.954 114.84 152.907 114.81 152.83C114.771 152.731 114.82 152.617 114.92 152.578L116.903 151.795C117.004 151.755 117.117 151.804 117.156 151.904C117.195 152.004 117.146 152.118 117.047 152.157L115.063 152.94C115.04 152.949 115.015 152.954 114.992 152.954Z" fill="#181800"/>
<path d="M114.296 151.433C114.219 151.433 114.145 151.386 114.115 151.309C114.075 151.209 114.125 151.096 114.226 151.057L116.552 150.152C116.653 150.113 116.765 150.163 116.804 150.263C116.843 150.364 116.793 150.477 116.693 150.515L114.366 151.42C114.344 151.429 114.32 151.433 114.296 151.433Z" fill="#181800"/>
<path d="M95.1567 141.682C95.0578 141.807 93.2082 150.131 93.2082 150.131L89.7056 147.737L91.522 140.816L95.1567 141.682Z" fill="#FFF5E7"/>
<path d="M93.2082 150.325C93.1697 150.325 93.1312 150.314 93.098 150.291L89.5954 147.897C89.5272 147.85 89.4957 147.766 89.5167 147.687L91.3331 140.766C91.3602 140.664 91.4634 140.602 91.5666 140.626L95.2013 141.492C95.266 141.508 95.3185 141.555 95.3403 141.618C95.3578 141.67 95.3535 141.725 95.329 141.772C95.2092 142.097 94.1116 146.962 93.398 150.173C93.384 150.236 93.3394 150.289 93.279 150.312C93.2572 150.321 93.2327 150.325 93.2082 150.325ZM89.9295 147.653L93.0805 149.808C94.346 144.119 94.7658 142.375 94.9153 141.825L91.662 141.05L89.9295 147.653Z" fill="#181800"/>
<path d="M92.3403 146.719C92.663 146.631 93.0837 146.594 93.514 146.772C94.1629 147.04 94.5582 147.707 94.5512 148.414C94.532 150.183 94.3798 155.063 93.3268 158.622C92.9551 159.88 91.6232 160.426 90.5956 159.013C88.9121 156.698 87.1096 152.337 87.4481 147.287C87.4865 146.707 87.8119 146.183 88.3191 145.902C88.7337 145.673 89.2724 145.412 89.8373 145.239C90.3778 145.074 90.9542 145.335 91.1999 145.844L91.4212 146.302C91.5865 146.644 91.9721 146.818 92.3403 146.719Z" fill="white"/>
<path d="M91.9442 160.044C91.5577 160.044 90.9866 159.883 90.4383 159.128C88.6769 156.705 86.9155 152.32 87.254 147.274C87.2977 146.62 87.6607 146.044 88.2256 145.731C88.7696 145.431 89.2926 145.202 89.7815 145.053C90.4146 144.86 91.0854 145.156 91.3758 145.759L91.597 146.218C91.7212 146.475 92.0125 146.608 92.2897 146.533C92.7436 146.409 93.1931 146.43 93.5893 146.594C94.2907 146.882 94.7559 147.616 94.7472 148.418C94.7262 150.321 94.5644 155.13 93.5149 158.678C93.3007 159.404 92.7873 159.92 92.176 160.025C92.1095 160.036 92.0317 160.044 91.9442 160.044ZM90.1706 145.383C90.0797 145.383 89.9861 145.396 89.8952 145.424C89.4325 145.565 88.934 145.783 88.4145 146.071C87.9659 146.319 87.6782 146.778 87.6432 147.3C87.3126 152.241 89.0337 156.531 90.754 158.898C91.1598 159.457 91.6408 159.72 92.1095 159.64C92.573 159.56 92.9683 159.148 93.1406 158.566C94.1761 155.065 94.3361 150.298 94.3571 148.412C94.3641 147.767 93.9959 147.181 93.4406 146.952C93.1196 146.82 92.7672 146.805 92.392 146.907C91.9329 147.032 91.4519 146.812 91.2463 146.386L91.0251 145.927C90.8607 145.586 90.5266 145.383 90.1706 145.383Z" fill="#181800"/>
<path d="M92.3292 158.736C92.3038 158.736 92.2784 158.73 92.254 158.721C92.114 158.662 88.8309 157.171 88.4942 147.434C88.4907 147.326 88.5747 147.236 88.6823 147.232C88.7872 147.23 88.8799 147.313 88.8834 147.421C89.2123 156.911 92.3729 158.349 92.4053 158.362C92.5041 158.404 92.5513 158.518 92.5093 158.617C92.4778 158.691 92.4053 158.736 92.3292 158.736Z" fill="#181800"/>
<path d="M93.9731 153.508C93.9696 153.508 93.9653 153.508 93.9618 153.508L91.8331 153.385C91.7255 153.379 91.6433 153.287 91.6503 153.179C91.6564 153.072 91.7465 152.99 91.8558 152.996L93.9845 153.12C94.0921 153.126 94.1743 153.218 94.1673 153.325C94.1612 153.428 94.0755 153.508 93.9731 153.508Z" fill="#181800"/>
<path d="M94.3439 151.868C94.3395 151.868 94.336 151.868 94.3316 151.868L91.84 151.711C91.7325 151.704 91.6511 151.612 91.6581 151.505C91.6651 151.397 91.7587 151.316 91.8645 151.323L94.3561 151.479C94.4637 151.486 94.545 151.578 94.538 151.686C94.531 151.788 94.4453 151.868 94.3439 151.868Z" fill="#181800"/>
<path d="M75.5857 108.873C75.5857 108.873 101.065 107.768 103.85 110.354C107.629 113.863 114.119 143.072 114.119 143.072L107.852 144.829C107.852 144.829 98.409 120.858 96.0695 120.858C93.7301 120.858 71.6694 120.07 71.6694 120.07L75.5857 108.873Z" fill="#BABABA"/>
<path d="M73.9013 108.236C71.8872 108.133 70.0874 109.478 69.6134 111.439C68.8788 114.475 68.2438 118.627 69.8871 119.733C72.5615 121.532 91.8367 121.379 91.1677 121.154C90.4995 120.929 89.4439 137.307 89.4439 143.605L95.5125 143.839C95.5125 143.839 105.184 118.511 104.142 115.683C102.276 110.624 87.9196 109.464 83.3255 108.788C82.709 108.697 77.4695 108.419 73.9013 108.236Z" fill="#BABABA"/>
<path d="M100.937 129.62C100.917 129.62 100.898 129.617 100.878 129.61C100.775 129.577 100.719 129.468 100.752 129.365C100.97 128.684 101.187 128.014 101.399 127.357C103.097 122.109 104.564 117.577 103.957 115.744C102.668 111.853 93.0259 110.361 89.8574 109.872C89.7507 109.855 89.6781 109.755 89.6948 109.649C89.7114 109.543 89.8111 109.47 89.9169 109.487C95.5167 110.353 103.103 111.931 104.326 115.622C104.973 117.575 103.559 121.945 101.769 127.477C101.556 128.133 101.339 128.803 101.122 129.483C101.096 129.567 101.019 129.62 100.937 129.62Z" fill="white"/>
<path d="M156.748 121.743L159.706 152.029L161.817 151.941L160.768 120.102L156.748 121.743Z" fill="#CECECE"/>
<path d="M159.706 152.223C159.606 152.223 159.522 152.147 159.511 152.048L156.554 121.762C156.545 121.676 156.594 121.595 156.674 121.562L160.693 119.921C160.752 119.896 160.819 119.903 160.872 119.937C160.926 119.972 160.959 120.031 160.961 120.095L162.009 151.933C162.013 152.04 161.93 152.13 161.823 152.134L159.713 152.222C159.711 152.223 159.708 152.223 159.706 152.223ZM156.956 121.868L159.881 151.825L161.615 151.753L160.582 120.387L156.956 121.868Z" fill="#181800"/>
<path d="M196.422 120.653L193.536 152.104L191.354 151.94L192.402 118.953L196.422 120.653Z" fill="#CECECE"/>
<path d="M193.535 152.299C193.53 152.299 193.526 152.299 193.52 152.298L191.338 152.135C191.234 152.127 191.155 152.038 191.158 151.934L192.207 118.947C192.209 118.883 192.243 118.824 192.297 118.789C192.351 118.754 192.419 118.748 192.478 118.773L196.497 120.473C196.575 120.506 196.623 120.586 196.616 120.67L193.729 152.121C193.72 152.223 193.635 152.299 193.535 152.299ZM191.554 151.759L193.359 151.895L196.214 120.777L192.587 119.243L191.554 151.759Z" fill="#181800"/>
<path d="M206.469 113.25L205.62 146.275L203.915 145.906L202.354 111.68L206.469 113.25Z" fill="#CECECE"/>
<path d="M205.62 146.471C205.606 146.471 205.592 146.47 205.579 146.467L203.875 146.098C203.789 146.08 203.726 146.004 203.722 145.917L202.159 111.69C202.157 111.625 202.186 111.562 202.24 111.523C202.293 111.485 202.362 111.476 202.423 111.499L206.539 113.069C206.616 113.099 206.667 113.174 206.664 113.257L205.815 146.282C205.813 146.34 205.786 146.394 205.741 146.43C205.706 146.457 205.663 146.471 205.62 146.471ZM204.103 145.749L205.431 146.037L206.271 113.384L202.562 111.969L204.103 145.749Z" fill="#181800"/>
<path d="M173.175 112.513L172.326 145.539L170.556 145.549L169.06 110.943L173.175 112.513Z" fill="white"/>
<path d="M170.556 145.742C170.452 145.742 170.366 145.66 170.362 145.556L168.865 110.951C168.863 110.885 168.893 110.823 168.946 110.785C168.999 110.746 169.068 110.737 169.13 110.761L173.245 112.332C173.322 112.362 173.373 112.436 173.37 112.519L172.521 145.545C172.518 145.65 172.433 145.734 172.328 145.735L170.558 145.744C170.557 145.742 170.556 145.742 170.556 145.742ZM169.267 111.229L170.742 145.352L172.136 145.344L172.977 112.645L169.267 111.229Z" fill="#181800"/>
<path d="M181.729 86.7199V94.4046C181.729 101.92 175.801 108.013 168.49 108.013C161.179 108.013 155.251 114.105 155.251 121.621C155.251 122.291 155.793 122.833 156.461 122.833H191.506C202.466 122.833 211.353 113.7 211.353 102.433V86.036C211.353 81.5548 207.819 77.9219 203.459 77.9219H190.288C185.561 77.9219 181.729 81.8609 181.729 86.7199Z" fill="#333400"/>
<path d="M191.506 123.028H156.462C155.687 123.028 155.058 122.396 155.058 121.621C155.058 114.01 161.084 107.818 168.492 107.818C175.684 107.818 181.536 101.802 181.536 94.4054V86.7207C181.536 81.762 185.462 77.7285 190.289 77.7285H203.46C207.92 77.7285 211.549 81.4559 211.549 86.0368V102.433C211.548 113.789 202.557 123.028 191.506 123.028ZM190.288 78.1177C185.676 78.1177 181.924 81.9771 181.924 86.7207V94.4054C181.924 102.016 175.897 108.208 168.49 108.208C161.298 108.208 155.446 114.225 155.446 121.621C155.446 122.182 155.902 122.639 156.461 122.639H191.506C202.342 122.639 211.158 113.575 211.158 102.434V86.0368C211.158 81.6701 207.704 78.1177 203.459 78.1177H190.288Z" fill="#181800"/>
<path d="M179.228 87.0802C179.228 87.0802 177.318 104.445 164.49 105.582L179.228 105.792C179.228 105.792 184.685 94.722 184.906 90.4114C185.128 86.0998 179.228 87.0802 179.228 87.0802Z" fill="#FFF5E7"/>
<path d="M179.228 105.987C179.227 105.987 179.226 105.987 179.225 105.987L164.487 105.777C164.383 105.775 164.299 105.693 164.296 105.59C164.292 105.486 164.37 105.397 164.473 105.388C171.003 104.81 174.612 99.8726 176.489 95.8321C178.535 91.4288 179.03 87.1023 179.034 87.0586C179.044 86.972 179.11 86.9021 179.196 86.8881C179.33 86.8662 182.493 86.3607 184.145 87.8361C184.836 88.4526 185.157 89.3228 185.101 90.4213C184.88 94.7223 179.626 105.424 179.403 105.878C179.369 105.945 179.302 105.987 179.228 105.987ZM166.638 105.418L179.107 105.596C179.675 104.429 184.506 94.3944 184.712 90.4012C184.762 89.426 184.485 88.6608 183.886 88.1264C182.559 86.9414 180.029 87.1732 179.403 87.2528C179.295 88.0617 178.7 91.9928 176.846 95.9869C174.47 101.105 170.969 104.327 166.638 105.418Z" fill="#181800"/>
<path d="M197.484 76.042C194.996 75.4561 193.958 75.4482 184.912 75.7762C182.702 75.8566 180.072 78.6342 179.812 80.8337C180.515 82.9431 183.758 93.36 178.096 101.499C177.292 102.653 176.201 103.919 174.701 105.134C175.543 105.816 176.853 106.704 178.61 107.226C181.529 108.094 182.996 107.156 185.348 107.226C191.57 107.411 193.85 114.348 197.869 113.477C198.942 113.245 200.364 112.407 201.697 109.596C202.453 107.265 203.125 104.529 203.499 101.436C204.515 93.053 202.854 86.0723 201.37 81.6917C200.929 80.309 200.418 76.7329 197.484 76.042Z" fill="#181800"/>
<path d="M177.542 89.0242C177.542 89.0242 179.006 77.2815 183.221 76.2793L182.253 91.7257L177.542 89.0242Z" fill="#181800"/>
<path d="M198.967 85.8926C200.893 86.7085 203.154 87.6706 205.146 88.5259C205.146 88.5512 205.146 88.5748 205.147 88.6002L198.969 85.9337L198.967 85.8926Z" fill="white"/>
<path d="M205.147 88.7948C205.121 88.7948 205.095 88.7896 205.07 88.7791L198.893 86.1126C198.824 86.0828 198.779 86.0173 198.775 85.9429L198.774 85.9009C198.77 85.8336 198.802 85.7698 198.857 85.7322C198.912 85.6937 198.983 85.6867 199.044 85.7129C201.396 86.7099 203.533 87.6203 205.224 88.3471C205.294 88.3768 205.339 88.445 205.342 88.5211L205.343 88.5963C205.344 88.6628 205.312 88.7249 205.257 88.7616C205.224 88.7835 205.185 88.7948 205.147 88.7948Z" fill="#181800"/>
<path d="M206.226 91.1774C206.226 91.1774 205.814 84.2019 205.211 81.5066C203.945 75.8368 196.605 75.7773 196.605 75.7773L197.887 90.2084L206.226 91.1774Z" fill="#181800"/>
<path d="M190.287 74.8155L190.038 71.2875C189.87 71.2762 189.753 71.2683 189.719 71.2683C188.736 71.2569 188.417 70.9377 188.332 70.1296C188.279 69.6241 188.26 68.8729 188.507 67.9336C188.533 67.833 188.527 67.7263 188.487 67.631L188.319 67.2366C188.284 67.1071 188.329 66.9681 188.433 66.8833L188.522 66.8098C188.843 66.5466 189.109 66.223 189.323 65.8635C189.52 65.5329 189.854 64.9138 190.083 64.8036C190.729 64.4949 193.349 63.1218 194.815 65.5207C195.957 67.3905 194.091 69.9652 193.412 70.8083C193.249 71.012 194.52 75.0096 194.52 75.0096L196.164 75.4076C196.164 75.4076 194.896 77.663 191.043 76.7299C188.3 76.0661 188.735 75.0437 188.735 75.0437L190.287 74.8155Z" fill="#FFF5E7"/>
<path d="M192.818 77.1545C192.285 77.1545 191.68 77.0855 190.996 76.9202C189.694 76.6053 188.893 76.1637 188.615 75.6092C188.44 75.2602 188.543 74.997 188.555 74.9682C188.581 74.9061 188.639 74.8615 188.705 74.8518L190.079 74.6489L189.855 71.4699C189.784 71.4656 189.736 71.4629 189.716 71.4621C188.665 71.4498 188.236 71.0939 188.138 70.1493C188.058 69.3902 188.118 68.6486 188.318 67.8834C188.334 67.823 188.33 67.7601 188.306 67.7067L188.139 67.3123C188.135 67.3035 188.132 67.2957 188.13 67.2869C188.075 67.0832 188.145 66.8654 188.307 66.7316L188.397 66.6581C188.688 66.4194 188.942 66.1177 189.154 65.7626L189.241 65.613C189.527 65.1224 189.764 64.7385 189.997 64.6265L190.066 64.5933C192.325 63.501 193.978 63.7782 194.979 65.418C196.141 67.3202 194.419 69.8564 193.59 70.8953C193.589 71.2321 194.124 73.1202 194.67 74.8457L196.207 75.2174C196.267 75.2314 196.316 75.2734 196.34 75.3293C196.365 75.3853 196.361 75.4492 196.331 75.5025C196.287 75.5847 195.368 77.1545 192.818 77.1545ZM188.904 75.2165C188.905 75.2742 188.921 75.3556 188.973 75.4518C189.106 75.7002 189.558 76.1707 191.088 76.5415C194.029 77.2534 195.401 76.0456 195.834 75.5296L194.473 75.2008C194.406 75.185 194.354 75.1352 194.333 75.0705C193.03 70.9732 193.185 70.7808 193.259 70.6881C194.025 69.7357 195.693 67.3359 194.647 65.6235C193.322 63.4538 190.999 64.5776 190.236 64.9466L190.166 64.9807C190.022 65.0498 189.722 65.5641 189.578 65.8116L189.489 65.9646C189.254 66.3582 188.97 66.694 188.644 66.9616L188.555 67.0351C188.514 67.0692 188.494 67.1251 188.503 67.1767L188.665 67.5554C188.722 67.6884 188.732 67.8397 188.695 67.9831C188.507 68.702 188.451 69.3981 188.525 70.1091C188.594 70.7668 188.783 71.0624 189.721 71.0729C189.756 71.0738 189.876 71.0808 190.05 71.093C190.147 71.1 190.224 71.177 190.231 71.274L190.48 74.802C190.487 74.9034 190.415 74.9935 190.314 75.0084L188.904 75.2165Z" fill="#181800"/>
<path d="M194.006 62.4702C193.295 62.3171 192.479 62.4264 192.134 62.2996C191.578 62.095 191.563 61.4286 190.793 61.2405C189.862 61.014 189.474 61.4119 189.11 61.9664C189.049 62.0591 188.996 62.1623 188.952 62.2795C188.367 63.8511 189.106 64.6181 189.435 64.8673C189.435 64.8673 191.53 65.9509 191.888 66.2605C192.224 66.5499 192.611 67.2356 192.368 68.2212C192.336 68.348 192.391 68.4801 192.499 68.5457C192.625 68.6218 192.787 68.5859 192.874 68.46C193.146 68.0647 193.741 67.2994 194.165 67.4814C194.696 67.7087 194.531 69.3048 193.358 69.4893C192.997 69.5462 192.704 69.9152 192.74 70.2931C192.764 70.5397 192.995 70.8388 193.34 70.9175C193.551 70.9656 193.758 70.8808 193.943 70.7618C194.71 70.2721 196.87 68.1967 197.138 66.3357C197.462 64.0933 194.951 62.6739 194.006 62.4702Z" fill="#181800"/>
<path d="M189.773 71.4472C189.669 71.4472 189.582 71.3649 189.579 71.26C189.574 71.1524 189.658 71.0624 189.766 71.058C189.774 71.058 190.524 71.023 191.037 70.5875C191.119 70.5175 191.241 70.528 191.311 70.6093C191.381 70.6915 191.371 70.814 191.289 70.8839C190.673 71.4087 189.818 71.4454 189.782 71.4472C189.777 71.4472 189.776 71.4472 189.773 71.4472Z" fill="#181800"/>
<path d="M172.975 142.24C172.616 141.877 170.546 135.426 170.546 135.426L166.453 138.349L170.94 144.387L172.975 142.24Z" fill="#FFF5E7"/>
<path d="M170.939 144.582C170.935 144.582 170.931 144.582 170.928 144.582C170.87 144.578 170.817 144.549 170.782 144.503L166.295 138.465C166.264 138.423 166.251 138.371 166.259 138.319C166.267 138.267 166.296 138.221 166.339 138.19L170.432 135.267C170.482 135.231 170.547 135.22 170.606 135.241C170.665 135.26 170.711 135.307 170.73 135.366C171.515 137.813 172.858 141.805 173.115 142.104C173.18 142.18 173.185 142.301 173.116 142.373L171.08 144.521C171.044 144.56 170.992 144.582 170.939 144.582ZM166.726 138.392L170.957 144.084L172.732 142.212C172.246 141.285 170.886 137.113 170.441 135.737L166.726 138.392Z" fill="#181800"/>
<path d="M165.599 150.393L168.321 150.378C170.122 150.367 171.798 149.451 172.78 147.939L175.472 143.673C176.215 142.494 175.8 140.932 174.569 140.277C173.445 139.68 172.269 139.098 171.993 139.124C171.433 139.177 171.206 141.83 171.206 141.83L168.781 141.923C168.781 141.923 167.583 146.911 166.529 147.478C165.761 147.89 165.225 148.497 164.864 149.051C164.485 149.63 164.907 150.397 165.599 150.393Z" fill="#181800"/>
<path d="M165.871 149.525C165.777 149.525 165.694 149.456 165.679 149.359C165.663 149.253 165.736 149.154 165.842 149.138L169.566 148.577C170.346 148.459 171.027 148.003 171.432 147.324L174.722 141.822C174.777 141.729 174.897 141.699 174.989 141.754C175.081 141.809 175.111 141.929 175.056 142.021L171.766 147.524C171.301 148.302 170.52 148.826 169.624 148.961L165.9 149.522C165.891 149.525 165.881 149.525 165.871 149.525Z" fill="white"/>
<path d="M170.468 145.387C170.452 145.387 170.434 145.384 170.417 145.38L168.342 144.814C168.238 144.786 168.177 144.678 168.206 144.575C168.234 144.471 168.341 144.41 168.445 144.439L170.519 145.005C170.623 145.033 170.684 145.14 170.656 145.243C170.632 145.33 170.554 145.387 170.468 145.387Z" fill="white"/>
<path d="M169.388 146.453C169.372 146.453 169.357 146.451 169.341 146.447L167.951 146.106C167.846 146.081 167.782 145.975 167.808 145.871C167.834 145.766 167.94 145.702 168.043 145.729L169.434 146.07C169.539 146.095 169.603 146.201 169.576 146.305C169.555 146.393 169.476 146.453 169.388 146.453Z" fill="white"/>
<path d="M159.008 141.006L154.256 145.786L151.737 144.86L156.117 138.744L159.008 141.006Z" fill="#FFF5E7"/>
<path d="M154.255 145.981C154.233 145.981 154.21 145.978 154.188 145.969L151.668 145.043C151.612 145.022 151.568 144.975 151.55 144.917C151.532 144.859 151.542 144.795 151.577 144.746L155.958 138.63C155.989 138.588 156.036 138.559 156.088 138.551C156.141 138.543 156.194 138.558 156.236 138.59L159.127 140.852C159.17 140.886 159.197 140.938 159.201 140.994C159.204 141.049 159.184 141.104 159.145 141.143L154.393 145.923C154.357 145.961 154.306 145.981 154.255 145.981ZM152.044 144.765L154.206 145.56L158.715 141.024L156.157 139.023L152.044 144.765Z" fill="#181800"/>
<path d="M184.163 105.718C184.163 105.718 162.444 103.053 155.986 108.947C149.527 114.841 166.181 140.186 166.181 140.186L171.447 136.068L166.452 118.155L186.528 112.144L184.163 105.718Z" fill="white"/>
<path d="M166.18 140.38C166.17 140.38 166.159 140.379 166.149 140.378C166.096 140.369 166.048 140.338 166.018 140.293C165.334 139.252 149.349 114.741 155.855 108.804C162.305 102.917 183.296 105.416 184.187 105.526C184.259 105.534 184.32 105.583 184.346 105.652L186.711 112.077C186.73 112.128 186.727 112.184 186.703 112.232C186.678 112.28 186.636 112.316 186.585 112.331L166.691 118.287L171.635 136.017C171.656 136.093 171.63 136.174 171.568 136.223L166.301 140.34C166.266 140.366 166.224 140.38 166.18 140.38ZM173.455 105.323C167.024 105.323 159.455 106.045 156.118 109.091C150.134 114.552 164.767 137.633 166.229 139.902L171.225 135.996L166.264 118.208C166.236 118.105 166.294 117.999 166.396 117.969L186.274 112.018L184.021 105.899C183.241 105.809 178.73 105.323 173.455 105.323Z" fill="#181800"/>
<path d="M196.116 117.379C192.961 118.435 187.316 119.799 179.426 119.686C177.185 119.654 175.115 120.96 174.097 123.065C171.76 127.897 166.702 136.597 158.462 142.235L154.528 139.999L164.571 116.164C165.489 113.988 167.203 112.297 169.324 111.477L189.228 103.782C189.228 103.782 195.4 101.962 198.426 107.771C198.967 108.808 199.97 106.954 200.209 107.791C201.029 110.662 198.825 116.472 196.116 117.379Z" fill="white"/>
<path d="M158.462 142.431C158.429 142.431 158.396 142.422 158.366 142.405L154.431 140.17C154.346 140.121 154.31 140.016 154.348 139.925L164.392 116.091C165.324 113.878 167.096 112.132 169.253 111.297L189.158 103.602C189.236 103.578 195.535 101.801 198.599 107.684C198.663 107.807 198.733 107.879 198.808 107.897C198.965 107.937 199.202 107.778 199.41 107.638C199.659 107.471 199.894 107.313 200.124 107.397C200.254 107.444 200.346 107.559 200.397 107.74C201.231 110.658 199.008 116.618 196.178 117.564C192.835 118.683 187.214 119.994 179.425 119.881C179.397 119.881 179.371 119.88 179.344 119.88C177.189 119.88 175.251 121.127 174.273 123.15C171.978 127.896 166.886 136.707 158.574 142.396C158.539 142.419 158.501 142.431 158.462 142.431ZM154.774 139.917L158.453 142.006C166.631 136.367 171.651 127.673 173.921 122.981C174.963 120.829 177.124 119.46 179.429 119.493C187.163 119.605 192.739 118.305 196.053 117.196C198.668 116.321 200.797 110.564 200.021 107.847C200.001 107.777 199.982 107.761 199.982 107.76C199.928 107.754 199.74 107.886 199.626 107.962C199.35 108.147 199.036 108.357 198.71 108.275C198.524 108.228 198.37 108.089 198.253 107.864C195.338 102.268 189.528 103.899 189.283 103.971L169.393 111.661C167.334 112.457 165.642 114.127 164.75 116.242L154.774 139.917Z" fill="#181800"/>
<path d="M155.757 145.039C155.757 145.039 155.987 147.072 155.597 148.869C155.39 149.827 154.528 150.5 153.549 150.5H141.886C141.053 150.5 140.675 149.459 141.313 148.923C143.387 147.183 147.202 144.527 151.892 143.748L153.2 145.581L155.757 145.039Z" fill="#181800"/>
<path d="M154.528 149.087H142.441C142.333 149.087 142.246 149 142.246 148.892C142.246 148.785 142.333 148.697 142.441 148.697H154.528C154.635 148.697 154.723 148.785 154.723 148.892C154.723 149 154.635 149.087 154.528 149.087Z" fill="white"/>
<path d="M149.185 146.94C149.108 146.94 149.035 146.895 149.005 146.82L148.364 145.265C148.323 145.166 148.371 145.052 148.47 145.011C148.569 144.97 148.684 145.017 148.725 145.117L149.365 146.671C149.406 146.771 149.359 146.884 149.259 146.925C149.235 146.936 149.209 146.94 149.185 146.94Z" fill="white"/>
<path d="M147.081 147.35C146.999 147.35 146.923 147.298 146.895 147.216L146.433 145.814C146.399 145.712 146.455 145.602 146.557 145.569C146.659 145.534 146.77 145.59 146.803 145.693L147.265 147.095C147.299 147.197 147.244 147.307 147.141 147.34C147.122 147.347 147.101 147.35 147.081 147.35Z" fill="white"/>
<path d="M200.05 89.834C197.933 97.5493 191.641 102.472 182.519 105.063L183.91 107.664C196.588 107.218 203.236 101.708 205.894 91.1336L200.05 89.834Z" fill="#FFF5E7"/>
<path d="M183.91 107.858C183.838 107.858 183.772 107.818 183.738 107.755L182.347 105.155C182.319 105.103 182.316 105.041 182.339 104.987C182.362 104.932 182.408 104.891 182.465 104.876C192.004 102.165 197.857 97.0877 199.862 89.7816C199.889 89.6811 199.99 89.6207 200.092 89.6435L205.935 90.9439C205.987 90.9553 206.032 90.9868 206.059 91.0314C206.087 91.076 206.095 91.1302 206.081 91.1809C203.331 102.123 196.288 107.423 183.916 107.858C183.914 107.858 183.912 107.858 183.91 107.858ZM182.804 105.183L184.024 107.464C196.049 107.009 202.928 101.862 205.656 91.2797L200.188 90.0632C198.116 97.3544 192.27 102.44 182.804 105.183Z" fill="#181800"/>
<path d="M184.684 104.848C184.554 104.595 184.338 104.395 184.072 104.299C183.881 104.231 183.693 104.14 183.514 104.045L181.031 102.728C180.566 102.5 179.901 103.031 179.418 103.189C177.961 103.668 174.945 104.795 175.193 105.854C175.462 106.996 178.054 106.456 178.974 106.226C179.185 106.173 181.089 106.863 181.691 106.909C182.523 106.972 182.715 106.76 183.122 106.547C183.307 106.45 183.514 106.405 183.738 106.404C184.081 106.402 184.407 106.258 184.622 105.991L184.627 105.985C184.863 105.689 184.905 105.282 184.733 104.945L184.684 104.848Z" fill="#FFF5E7"/>
<path d="M181.964 107.114C181.876 107.114 181.781 107.11 181.677 107.102C181.345 107.077 180.695 106.884 180.068 106.698C179.643 106.571 179.112 106.411 179.004 106.417C178.043 106.66 176.277 106.995 175.445 106.488C175.212 106.346 175.064 106.148 175.005 105.899C174.742 104.776 177.227 103.705 179.359 103.005C179.489 102.962 179.642 102.885 179.804 102.804C180.226 102.591 180.705 102.351 181.118 102.553L183.606 103.872C183.813 103.982 183.982 104.06 184.139 104.116C184.448 104.227 184.704 104.455 184.859 104.758L184.908 104.854C185.115 105.259 185.065 105.749 184.781 106.103C184.53 106.416 184.153 106.594 183.742 106.597C183.539 106.598 183.367 106.638 183.215 106.717C183.153 106.75 183.096 106.783 183.041 106.814C182.771 106.967 182.517 107.114 181.964 107.114ZM179.004 106.027C179.157 106.027 179.443 106.106 180.178 106.324C180.758 106.496 181.415 106.691 181.706 106.713C182.346 106.761 182.555 106.642 182.845 106.476C182.904 106.442 182.964 106.407 183.032 106.372C183.237 106.264 183.474 106.208 183.738 106.207C184.031 106.205 184.298 106.081 184.47 105.866C184.664 105.624 184.697 105.299 184.56 105.03L184.511 104.935C184.4 104.72 184.221 104.559 184.006 104.481C183.831 104.418 183.646 104.334 183.423 104.215L180.94 102.898C180.706 102.784 180.319 102.979 179.978 103.15C179.803 103.237 179.638 103.321 179.479 103.373C176.807 104.251 175.237 105.184 175.384 105.808C175.418 105.953 175.504 106.066 175.647 106.153C176.159 106.465 177.385 106.421 178.927 106.034C178.949 106.031 178.974 106.027 179.004 106.027Z" fill="#181800"/>
<path d="M91.9621 108.328H189.499C191.316 108.328 192.728 109.524 192.522 110.888L185.787 155.572H180.924L185.14 113.635C185.214 112.896 184.44 112.265 183.46 112.265H99.7334C98.2659 112.265 97.1088 113.209 97.2199 114.314L101.394 155.834H96.5307L89.6803 110.259C89.5264 109.23 90.5916 108.328 91.9621 108.328Z" fill="#CECECE"/>
<path d="M101.394 156.028H96.5307C96.4345 156.028 96.3523 155.957 96.3383 155.862L89.4879 110.287C89.4197 109.83 89.5614 109.37 89.8876 108.991C90.3502 108.454 91.1251 108.133 91.9612 108.133H189.498C190.588 108.133 191.598 108.55 192.199 109.249C192.62 109.738 192.803 110.33 192.714 110.917L185.978 155.6C185.965 155.695 185.882 155.765 185.786 155.765H180.923C180.868 155.765 180.815 155.742 180.778 155.702C180.742 155.661 180.723 155.606 180.729 155.551L184.946 113.615C184.975 113.317 184.832 113.09 184.707 112.951C184.429 112.643 183.962 112.459 183.459 112.459H99.7333C98.9541 112.459 98.23 112.746 97.7953 113.226C97.5076 113.545 97.3755 113.914 97.414 114.293L101.588 155.813C101.594 155.868 101.576 155.922 101.539 155.963C101.502 156.005 101.449 156.028 101.394 156.028ZM96.6986 155.639H101.179L97.0266 114.333C96.9776 113.848 97.1482 113.362 97.5067 112.966C98.014 112.405 98.8465 112.07 99.7342 112.07H183.461C184.072 112.07 184.646 112.302 184.997 112.69C185.249 112.969 185.369 113.311 185.335 113.654L181.14 155.376H185.621L192.331 110.859C192.404 110.38 192.256 109.911 191.906 109.503C191.378 108.889 190.479 108.523 189.5 108.523H91.962C91.2379 108.523 90.5733 108.793 90.1832 109.245C89.9278 109.542 89.8211 109.882 89.8727 110.229L96.6986 155.639Z" fill="#181800"/>
<path d="M172.92 106.897L167.679 91.4493C167.365 90.9648 166.817 90.6719 166.229 90.6719H152.258C151.624 90.6719 151.216 91.2876 151.423 91.8315C151.505 92.0475 151.594 92.2609 151.666 92.4813L156.403 106.925H156.405C156.42 107.77 157.107 108.45 157.955 108.45H183.737C184.593 108.45 185.287 107.755 185.287 106.897H172.92V106.897Z" fill="#636363"/>
<path d="M183.736 108.645H157.954C157.022 108.645 156.247 107.894 156.211 106.966L151.48 92.5425C151.431 92.3903 151.37 92.2355 151.312 92.0859L151.24 91.9014C151.119 91.5857 151.165 91.2271 151.361 90.9438C151.564 90.6482 151.891 90.4785 152.258 90.4785H166.229C166.887 90.4785 167.49 90.8021 167.842 91.3452C167.851 91.3583 167.858 91.3732 167.863 91.3889L173.06 106.704H185.287C185.395 106.704 185.482 106.792 185.482 106.899C185.481 107.861 184.698 108.645 183.736 108.645ZM156.58 106.842C156.591 106.867 156.598 106.893 156.598 106.922C156.611 107.657 157.219 108.256 157.953 108.256H183.735C184.416 108.256 184.983 107.749 185.077 107.092H172.919C172.836 107.092 172.762 107.039 172.735 106.96L167.501 91.5367C167.22 91.1169 166.745 90.8677 166.227 90.8677H152.256C152.02 90.8677 151.81 90.9761 151.68 91.165C151.556 91.3434 151.528 91.5673 151.603 91.7632L151.673 91.9443C151.733 92.0991 151.795 92.2582 151.849 92.4209L156.58 106.842Z" fill="#181800"/>
<path d="M162.536 98.5898C162.732 99.2439 162.432 99.9139 161.863 100.085C161.295 100.257 160.675 99.8658 160.478 99.2116C160.281 98.5574 160.582 97.8875 161.15 97.7161C161.718 97.5447 162.339 97.9356 162.536 98.5898Z" fill="#181800"/>
<path d="M115.906 108.673H90.1257C89.4217 108.673 88.8506 108.102 88.8506 107.398V107.152H117.182V107.398C117.181 108.102 116.61 108.673 115.906 108.673Z" fill="#636363"/>
<path d="M115.906 108.868H90.1259C89.3152 108.868 88.6558 108.209 88.6558 107.398V107.152C88.6558 107.044 88.7432 106.957 88.8508 106.957H117.182C117.29 106.957 117.377 107.044 117.377 107.152V107.398C117.376 108.209 116.717 108.868 115.906 108.868ZM89.0449 107.346V107.398C89.0449 107.993 89.5294 108.478 90.125 108.478H115.906C116.502 108.478 116.986 107.993 116.986 107.398V107.346H89.0449Z" fill="#181800"/>
<path d="M117.182 107.181H100.97L106.12 92.0196C106.428 91.5455 106.965 91.2578 107.543 91.2578H121.246C121.868 91.2578 122.268 91.8613 122.065 92.3939C121.985 92.6055 121.897 92.8154 121.827 93.0305L117.182 107.181Z" fill="#636363"/>
<path d="M117.182 107.376H100.971C100.908 107.376 100.85 107.345 100.813 107.294C100.776 107.244 100.767 107.178 100.787 107.118L105.937 91.9572C105.942 91.9423 105.949 91.9274 105.958 91.9134C106.304 91.3808 106.897 91.0625 107.543 91.0625H121.248C121.608 91.0625 121.93 91.2295 122.131 91.5208C122.323 91.7997 122.367 92.1522 122.249 92.4627L122.179 92.6437C122.122 92.7897 122.063 92.9411 122.014 93.0906L117.367 107.242C117.34 107.321 117.266 107.376 117.182 107.376ZM101.242 106.986H117.04L121.643 92.969C121.696 92.8099 121.757 92.6533 121.815 92.502L121.884 92.3236C121.957 92.133 121.929 91.9152 121.81 91.7412C121.683 91.5566 121.479 91.4517 121.248 91.4517H107.543C107.037 91.4517 106.573 91.6957 106.297 92.105L101.242 106.986Z" fill="#181800"/>
<path d="M111.166 99.0129C110.972 99.6539 111.268 100.31 111.825 100.478C112.382 100.646 112.991 100.263 113.184 99.6216C113.377 98.9805 113.082 98.3246 112.525 98.1567C111.967 97.9888 111.359 98.3718 111.166 99.0129Z" fill="#181800"/>
</svg>
