<svg width="116" height="116" viewBox="0 0 116 116" fill="none" xmlns="http://www.w3.org/2000/svg">
<path d="M51.4092 6.30859H109.05V9.70794H51.4092V6.30859ZM22.4749 109.24C25.2866 109.24 27.5742 106.952 27.5742 104.14C27.5742 101.328 25.2864 99.0408 22.4747 99.0408C19.6631 99.0408 17.3752 101.328 17.3752 104.14C17.3752 106.952 19.6633 109.24 22.4749 109.24ZM22.4749 102.44C23.412 102.44 24.1748 103.203 24.1748 104.14C24.1748 105.077 23.412 105.84 22.4747 105.84C21.5374 105.84 20.7755 105.077 20.7755 104.14C20.7755 103.203 21.5379 102.44 22.4749 102.44ZM109.163 53.4866H71.7681V77.2836H109.163V53.4866ZM105.764 73.8845H75.1682V56.8862H105.764V73.8845Z" fill="#4B4B4B"/>
<path d="M115.963 94.4324V0H21.9084V37.6218H5.09947C2.28783 37.6218 0 39.9094 0 42.7211V110.713C0 113.525 2.28783 115.812 5.09947 115.812H39.0952C41.9068 115.812 44.1946 113.525 44.1946 110.713V77.2836H66.1032V53.4862H44.1946V50.0869H109.163V19.4905H28.7071V37.6218H25.3077V16.0157H112.563V91.0328H71.1026L48.2515 100.136L71.1026 109.239H112.563V116H115.963V105.84H75.2684L80.4483 100.136L75.2684 94.4324H115.963ZM40.7946 110.713C40.7946 111.65 40.0325 112.412 39.0954 112.412H5.09947C4.16218 112.412 3.39934 111.65 3.39934 110.713V95.8677H40.7946V110.713ZM22.4748 74.0921C26.9326 74.0921 30.5585 77.718 30.5585 82.1749V92.4685H14.391V82.1749C14.391 77.718 18.0178 74.0921 22.4748 74.0921ZM17.3187 65.5926C17.3187 62.7809 19.6065 60.4931 22.4181 60.4931C25.2298 60.4931 27.5176 62.7809 27.5176 65.5926C27.5176 68.4042 25.2298 70.692 22.4181 70.692C19.6065 70.692 17.3187 68.4042 17.3187 65.5926ZM40.7948 92.4685H33.9581V82.1749C33.9581 77.8108 31.511 74.008 27.917 72.0664C29.7508 70.506 30.9172 68.1838 30.9172 65.5926C30.9172 60.9063 27.1046 57.0938 22.4184 57.0938C17.7324 57.0938 13.9198 60.9063 13.9198 65.5926C13.9198 68.2041 15.1047 70.5441 16.9641 72.1044C13.4082 74.0576 10.9919 77.8392 10.9919 82.1751V92.4685H3.39957V54.3927H40.7948V92.4685ZM62.7032 56.8858V73.8841H44.1942V56.8858H62.7032ZM32.1062 22.8907H105.763V46.6877H44.1944V42.7211C44.1944 39.9094 41.9068 37.6218 39.0952 37.6218H32.1062V22.8907ZM39.0952 41.0212C40.0322 41.0212 40.7944 41.784 40.7944 42.7211V50.9933H3.39934V42.7211C3.39934 41.784 4.16218 41.0212 5.09947 41.0212H39.0952ZM62.9293 102.324L57.437 100.136L62.9293 97.9484V102.324ZM75.8559 100.136L70.9625 105.524L66.3287 103.678V96.5933L70.9625 94.7482L75.8559 100.136ZM112.563 12.6159H25.3077V3.39934H112.563V12.6159Z" fill="#4B4B4B"/>
<path d="M10.0105 44.3081H13.4098V47.7075H10.0105V44.3081ZM16.809 44.3081H34.9403V47.7075H16.8087L16.809 44.3081ZM35.9598 6.30859H39.3601V9.70794H35.9598V6.30859ZM42.7592 6.30859H46.1585V9.70794H42.7592V6.30859ZM29.1609 6.30859H32.5605V9.70794H29.1609V6.30859ZM79.7387 26.5921H102.025V29.9923H79.7387V26.5921ZM68.9353 33.3155H95.2254V36.7158H68.9351L68.9353 33.3155ZM98.6248 33.3155H102.025V36.7158H98.625L98.6248 33.3155ZM73.4682 40.1151H102.025V43.5145H73.4682V40.1151ZM59.8701 40.1151H63.2695V43.5145H59.8701V40.1151ZM66.6697 40.1151H70.069V43.5145H66.6697V40.1151ZM98.9275 80.9095H102.327V84.3098H98.9275V80.9095ZM78.5296 80.9095H81.9289V84.3098H78.5296V80.9095ZM85.3292 80.9095H88.7285V84.3098H85.3292V80.9095ZM92.1279 80.9095H95.5281V84.3098H92.1279V80.9095Z" fill="#4B4B4B"/>
</svg>
