<svg width="125" height="125" viewBox="0 0 125 125" fill="none" xmlns="http://www.w3.org/2000/svg">
<path d="M48.6761 32.0016C41.1386 32.0016 35.0073 37.3848 35.0073 44.0041C35.0085 44.5034 35.05 45.0018 35.1313 45.4944C33.0736 46.397 31.3129 47.8627 30.0522 49.7226C28.7915 51.5826 28.0821 53.7609 28.0059 56.0066C28.0166 58.5687 28.9247 61.046 30.5724 63.008C28.9247 64.97 28.0166 67.4474 28.0059 70.0095C28.0648 72.2414 28.7549 74.4109 29.9961 76.2668C31.2374 78.1227 32.979 79.5889 35.0193 80.4956C35.3074 86.8889 41.3246 92.014 48.6761 92.014C50.718 92.045 52.7428 91.6376 54.6139 90.8194C56.485 90.0012 58.1588 88.7912 59.5223 87.271C59.8384 86.9069 60.0124 86.4409 60.0124 85.9587V38.0569C60.0124 37.5747 59.8384 37.1088 59.5223 36.7446C58.1588 35.2244 56.485 34.0144 54.6139 33.1962C52.7428 32.378 50.718 31.9706 48.6761 32.0016ZM48.6761 88.0132C46.5205 88.153 44.3847 87.5273 42.6453 86.2464C40.9058 84.9655 39.6744 83.1117 39.1682 81.0117C40.7736 80.5858 42.1968 79.6488 43.2225 78.3423C44.2482 77.0358 44.8207 75.4309 44.8533 73.7702H40.8525C40.8162 74.6327 40.481 75.4557 39.9043 76.0981C39.3276 76.7404 38.5454 77.1622 37.6918 77.291C36.1143 76.8026 34.724 75.8432 33.7077 74.5415C32.6914 73.2399 32.0978 71.6584 32.0067 70.0095C32.0274 68.9557 32.2763 67.9189 32.7363 66.9706C33.1963 66.0223 33.8565 65.185 34.6712 64.5163C34.8868 64.3286 35.0596 64.0968 35.178 63.8366C35.2964 63.5764 35.3576 63.2939 35.3576 63.008C35.3576 62.7222 35.2964 62.4396 35.178 62.1795C35.0596 61.9193 34.8868 61.6875 34.6712 61.4997C33.8565 60.8311 33.1963 59.9938 32.7363 59.0455C32.2763 58.0971 32.0274 57.0604 32.0067 56.0066C32.1074 54.2827 32.7538 52.6355 33.8524 51.3032C34.951 49.9709 36.4448 49.0224 38.1179 48.5951L38.1339 48.5851C39.044 48.6541 39.8976 49.053 40.5344 49.7067C41.1712 50.3605 41.5475 51.2242 41.5927 52.1358H45.5935C45.5535 50.3253 44.8785 48.5865 43.6864 47.2233C42.4943 45.8602 40.8611 44.9593 39.0721 44.6783C39.0365 44.4551 39.0151 44.23 39.0081 44.0041C39.0081 39.5912 43.345 36.0025 48.6761 36.0025C51.3994 35.956 54.0326 36.9778 56.0116 38.8491V57.4529C54.3415 57.797 52.791 58.5736 51.5153 59.7051C50.2395 60.8365 49.2833 62.2831 48.7421 63.9002L48.6461 64.1883L52.4409 65.4545L52.5369 65.1665C52.8114 64.3484 53.2662 63.6025 53.8676 62.9838C54.469 62.3651 55.2017 61.8893 56.0116 61.5917V85.1666C54.0326 87.0378 51.3994 88.0597 48.6761 88.0132ZM70.8027 41.1875C70.9885 41.4406 71.2313 41.6463 71.5114 41.7881C71.7915 41.9299 72.1011 42.0037 72.415 42.0037H76.0497C76.7595 43.2201 77.8755 44.1473 79.2014 44.6221C80.5273 45.097 81.9782 45.089 83.2988 44.5997C84.6194 44.1104 85.7252 43.171 86.4216 41.9469C87.118 40.7228 87.3604 39.2923 87.1063 37.9071C86.8521 36.5218 86.1175 35.2706 85.0319 34.3735C83.9462 33.4764 82.579 32.9908 81.1707 33.0023C79.7624 33.0137 78.4032 33.5214 77.3323 34.4361C76.2613 35.3507 75.5472 36.6137 75.3156 38.0029H73.4292L69.6284 32.8178C69.4424 32.5645 69.1992 32.3586 68.9188 32.2168C68.6383 32.075 68.3284 32.0013 68.0141 32.0016H62.0129V36.0025H66.9999L70.8027 41.1875ZM81.2168 37.0027C81.6124 37.0027 81.9992 37.12 82.3282 37.3398C82.6571 37.5596 82.9135 37.872 83.0649 38.2376C83.2164 38.6031 83.256 39.0053 83.1788 39.3933C83.1016 39.7814 82.9111 40.1378 82.6313 40.4176C82.3515 40.6974 81.9951 40.8879 81.6071 40.9651C81.219 41.0422 80.8168 41.0026 80.4513 40.8512C80.0858 40.6998 79.7733 40.4434 79.5535 40.1145C79.3337 39.7855 79.2164 39.3987 79.2164 39.0031C79.2164 38.4725 79.4272 37.9637 79.8023 37.5886C80.1775 37.2134 80.6863 37.0027 81.2168 37.0027ZM84.3855 52.0058H76.1758L71.9769 46.7547C71.7895 46.5209 71.5521 46.3321 71.282 46.2023C71.012 46.0724 70.7162 46.0049 70.4166 46.0045H62.4149V50.0054H69.4544L73.6512 55.2564C73.8391 55.4908 74.0772 55.6799 74.3479 55.8097C74.6187 55.9396 74.9153 56.0069 75.2156 56.0066H84.3855C84.8573 57.3413 85.7859 58.4662 87.007 59.1825C88.228 59.8988 89.663 60.1604 91.0583 59.921C92.4536 59.6816 93.7193 58.9566 94.6318 57.8743C95.5443 56.7919 96.0447 55.4218 96.0447 54.0062C96.0447 52.5905 95.5443 51.2204 94.6318 50.1381C93.7193 49.0557 92.4536 48.3308 91.0583 48.0914C89.663 47.852 88.228 48.1135 87.007 48.8298C85.7859 49.5461 84.8573 50.6711 84.3855 52.0058ZM92.019 54.0062C92.019 54.4018 91.9017 54.7886 91.6819 55.1175C91.4621 55.4465 91.1497 55.7029 90.7841 55.8543C90.4186 56.0057 90.0164 56.0453 89.6284 55.9681C89.2403 55.891 88.8839 55.7004 88.6041 55.4207C88.3243 55.1409 88.1338 54.7845 88.0566 54.3964C87.9795 54.0084 88.0191 53.6062 88.1705 53.2407C88.3219 52.8751 88.5783 52.5627 88.9072 52.3429C89.2362 52.1231 89.623 52.0058 90.0186 52.0058C90.5492 52.0058 91.058 52.2165 91.4331 52.5917C91.8083 52.9668 92.019 53.4756 92.019 54.0062ZM81.2168 79.0113C80.1681 79.0146 79.1386 79.2935 78.2317 79.8202C77.3248 80.3468 76.5723 81.1027 76.0497 82.0119H72.415C72.1011 82.0119 71.7915 82.0858 71.5114 82.2276C71.2313 82.3694 70.9885 82.5751 70.8027 82.8281L67.0019 88.0132H62.0129V92.014H68.0141C68.3284 92.0143 68.6383 91.9406 68.9188 91.7988C69.1992 91.657 69.4424 91.4511 69.6284 91.1978L73.4292 86.0128H75.3156C75.5078 87.139 76.0179 88.1868 76.7858 89.0328C77.5538 89.8788 78.5475 90.4876 79.65 90.7875C80.7524 91.0875 81.9176 91.0661 83.0083 90.7258C84.099 90.3856 85.0697 89.7406 85.806 88.867C86.5423 87.9934 87.0136 86.9275 87.1643 85.795C87.315 84.6624 87.1388 83.5104 86.6565 82.4747C86.1742 81.4389 85.4059 80.5626 84.4422 79.949C83.4784 79.3354 82.3593 79.0101 81.2168 79.0113ZM81.2168 87.013C80.8212 87.013 80.4344 86.8956 80.1054 86.6758C79.7765 86.456 79.5201 86.1436 79.3687 85.7781C79.2173 85.4125 79.1776 85.0103 79.2548 84.6223C79.332 84.2342 79.5225 83.8778 79.8023 83.598C80.0821 83.3183 80.4385 83.1278 80.8265 83.0506C81.2146 82.9734 81.6168 83.013 81.9823 83.1644C82.3479 83.3158 82.6603 83.5722 82.8801 83.9012C83.0999 84.2301 83.2172 84.6169 83.2172 85.0126C83.2172 85.5431 83.0065 86.0519 82.6313 86.4271C82.2562 86.8022 81.7473 87.013 81.2168 87.013ZM89.6185 64.0082C88.3814 64.0119 87.1758 64.3985 86.1671 65.1148C85.1585 65.8312 84.3964 66.8422 83.9854 68.0091H74.8155C74.5159 68.0094 74.2201 68.077 73.9501 68.2068C73.68 68.3366 73.4426 68.5254 73.2552 68.7592L69.0543 74.0103H62.0129V78.0111H70.0145C70.3145 78.0111 70.6106 77.9437 70.881 77.8138C71.1514 77.684 71.3892 77.495 71.5768 77.261L75.7777 72.0099H83.9854C84.3539 73.0444 84.9997 73.9578 85.8522 74.6502C86.7047 75.3425 87.7311 75.7872 88.8193 75.9357C89.9074 76.0842 91.0155 75.9307 92.0223 75.492C93.0291 75.0533 93.896 74.3464 94.5282 73.4483C95.1604 72.5503 95.5336 71.4958 95.6071 70.4C95.6805 69.3042 95.4513 68.2094 94.9446 67.235C94.4378 66.2607 93.673 65.4444 92.7337 64.8753C91.7944 64.3062 90.7168 64.0063 89.6185 64.0082ZM89.6185 72.0099C89.2229 72.0099 88.8361 71.8926 88.5072 71.6727C88.1782 71.4529 87.9218 71.1405 87.7704 70.775C87.619 70.4095 87.5794 70.0072 87.6566 69.6192C87.7337 69.2312 87.9243 68.8747 88.204 68.595C88.4838 68.3152 88.8402 68.1247 89.2283 68.0475C89.6163 67.9703 90.0185 68.0099 90.3841 68.1613C90.7496 68.3127 91.062 68.5691 91.2818 68.8981C91.5016 69.2271 91.6189 69.6138 91.6189 70.0095C91.6189 70.54 91.4082 71.0488 91.033 71.424C90.6579 71.7991 90.1491 72.0099 89.6185 72.0099Z" fill="#4B4B4B"/>
<path d="M120.889 48.455H116.99C116.18 48.4296 115.399 48.1467 114.761 47.6474C114.123 47.1481 113.661 46.4584 113.441 45.6784C112.512 42.7586 111.334 39.9236 109.921 37.2047C109.522 36.4963 109.36 35.6791 109.459 34.8723C109.557 34.0654 109.911 33.3112 110.469 32.7197L113.237 29.9492C113.565 29.6209 113.769 29.1887 113.814 28.7267C113.858 28.2647 113.741 27.8015 113.481 27.4166C109.002 20.7501 103.27 15.018 96.6038 10.5392C96.2189 10.2797 95.7557 10.1622 95.2937 10.2067C94.8317 10.2512 94.3995 10.455 94.0713 10.7832L91.3007 13.5518C90.7094 14.1081 89.9561 14.4614 89.1503 14.5604C88.3444 14.6593 87.5281 14.4987 86.8198 14.1019C84.0997 12.6875 81.2634 11.509 78.342 10.5792C77.562 10.3597 76.8724 9.89729 76.3731 9.25914C75.8738 8.62099 75.5909 7.84031 75.5654 7.03045V3.13164C75.5653 2.66789 75.404 2.21861 75.1091 1.86065C74.8143 1.50268 74.4042 1.25828 73.9491 1.16924C66.0678 -0.389747 57.9575 -0.389747 50.0762 1.16924C49.6211 1.25828 49.211 1.50268 48.9162 1.86065C48.6214 2.21861 48.4601 2.66789 48.4599 3.13164V7.03045C48.4345 7.84031 48.1516 8.62099 47.6523 9.25914C47.153 9.89729 46.4633 10.3597 45.6833 10.5792C42.7635 11.5089 39.9285 12.6868 37.2096 14.0999C36.5015 14.4998 35.684 14.6623 34.8769 14.5637C34.0698 14.465 33.3155 14.1104 32.7246 13.5518L29.9541 10.7832C29.6262 10.4543 29.194 10.2501 28.7317 10.2055C28.2695 10.161 27.8062 10.279 27.4215 10.5392C20.7543 15.0178 15.0215 20.7499 10.5421 27.4166C10.2829 27.8018 10.1657 28.265 10.2106 28.7271C10.2554 29.1891 10.4596 29.6212 10.7881 29.9492L13.5567 32.7197C14.1136 33.3107 14.4673 34.064 14.5662 34.87C14.6652 35.676 14.5042 36.4925 14.1068 37.2007C12.6924 39.9207 11.5139 42.757 10.5841 45.6784C10.3646 46.4584 9.90219 47.1481 9.26404 47.6474C8.6259 48.1467 7.84521 48.4296 7.03535 48.455H3.13655C2.6728 48.4552 2.22351 48.6165 1.86555 48.9113C1.50759 49.2061 1.26318 49.6162 1.17414 50.0713C-0.391381 57.9519 -0.391381 66.0636 1.17414 73.9442C1.26318 74.3993 1.50759 74.8094 1.86555 75.1042C2.22351 75.3991 2.6728 75.5604 3.13655 75.5606H7.03535C7.84521 75.586 8.6259 75.8689 9.26404 76.3682C9.90219 76.8675 10.3646 77.5572 10.5841 78.3371C11.5138 81.257 12.6917 84.0919 14.1048 86.8109C14.5034 87.5192 14.6652 88.3364 14.5666 89.1433C14.468 89.9501 14.1142 90.7043 13.5567 91.2958L10.7881 94.0664C10.4599 94.3946 10.2561 94.8268 10.2116 95.2888C10.1671 95.7509 10.2846 96.214 10.5441 96.5989C15.0227 103.266 20.7548 108.999 27.4215 113.478C27.806 113.739 28.2697 113.858 28.7323 113.813C29.1948 113.768 29.6271 113.563 29.9541 113.232L32.7246 110.464C33.3153 109.906 34.0687 109.552 34.8748 109.453C35.6809 109.354 36.4976 109.516 37.2056 109.914C39.9256 111.328 42.7619 112.507 45.6833 113.436C46.4633 113.656 47.153 114.118 47.6523 114.756C48.1516 115.395 48.4345 116.175 48.4599 116.985V120.884C48.4601 121.348 48.6214 121.797 48.9162 122.155C49.211 122.513 49.6211 122.757 50.0762 122.846C57.9568 124.412 66.0685 124.412 73.9491 122.846C74.4042 122.757 74.8143 122.513 75.1091 122.155C75.404 121.797 75.5653 121.348 75.5654 120.884V116.985C75.5909 116.175 75.8738 115.395 76.3731 114.756C76.8724 114.118 77.562 113.656 78.342 113.436C81.2619 112.507 84.0968 111.329 86.8158 109.916C87.5241 109.517 88.3413 109.355 89.1482 109.454C89.955 109.552 90.7092 109.906 91.3007 110.464L94.0713 113.232C94.3993 113.561 94.8315 113.765 95.2937 113.809C95.7558 113.854 96.219 113.736 96.6038 113.476C103.27 108.998 109.002 103.265 113.481 96.5989C113.741 96.214 113.858 95.7509 113.814 95.2888C113.769 94.8268 113.565 94.3946 113.237 94.0664L110.469 91.2958C109.912 90.7048 109.558 89.9515 109.459 89.1455C109.36 88.3395 109.521 87.523 109.919 86.8149C111.333 84.0948 112.511 81.2585 113.441 78.3371C113.661 77.5572 114.123 76.8675 114.761 76.3682C115.399 75.8689 116.18 75.586 116.99 75.5606H120.889C121.353 75.5604 121.802 75.3991 122.16 75.1042C122.518 74.8094 122.762 74.3993 122.851 73.9442C124.417 66.0636 124.417 57.9519 122.851 50.0713C122.762 49.6162 122.518 49.2061 122.16 48.9113C121.802 48.6165 121.353 48.4552 120.889 48.455ZM119.218 71.5597H116.99C115.33 71.5826 113.721 72.135 112.396 73.1364C111.072 74.1378 110.103 75.5359 109.628 77.1269C108.768 79.8293 107.677 82.4528 106.368 84.9685C105.576 86.4308 105.272 88.1081 105.501 89.7553C105.73 91.4025 106.479 92.9334 107.64 94.1244L109.228 95.7147C105.505 100.935 100.94 105.5 95.7196 109.223L94.1293 107.635C92.9386 106.473 91.407 105.723 89.759 105.495C88.1109 105.266 86.433 105.572 84.9714 106.367C82.4554 107.675 79.8319 108.764 77.1298 109.624C75.5391 110.098 74.1415 111.068 73.1405 112.392C72.1395 113.716 71.5874 115.325 71.5646 116.985V119.214C65.2416 120.284 58.7837 120.284 52.4607 119.214V116.985C52.4378 115.325 51.8854 113.716 50.884 112.392C49.8826 111.067 48.4846 110.098 46.8936 109.624C44.1912 108.763 41.5676 107.672 39.0519 106.363C37.5899 105.57 35.9124 105.265 34.2649 105.494C32.6174 105.723 31.0864 106.473 29.8961 107.635L28.3057 109.223C23.0857 105.5 18.5206 100.935 14.7969 95.7147L16.3853 94.1244C17.5461 92.9329 18.2953 91.4014 18.5235 89.7537C18.7517 88.106 18.4468 86.4286 17.6535 84.9665C16.3459 82.4505 15.2563 79.827 14.3969 77.1249C13.9224 75.5342 12.9525 74.1366 11.6283 73.1356C10.3042 72.1346 8.6951 71.5825 7.03535 71.5597H4.80689C3.73131 65.2372 3.73131 58.7784 4.80689 52.4558H7.03535C8.69536 52.4329 10.3047 51.8805 11.6288 50.8791C12.953 49.8777 13.9228 48.4797 14.3969 46.8886C15.2573 44.1863 16.3482 41.5627 17.6575 39.047C18.4496 37.5847 18.7533 35.9075 18.5244 34.2602C18.2955 32.613 17.546 31.0821 16.3853 29.8912L14.7969 28.3008C18.5206 23.0808 23.0857 18.5157 28.3057 14.792L29.8961 16.3804C31.087 17.542 32.6186 18.2918 34.2665 18.52C35.9144 18.7483 37.5921 18.4429 39.0539 17.6486C41.5699 16.341 44.1934 15.2514 46.8956 14.392C48.4862 13.9175 49.8838 12.9476 50.8848 11.6234C51.8858 10.2993 52.4379 8.6902 52.4607 7.03045V4.80199C58.7837 3.73163 65.2416 3.73163 71.5646 4.80199V7.03045C71.5875 8.69045 72.1399 10.2998 73.1413 11.6239C74.1427 12.9481 75.5407 13.9178 77.1318 14.392C79.8342 15.2524 82.4577 16.3433 84.9734 17.6526C86.4359 18.444 88.113 18.7474 89.76 18.5185C91.4071 18.2897 92.938 17.5405 94.1293 16.3804L95.7196 14.792C100.94 18.5157 105.505 23.0808 109.228 28.3008L107.64 29.8912C106.479 31.0826 105.73 32.6141 105.502 34.2618C105.274 35.9095 105.578 37.587 106.372 39.049C107.679 41.565 108.769 44.1885 109.628 46.8907C110.103 48.4813 111.073 49.8789 112.397 50.8799C113.721 51.8809 115.33 52.433 116.99 52.4558H119.218C120.294 58.7784 120.294 65.2372 119.218 71.5597Z" fill="#4B4B4B"/>
<path d="M62.013 17.9988C53.3088 17.9988 44.8001 20.5799 37.5629 25.4156C30.3256 30.2514 24.6849 37.1247 21.3539 45.1663C18.023 53.2079 17.1514 62.0567 18.8495 70.5936C20.5476 79.1305 24.7391 86.9722 30.8939 93.1269C37.0487 99.2817 44.8903 103.473 53.4272 105.171C61.9642 106.869 70.8129 105.998 78.8545 102.667C86.8961 99.336 93.7694 93.6952 98.6052 86.458C103.441 79.2207 106.022 70.712 106.022 62.0078C106.009 50.34 101.368 39.1538 93.1175 30.9034C84.867 22.6529 73.6808 18.012 62.013 17.9988ZM62.013 102.016C54.1001 102.016 46.3649 99.6696 39.7856 95.2735C33.2063 90.8773 28.0783 84.6289 25.0502 77.3183C22.0221 70.0078 21.2298 61.9635 22.7735 54.2026C24.3172 46.4418 28.1276 39.313 33.7229 33.7177C39.3181 28.1225 46.4469 24.3121 54.2078 22.7684C61.9686 21.2246 70.0129 22.0169 77.3235 25.045C84.634 28.0732 90.8825 33.2011 95.2786 39.7805C99.6748 46.3598 102.021 54.095 102.021 62.0078C102.01 72.6151 97.7907 82.7846 90.2902 90.2851C82.7897 97.7855 72.6203 102.004 62.013 102.016Z" fill="#4B4B4B"/>
<path d="M64.0137 54.0061H68.0145V58.0069H64.0137V54.0061ZM68.0145 62.0078H72.0153V66.0086H68.0145V62.0078Z" fill="#4B4B4B"/>
</svg>
