<svg width="17" height="19" viewBox="0 0 17 19" fill="none" xmlns="http://www.w3.org/2000/svg">
<path d="M6.22031 9.6448C4.75784 9.6448 3.57634 10.8263 3.59795 12.2744C3.61236 13.2037 4.12386 14.0106 4.87671 14.4609C4.62096 14.0682 4.46967 13.6036 4.46246 13.1029C4.44085 11.6548 5.62236 10.4733 7.08483 10.4733C7.373 10.4733 7.65036 10.5201 7.90972 10.603V7.70325C7.63956 7.66362 7.36219 7.64201 7.08483 7.64201H7.0452V9.77448C6.78585 9.69163 6.50848 9.6448 6.22031 9.6448ZM12.5421 0.949219H11.7712C11.9874 2.03347 12.5961 2.97723 13.4462 3.61841C12.8879 2.87997 12.5493 1.95782 12.5421 0.949219Z" fill="#F00044"/>
<path d="M16.951 5.3605C16.6664 5.3605 16.3926 5.33168 16.1225 5.28125V7.35969C15.1427 7.35969 14.1917 7.16878 13.2984 6.78695C12.7221 6.542 12.1853 6.22862 11.6918 5.85039L11.7063 12.2586C11.699 13.6995 11.1299 15.0503 10.0997 16.0697C9.26039 16.8982 8.19776 17.4277 7.04507 17.597C6.77491 17.6366 6.49754 17.6582 6.22018 17.6582C4.98824 17.6582 3.81394 17.2584 2.85938 16.52C2.96744 16.6496 3.08271 16.7757 3.20878 16.8982C4.2462 17.9212 5.62222 18.4867 7.0883 18.4867C7.36566 18.4867 7.64303 18.4651 7.91319 18.4255C9.06588 18.2562 10.1285 17.7267 10.9678 16.8982C11.998 15.8788 12.5672 14.528 12.5744 13.0871L12.5203 6.67888C13.0102 7.05711 13.5469 7.3741 14.1269 7.61544C15.0238 7.99367 15.9748 8.18818 16.951 8.18818" fill="#F00044"/>
<path d="M3.19826 9.23654C4.22487 8.21713 5.59009 7.65159 7.04535 7.64079V6.87353C6.77519 6.83391 6.49783 6.81229 6.22046 6.81229C4.75079 6.81229 3.37116 7.37783 2.33375 8.40804C1.31434 9.42025 0.730789 10.8035 0.734392 12.2407C0.734392 13.6888 1.30713 15.0468 2.34095 16.0734C2.50665 16.2355 2.67595 16.3868 2.85606 16.5237C2.04197 15.5547 1.59891 14.3444 1.59531 13.0692C1.59891 11.632 2.17885 10.2487 3.19826 9.23654ZM16.1228 5.28138V4.51052H16.1156C15.1142 4.51052 14.192 4.17912 13.45 3.61719C14.0948 4.46729 15.0385 5.07246 16.1228 5.28138Z" fill="#08FFF9"/>
<path d="M6.93738 15.6536C7.27959 15.6716 7.60738 15.6247 7.90996 15.5275C8.95458 15.1853 9.70743 14.2127 9.70743 13.0672L9.71104 8.78066V0.949588H11.7715C11.7174 0.679427 11.6886 0.405663 11.685 0.121094H8.84652V7.94856L8.84292 12.2351C8.84292 13.3806 8.09007 14.3532 7.04545 14.6954C6.74287 14.7962 6.41507 14.8431 6.07287 14.8215C5.63701 14.7962 5.22996 14.6666 4.87695 14.4576C5.32002 15.1421 6.07647 15.6067 6.93738 15.6536Z" fill="#08FFF9"/>
<path d="M7.04607 17.5983C8.19876 17.429 9.26139 16.8995 10.1007 16.071C11.1309 15.0516 11.7 13.7008 11.7073 12.26L11.6928 5.85174C12.1827 6.22997 12.7195 6.54696 13.2994 6.7883C14.1963 7.16653 15.1473 7.36104 16.1235 7.36104V5.2826C15.0392 5.07368 14.0955 4.46852 13.4507 3.61841C12.6006 2.97723 11.9882 2.03347 11.7757 0.949219H9.71166V8.77669L9.70806 13.0632C9.70806 14.2087 8.95521 15.1813 7.91059 15.5235C7.60801 15.6244 7.28021 15.6712 6.93801 15.6496C6.07349 15.6028 5.32065 15.1381 4.87758 14.4573C4.12473 14.0106 3.61323 13.2001 3.59882 12.2708C3.57721 10.8227 4.75871 9.6412 6.22118 9.6412C6.50935 9.6412 6.78672 9.68803 7.04607 9.77088V7.63841C5.59081 7.64921 4.22559 8.21475 3.19898 9.23416C2.17957 10.2464 1.59602 11.6296 1.59963 13.0632C1.59963 14.3384 2.04269 15.5487 2.86038 16.5177C3.81855 17.2561 4.98925 17.656 6.22118 17.656C6.49855 17.6596 6.77591 17.638 7.04607 17.5983Z" fill="black"/>
</svg>
