<svg width="166" height="31" viewBox="0 0 166 31" fill="none" xmlns="http://www.w3.org/2000/svg">
<path d="M14.031 14.3282L8.765 25.3051L0 6.99619H3.94953L8.77204 17.0217L12.0598 10.1864L14.031 6.12866L16.0023 10.1864L19.29 17.0217L24.1196 6.99619H28.0691L19.2971 25.3051L14.031 14.3282Z" fill="#1C1C1C"/>
<path d="M33.8562 17.4554V24.4305H30.3502V6.99609H33.8562V13.9713H44.3812V6.99609H47.8872V24.4305H44.3812V17.4554H33.8562Z" fill="#1C1C1C"/>
<path d="M56.6944 24.4305H53.1884V11.4106H56.6944V24.4305Z" fill="#1C1C1C"/>
<path d="M70.5706 10.4872V24.4305H67.0646V10.4872H60.0455V6.99609H77.5896V10.4802H70.5706V10.4872Z" fill="#1C1C1C"/>
<path d="M98.4778 6.99609V10.4872H84.4397V20.9464H98.4778V24.4305H80.9337V6.99609H98.4778Z" fill="#1C1C1C"/>
<path d="M162.5 3.48413L162.494 3.49045V3.48413H162.5Z" fill="white"/>
<path d="M103.195 0V13.9783H88.8257V17.4624H103.195V24.4376H115.48C116.937 24.4376 118.183 23.9269 119.204 22.9124C120.225 21.891 120.739 20.6527 120.739 19.2115C120.739 17.8682 120.302 16.7068 119.422 15.7274C120.302 14.7479 120.739 13.5796 120.739 12.2433C120.739 10.7881 120.225 9.54976 119.204 8.52832C118.176 7.51388 116.93 7.00316 115.48 7.00316H106.701V3.48409H162.501L166 0H103.195ZM116.726 20.4428C116.388 20.7786 115.973 20.9465 115.48 20.9465H106.701V17.4624H115.48C115.973 17.4624 116.388 17.6233 116.726 17.9592C117.064 18.302 117.233 18.7147 117.233 19.2045C117.233 19.6942 117.064 20.107 116.726 20.4428ZM115.48 10.4803C115.973 10.4803 116.388 10.6482 116.726 10.984C117.064 11.3198 117.233 11.7396 117.233 12.2293C117.233 12.719 117.064 13.1318 116.726 13.4676C116.388 13.8034 115.973 13.9713 115.48 13.9713H106.701V10.4803H115.48Z" fill="#B00013"/>
<path d="M132.616 24.4305C130.187 24.4305 128.117 23.584 126.406 21.8839C124.695 20.1839 123.844 18.127 123.844 15.7133C123.844 13.2996 124.695 11.2428 126.406 9.5427C128.117 7.84263 130.187 6.99609 132.616 6.99609C135.044 6.99609 137.114 7.84263 138.825 9.5427C140.536 11.2428 141.388 13.2996 141.388 15.7133C141.388 18.127 140.536 20.1839 138.825 21.8839C137.114 23.584 135.044 24.4305 132.616 24.4305ZM132.616 20.9464C134.08 20.9464 135.319 20.4357 136.34 19.4213C137.361 18.4068 137.875 17.1685 137.875 15.7203C137.875 14.2651 137.361 13.0338 136.34 12.0193C135.319 11.0049 134.073 10.4942 132.616 10.4942C131.151 10.4942 129.912 11.0049 128.891 12.0193C127.87 13.0338 127.357 14.2721 127.357 15.7203C127.357 17.1755 127.87 18.4068 128.891 19.4213C129.905 20.4357 131.151 20.9464 132.616 20.9464Z" fill="#B00013"/>
<path d="M147.942 15.7133L141.359 6.99609H145.745L150.131 12.7959L154.518 6.99609H158.904L152.328 15.7133L158.904 24.4305H154.518L150.131 18.6307L145.745 24.4305H141.359L147.942 15.7133Z" fill="#B00013"/>
<path d="M49.9922 4.48443L52.4985 0.580566L57.138 0.741478L54.6106 4.67332L49.9922 4.48443Z" fill="#B00013"/>
<path d="M49.8796 4.84131L54.505 5.0442L56.7156 9.15794L52.0409 8.90608L49.8796 4.84131Z" fill="#B00013"/>
<path d="M57.3562 1.02832L54.9555 4.96716L57.1591 9.0809L59.5527 5.0791L57.3562 1.02832Z" fill="#B00013"/>
<path d="M166 0V31H103.202L106.701 27.5159H162.494V3.49109L162.501 3.48409L166 0Z" fill="#1C1C1C"/>
</svg>
